<?xml version="1.0" standalone="no"?>
<!DOCTYPE svg PUBLIC "-//W3C//DTD SVG 1.1//EN" "http://www.w3.org/Graphics/SVG/1.1/DTD/svg11.dtd" >
<svg xmlns="http://www.w3.org/2000/svg" xmlns:xlink="http://www.w3.org/1999/xlink" version="1.1">
<metadata>
Created by FontForge 20201107 at Fri Jan 10 15:39:06 2025
 By 
Copyright 2019 IBM Corp. All rights reserved.
</metadata>
<defs>
<font id="IBMPlexSansSemiCondensed-SemiBold" horiz-adv-x="570" >
  <font-face 
    font-family="IBM Plex Sans SemiCondensed SemiBold"
    font-weight="600"
    font-stretch="semi-condensed"
    units-per-em="1000"
    panose-1="2 11 5 3 5 2 3 0 2 3"
    ascent="800"
    descent="-200"
    x-height="522"
    cap-height="698"
    bbox="-285 -266 1244 1142"
    underline-thickness="88"
    underline-position="-119"
    unicode-range="U+0020-FFFD"
  />
<missing-glyph horiz-adv-x="448" 
d="M32 0v780h384v-780h-384zM120 88h208v604h-208v-604z" />
    <glyph glyph-name="fi" unicode="fi" horiz-adv-x="597" 
d="M95 0v424h-73v98h73v78q0 70 34 105t103 35h88v-99h-102v-119h309v-522h-123v424h-186v-424h-123zM465 601q-38 0 -55.5 17.5t-17.5 45.5v19q0 29 17.5 46t55.5 17q39 0 56.5 -17t17.5 -46v-19q0 -28 -17.5 -45.5t-56.5 -17.5z" />
    <glyph glyph-name=".notdef" horiz-adv-x="448" 
d="M32 0v780h384v-780h-384zM120 88h208v604h-208v-604z" />
    <glyph glyph-name=".null" horiz-adv-x="0" 
 />
    <glyph glyph-name="nonmarkingreturn" horiz-adv-x="333" 
 />
    <glyph glyph-name="space" unicode=" " horiz-adv-x="224" 
 />
    <glyph glyph-name="exclam" unicode="!" horiz-adv-x="296" 
d="M177 208h-56l-39 293v197h132v-197zM148 -12q-41 0 -59.5 19t-18.5 49v23q0 30 18.5 48.5t59.5 18.5t59.5 -18.5t18.5 -48.5v-23q0 -30 -18.5 -49t-59.5 -19z" />
    <glyph glyph-name="quotedbl" unicode="&#x22;" horiz-adv-x="451" 
d="M180 430h-111v310h111v-310zM383 430h-111v310h111v-310z" />
    <glyph glyph-name="numbersign" unicode="#" horiz-adv-x="620" 
d="M329 0l30 183h-153l-30 -183h-81l30 183h-103v76h115l30 180h-104v76h116l30 183h81l-30 -183h153l30 183h81l-30 -183h102v-76h-115l-29 -180h103v-76h-116l-30 -183h-80zM218 259h153l30 180h-154z" />
    <glyph glyph-name="dollar" unicode="$" horiz-adv-x="568" 
d="M339 -82h-97v129l10 17v570l-10 17v129h97v-129l-9 -17v-570l9 -17v-129zM283 4q-59 0 -106 14t-82.5 39t-59.5 55l79 71q17 -22 43 -41t59 -30t72 -11q40 0 68 12.5t42.5 35t14.5 52.5q0 24 -9 42.5t-29 32t-53 20.5l-61 14q-73 16 -118.5 41.5t-67 63t-21.5 88.5
q0 58 26.5 100.5t79.5 66.5t133 24q82 0 137.5 -27t88.5 -70l-79 -69q-20 28 -58.5 48.5t-91.5 20.5q-62 0 -90.5 -23.5t-28.5 -64.5q0 -25 9.5 -42t29 -28.5t49.5 -18.5l67 -16q70 -17 115 -41.5t66.5 -61t21.5 -89.5q0 -62 -28 -109t-82.5 -73t-135.5 -26z" />
    <glyph glyph-name="percent" unicode="%" horiz-adv-x="915" 
d="M283 0h-111l460 698h111zM217 314q-53 0 -90 21.5t-56 65.5t-19 111t19 111t56 65.5t90 21.5q54 0 91 -21.5t56 -65.5t19 -111t-19 -111t-56 -65.5t-91 -21.5zM217 388q20 0 32.5 9t19.5 27.5t7 47.5v80q0 29 -7 47.5t-19.5 27.5t-32.5 9q-19 0 -32 -9t-19.5 -27.5
t-6.5 -47.5v-80q0 -29 6.5 -47.5t19.5 -27.5t32 -9zM698 -12q-54 0 -90.5 21.5t-56 65.5t-19.5 111t19.5 111t56 65.5t90.5 21.5q53 0 90 -21.5t56.5 -65.5t19.5 -111t-19.5 -111t-56.5 -65.5t-90 -21.5zM698 62q19 0 32 9t19.5 27.5t6.5 47.5v80q0 29 -6.5 47.5t-19.5 27.5
t-32 9q-20 0 -32.5 -9t-19 -27.5t-6.5 -47.5v-80q0 -29 6.5 -47.5t19 -27.5t32.5 -9z" />
    <glyph glyph-name="ampersand" unicode="&#x26;" horiz-adv-x="679" 
d="M518 0l-69 84h-7q-12 -24 -35 -46t-58.5 -36t-85.5 -14q-68 0 -115 24.5t-71 68.5t-24 102q0 47 16 82t46 62t72 50q-33 39 -55 82t-22 89q0 49 23 85t65.5 56.5t101.5 20.5q56 0 98 -18.5t65 -53.5t23 -84q0 -43 -18.5 -78t-49 -62t-68.5 -49l114 -136q13 34 20 72.5
t9 77.5h151v-104h-62q-7 -34 -18 -66t-25 -60l131 -149h-152zM298 614q-30 0 -49.5 -17t-19.5 -48v-12q0 -14 6.5 -30.5t20 -35t32.5 -40.5q24 14 42 30.5t27.5 35.5t9.5 42v11q0 21 -9 35t-24.5 21.5t-35.5 7.5zM290 92q23 0 42.5 5t36 15t29.5 24l-150 174
q-22 -12 -37.5 -28t-23 -34.5t-7.5 -43.5v-16q0 -44 28.5 -70t81.5 -26z" />
    <glyph glyph-name="quotesingle" unicode="'" horiz-adv-x="249" 
d="M180 430h-111v310h111v-310z" />
    <glyph glyph-name="parenleft" unicode="(" horiz-adv-x="320" 
d="M46 312q0 100 22 185.5t60 152.5t86 110h117q-51 -50 -89 -113.5t-58 -136.5t-20 -152v-94q0 -80 20.5 -153.5t58 -136t88.5 -112.5h-117q-47 43 -85 110t-60.5 153t-22.5 187z" />
    <glyph glyph-name="parenright" unicode=")" horiz-adv-x="320" 
d="M274 312q0 -100 -22 -186.5t-60 -153t-86 -110.5h-117q52 50 89.5 113.5t58 136.5t20.5 152v94q0 80 -21 153t-58 136.5t-89 112.5h118q47 -43 85 -109.5t60 -152t22 -186.5z" />
    <glyph glyph-name="asterisk" unicode="*" horiz-adv-x="535" 
d="M212 747h112l-16 -174l5 -4l159 71l35 -103l-170 -40l-2 -7l117 -133l-90 -63l-91 151h-7l-91 -151l-90 63l118 133l-2 7l-170 40l34 103l159 -71l6 4z" />
    <glyph glyph-name="plus" unicode="+" 
d="M340 77h-110v179h-168v100h168v180h110v-180h168v-100h-168v-179z" />
    <glyph glyph-name="comma" unicode="," horiz-adv-x="286" 
d="M143 149q40 0 59 -19t19 -51v-21q0 -54 -26.5 -109t-72.5 -91h-87q33 32 55 63t33 70q-29 5 -43.5 23t-14.5 44v21q0 32 19.5 51t58.5 19z" />
    <glyph glyph-name="hyphen" unicode="-" horiz-adv-x="381" 
d="M327 243h-273v123h273v-123z" />
    <glyph glyph-name="period" unicode="." horiz-adv-x="286" 
d="M143 -11q-39 0 -58.5 19.5t-19.5 50.5v20q0 32 19.5 51t58.5 19q40 0 59 -19t19 -51v-20q0 -31 -19 -50.5t-59 -19.5z" />
    <glyph glyph-name="slash" unicode="/" horiz-adv-x="419" 
d="M109 -151h-104l274 891h104z" />
    <glyph glyph-name="zero" unicode="0" 
d="M285 -12q-85 0 -140 40t-81 120t-26 201t26 201.5t81 120t140 39.5q86 0 140.5 -39.5t80.5 -120t26 -201.5t-26 -201t-80.5 -120t-140.5 -40zM285 96q41 0 65 19.5t35 58t11 94.5v162q0 56 -11 94.5t-35 58t-65 19.5t-65 -19.5t-35 -58t-11 -94.5v-162q0 -56 11 -94.5
t35 -58t65 -19.5z" />
    <glyph glyph-name="one" unicode="1" 
d="M537 0h-452v106h176v500h-9l-132 -159l-81 64l153 187h195v-592h150v-106z" />
    <glyph glyph-name="two" unicode="2" 
d="M519 108v-108h-460v119l208 194q54 50 77.5 89.5t23.5 83.5v22q0 44 -26.5 68t-69.5 24q-50 0 -77 -30t-37 -74l-112 43q15 46 43.5 85t76.5 62.5t116 23.5q75 0 124 -25.5t73 -71t24 -107.5q0 -52 -18 -94.5t-54 -83t-89 -87.5l-146 -133h323z" />
    <glyph glyph-name="three" unicode="3" 
d="M184 414h65q56 0 83 26t27 61v17q0 41 -26 64t-71 23q-44 0 -77.5 -22t-57.5 -62l-82 73q23 35 54.5 61t73.5 40.5t95 14.5q67 0 117.5 -21t78 -61t27.5 -99q0 -69 -37 -108.5t-89 -50.5v-10q39 -6 70.5 -25.5t50 -53.5t18.5 -84q0 -63 -30 -110.5t-85 -73t-130 -25.5
q-64 0 -109.5 18t-76 48t-51.5 63l93 72q23 -42 55.5 -69t87.5 -27q54 0 83.5 27.5t29.5 74.5v17q0 46 -32 71t-90 25h-65v106z" />
    <glyph glyph-name="four" unicode="4" 
d="M450 0h-121v134h-299v110l257 454h163v-463h87v-101h-87v-134zM318 574l-185 -339h196v339h-11z" />
    <glyph glyph-name="five" unicode="5" 
d="M490 698v-111h-297l-16 -238h11q12 30 29.5 52.5t44.5 35t66 12.5q58 0 103 -25t71 -73.5t26 -120.5q0 -74 -28.5 -128t-83.5 -84t-135 -30q-61 0 -105.5 17.5t-74.5 47.5t-50 64l93 72q22 -42 54.5 -69t83.5 -27q55 0 83.5 31t28.5 88v20q0 55 -29 84t-81 29
q-41 0 -66 -17t-40 -36l-107 15l25 391h394z" />
    <glyph glyph-name="six" unicode="6" 
d="M288 -12q-79 0 -133 32.5t-82 94t-28 147.5q0 76 21 142t56 122t77 99.5t84 72.5h173q-78 -58 -135 -111.5t-92.5 -111.5t-50.5 -131l11 -1q12 28 30.5 51t48 37t70.5 14q57 0 100.5 -26t68 -74.5t24.5 -117.5q0 -72 -29.5 -126t-83.5 -83.5t-130 -29.5zM288 91
q35 0 59.5 13.5t37.5 39t13 62.5v22q0 37 -13 62.5t-37.5 39t-59.5 13.5t-59.5 -13.5t-37.5 -39t-13 -62.5v-22q0 -37 13 -62.5t37.5 -39t59.5 -13.5z" />
    <glyph glyph-name="seven" unicode="7" 
d="M294 0h-135l231 594h-226v-128h-109v232h461v-110z" />
    <glyph glyph-name="eight" unicode="8" 
d="M285 -12q-79 0 -133 25.5t-82 71.5t-28 106q0 70 36.5 112t95.5 56v11q-49 16 -80.5 56.5t-31.5 102.5q0 83 57 132t166 49t166 -49t57 -132q0 -62 -31.5 -102.5t-80.5 -56.5v-11q59 -14 95.5 -56t36.5 -112q0 -60 -28 -106t-81.5 -71.5t-133.5 -25.5zM285 88
q53 0 81.5 26t28.5 73v26q0 47 -28.5 73t-81.5 26t-81.5 -26t-28.5 -73v-26q0 -47 28.5 -73t81.5 -26zM285 408q50 0 76 24t26 67v20q0 42 -26 66.5t-76 24.5t-76 -24.5t-26 -66.5v-20q0 -43 26 -67t76 -24z" />
    <glyph glyph-name="nine" unicode="9" 
d="M525 436q0 -75 -21 -141.5t-56 -122.5t-77 -99.5t-84 -72.5h-173q78 59 135 112t93 111.5t50 130.5l-11 1q-11 -27 -30 -50.5t-48 -37.5t-71 -14q-56 0 -100 26t-68.5 74.5t-24.5 117.5q0 73 29.5 126.5t83.5 83t130 29.5q79 0 133 -32.5t82 -94t28 -147.5zM282 355
q36 0 60 13.5t37 39t13 62.5v22q0 37 -13 63t-37 39t-60 13q-35 0 -59.5 -13t-37.5 -39t-13 -63v-22q0 -37 13 -62.5t37.5 -39t59.5 -13.5z" />
    <glyph glyph-name="colon" unicode=":" horiz-adv-x="305" 
d="M152 -11q-39 0 -58.5 19.5t-19.5 50.5v20q0 32 19.5 51t58.5 19q40 0 59 -19t19 -51v-20q0 -31 -19 -50.5t-59 -19.5zM152 371q-39 0 -58.5 19.5t-19.5 50.5v20q0 32 19.5 51t58.5 19q40 0 59 -19t19 -51v-20q0 -31 -19 -50.5t-59 -19.5z" />
    <glyph glyph-name="semicolon" unicode=";" horiz-adv-x="305" 
d="M152 149q40 0 59 -19t19 -51v-21q0 -54 -26.5 -109t-72.5 -91h-87q33 32 55 63t33 70q-29 5 -43.5 23t-14.5 44v21q0 32 19.5 51t58.5 19zM152 371q-39 0 -58.5 19.5t-19.5 50.5v20q0 32 19.5 51t58.5 19q40 0 59 -19t19 -51v-20q0 -31 -19 -50.5t-59 -19.5z" />
    <glyph glyph-name="less" unicode="&#x3c;" 
d="M477 -6l-384 256v86l384 255v-130l-256 -163v-11l256 -163v-130z" />
    <glyph glyph-name="equal" unicode="=" 
d="M508 365h-446v99h446v-99zM508 148h-446v99h446v-99z" />
    <glyph glyph-name="greater" unicode="&#x3e;" 
d="M93 -6v130l256 163v11l-256 163v130l384 -255v-86z" />
    <glyph glyph-name="question" unicode="?" horiz-adv-x="470" 
d="M273 224h-118v157q77 3 115.5 30t38.5 86v18q0 43 -23 65.5t-63 22.5q-42 0 -68 -26.5t-36 -69.5l-103 43q11 42 36.5 78.5t69 59t105.5 22.5q68 0 116 -24t73.5 -68t25.5 -106q0 -59 -23 -101t-61 -67.5t-85 -34.5v-85zM215 -12q-40 0 -59 19t-19 49v23q0 30 19 48.5
t59 18.5q42 0 60.5 -18.5t18.5 -48.5v-23q0 -30 -18.5 -49t-60.5 -19z" />
    <glyph glyph-name="at" unicode="@" horiz-adv-x="855" 
d="M639 -47v-73h-205q-118 0 -203 51t-131 143.5t-46 217.5t47 219t132.5 146t203.5 52q81 0 148 -24.5t115.5 -73t75 -119t26.5 -161.5q0 -79 -21 -136t-60.5 -87t-96.5 -30q-52 0 -81.5 24.5t-33.5 63.5h-8q-9 -39 -35.5 -63t-71.5 -24q-43 0 -77.5 23t-54 70t-19.5 118
q0 72 19.5 119t54 70t77.5 23q40 0 64.5 -22t32.5 -55h8v68h96v-281q0 -30 12 -43.5t34 -13.5q36 0 56.5 38t20.5 116v46q0 88 -35.5 150.5t-99 96.5t-147.5 34q-68 0 -123 -23.5t-93.5 -66t-59 -100t-20.5 -126.5v-55q0 -69 20 -126t58.5 -98.5t93 -64.5t122.5 -23h205z
M426 161q21 0 37.5 9t26 25.5t9.5 36.5v121q0 20 -9.5 35t-25.5 23.5t-38 8.5q-38 0 -59 -24t-21 -66v-80q0 -41 21 -65t59 -24z" />
    <glyph glyph-name="A" unicode="A" horiz-adv-x="639" 
d="M619 0h-131l-52 180h-236l-52 -180h-127l219 698h161zM405 287l-55 184l-28 111h-10l-27 -111l-54 -184h174z" />
    <glyph glyph-name="B" unicode="B" horiz-adv-x="631" 
d="M77 0v698h310q84 0 129.5 -48.5t45.5 -130.5q0 -56 -17.5 -87.5t-45 -45.5t-57.5 -17v-10q23 0 48 -8.5t47 -27t36 -49t14 -74.5q0 -57 -21.5 -102t-60 -71.5t-89.5 -26.5h-339zM205 301v-192h175q22 0 38.5 8t25.5 25t9 42v42q0 25 -9 41.5t-25.5 25t-38.5 8.5h-175z
M205 589v-182h154q22 0 37.5 8t24 24t8.5 40v38q0 24 -8.5 40t-24 24t-37.5 8h-154z" />
    <glyph glyph-name="C" unicode="C" horiz-adv-x="611" 
d="M336 -12q-88 0 -152 38t-99.5 117t-35.5 202t35.5 204t99.5 121t152 40q93 0 150.5 -39.5t92.5 -120.5l-109 -58q-14 48 -44.5 76t-89.5 28q-70 0 -110 -46t-40 -131v-142q0 -84 40 -129.5t110 -45.5q59 0 92.5 31.5t49.5 79.5l104 -61q-35 -78 -94 -121t-152 -43z" />
    <glyph glyph-name="D" unicode="D" horiz-adv-x="656" 
d="M77 0v698h246q87 0 151 -37t98.5 -114.5t34.5 -197.5t-34.5 -197.5t-98.5 -114.5t-151 -37h-246zM205 113h118q46 0 79 18.5t51 56t18 92.5v138q0 56 -18 93t-51 55.5t-79 18.5h-118v-472z" />
    <glyph glyph-name="E" unicode="E" horiz-adv-x="571" 
d="M517 0h-440v698h440v-113h-312v-176h274v-112h-274v-184h312v-113z" />
    <glyph glyph-name="F" unicode="F" horiz-adv-x="549" 
d="M205 0h-128v698h428v-113h-300v-176h261v-112h-261v-297z" />
    <glyph glyph-name="G" unicode="G" horiz-adv-x="676" 
d="M500 0v107h-9q-9 -51 -53 -85t-120 -34q-75 0 -136 38.5t-97 118t-36 202.5q0 124 36.5 204t102 119.5t154.5 39.5q93 0 156.5 -41t98.5 -117l-104 -61q-18 47 -54.5 76t-97.5 29q-47 0 -82 -20t-54 -59t-19 -96v-144q0 -56 19 -95.5t54.5 -59.5t84.5 -20q40 0 72.5 13.5
t51.5 40.5t19 66v48h-130v108h253v-378h-110z" />
    <glyph glyph-name="H" unicode="H" horiz-adv-x="684" 
d="M479 0v297h-274v-297h-128v698h128v-289h274v289h128v-698h-128z" />
    <glyph glyph-name="I" unicode="I" horiz-adv-x="405" 
d="M354 0h-304v103h88v492h-88v103h304v-103h-88v-492h88v-103z" />
    <glyph glyph-name="J" unicode="J" horiz-adv-x="519" 
d="M110 698h336v-510q0 -62 -25 -106.5t-72.5 -69t-113.5 -24.5q-95 0 -145.5 49.5t-65.5 133.5l118 25q8 -47 30 -71t62 -24q38 0 61 23t23 74v395h-208v105z" />
    <glyph glyph-name="K" unicode="K" horiz-adv-x="646" 
d="M480 0l-186 318l-89 -111v-207h-128v698h128v-220l-3 -126h10l89 126l166 220h146l-229 -292l248 -406h-152z" />
    <glyph glyph-name="L" unicode="L" horiz-adv-x="497" 
d="M465 0h-388v698h128v-585h260v-113z" />
    <glyph glyph-name="M" unicode="M" horiz-adv-x="776" 
d="M77 0v698h142l104 -212l63 -144h6l63 144l103 212h141v-698h-121v392l4 114h-9l-50 -110l-135 -266l-135 266l-50 112h-9l4 -116v-392h-121z" />
    <glyph glyph-name="N" unicode="N" horiz-adv-x="684" 
d="M465 0l-201 378l-61 132h-9l4 -136v-374h-121v698h142l202 -378l60 -132h9l-4 136v374h121v-698h-142z" />
    <glyph glyph-name="O" unicode="O" horiz-adv-x="677" 
d="M338 -12q-87 0 -152 39t-101 119t-36 203q0 124 36 203.5t101 118.5t152 39q88 0 153 -39t100.5 -118.5t35.5 -203.5q0 -123 -35.5 -203t-100.5 -119t-153 -39zM338 102q48 0 82 20.5t52.5 60.5t18.5 96v140q0 57 -18.5 96.5t-52.5 60t-82 20.5q-47 0 -81 -20.5
t-52.5 -60t-18.5 -96.5v-140q0 -56 18.5 -96t52.5 -60.5t81 -20.5z" />
    <glyph glyph-name="P" unicode="P" horiz-adv-x="611" 
d="M205 0h-128v698h302q63 0 106.5 -26.5t66.5 -74.5t23 -114q0 -65 -23 -113.5t-66.5 -75t-106.5 -26.5h-174v-268zM205 586v-206h161q24 0 41 8.5t26 25.5t9 42v54q0 26 -9 42.5t-26 25t-41 8.5h-161z" />
    <glyph glyph-name="Q" unicode="Q" horiz-adv-x="677" 
d="M507 -72v-105h-95q-67 0 -97 32t-30 91v46q-72 11 -125 53.5t-82 118t-29 185.5q0 124 36 203.5t101 118.5t152 39q88 0 153 -39t100.5 -118.5t35.5 -203.5q0 -107 -27 -181.5t-76.5 -117.5t-118.5 -56v-66h102zM338 102q48 0 82 20.5t52.5 60.5t18.5 96v140
q0 57 -18.5 96.5t-52.5 60t-82 20.5q-47 0 -81 -20.5t-52.5 -60t-18.5 -96.5v-140q0 -56 18.5 -96t52.5 -60.5t81 -20.5z" />
    <glyph glyph-name="R" unicode="R" horiz-adv-x="632" 
d="M205 272v-272h-128v698h302q63 0 106.5 -26t66.5 -73.5t23 -114.5q0 -75 -31 -127t-93 -72l136 -285h-142l-122 272h-118zM205 380h161q24 0 41 8t26 25t9 43v54q0 26 -9 43t-26 25t-41 8h-161v-206z" />
    <glyph glyph-name="S" unicode="S" horiz-adv-x="579" 
d="M284 -12q-84 0 -145 30.5t-105 83.5l86 83q32 -41 74.5 -63t94.5 -22q59 0 88.5 26.5t29.5 73.5q0 25 -9 43.5t-28.5 30.5t-53.5 18l-63 12q-67 12 -110.5 37.5t-65 66.5t-21.5 98q0 65 28.5 110t82.5 69.5t130 24.5t132.5 -25.5t96.5 -76.5l-86 -81q-26 34 -61.5 52.5
t-86.5 18.5q-54 0 -81.5 -21.5t-27.5 -64.5q0 -26 9.5 -43.5t30 -28t51.5 -16.5l63 -13q69 -13 112.5 -38t64 -65t20.5 -98q0 -69 -29 -118.5t-85 -76.5t-136 -27z" />
    <glyph glyph-name="T" unicode="T" horiz-adv-x="552" 
d="M527 585h-187v-585h-128v585h-187v113h502v-113z" />
    <glyph glyph-name="U" unicode="U" horiz-adv-x="657" 
d="M73 698h127v-441q0 -52 12 -86.5t40.5 -51.5t75.5 -17q48 0 76 17t40.5 51.5t12.5 86.5v441h127v-423q0 -100 -25 -163.5t-81 -93.5t-150 -30t-150 30t-80.5 93.5t-24.5 163.5v423z" />
    <glyph glyph-name="V" unicode="V" horiz-adv-x="611" 
d="M380 0h-149l-216 698h132l113 -386l43 -193h9l43 193l113 386h128z" />
    <glyph glyph-name="W" unicode="W" horiz-adv-x="905" 
d="M326 0h-148l-153 698h128l72 -370l32 -186h8l35 184l82 372h144l83 -372l35 -184h8l32 186l72 370h124l-159 -698h-146l-88 393l-31 167h-9l-32 -167z" />
    <glyph glyph-name="X" unicode="X" horiz-adv-x="625" 
d="M18 0l212 358l-203 340h149l136 -245h9l138 245h138l-205 -340l216 -358h-149l-149 264h-8l-146 -264h-138z" />
    <glyph glyph-name="Y" unicode="Y" horiz-adv-x="599" 
d="M364 0h-129v270l-227 428h143l148 -297h8l144 297h140l-227 -427v-271z" />
    <glyph glyph-name="Z" unicode="Z" horiz-adv-x="569" 
d="M533 113v-113h-497v114l341 471h-324v113h471v-114l-342 -471h351z" />
    <glyph glyph-name="bracketleft" unicode="[" horiz-adv-x="313" 
d="M263 -138h-186v898h186v-89h-75v-720h75v-89z" />
    <glyph glyph-name="backslash" unicode="\" horiz-adv-x="419" 
d="M413 -151h-104l-274 891h104z" />
    <glyph glyph-name="bracketright" unicode="]" horiz-adv-x="313" 
d="M50 760h186v-898h-186v89h75v720h-75v89z" />
    <glyph glyph-name="asciicircum" unicode="^" 
d="M531 335l-99 -47l-145 280h-10l-143 -280l-95 47l191 363h111z" />
    <glyph glyph-name="underscore" unicode="_" horiz-adv-x="531" 
d="M502 -181h-473v104h473v-104z" />
    <glyph glyph-name="grave" unicode="`" 
d="M272 581l-123 172l107 52l91 -188z" />
    <glyph glyph-name="a" unicode="a" horiz-adv-x="532" 
d="M504 0h-72q-27 0 -47.5 11.5t-32.5 35.5t-12 61v13l28 -32h-36q-11 -48 -49 -74.5t-93 -26.5q-76 0 -115.5 41.5t-39.5 111.5q0 54 24.5 89.5t72 53.5t114.5 18h84v42q0 44 -21 67.5t-69 23.5q-41 0 -67.5 -19t-44.5 -48l-74 66q29 45 75.5 72.5t120.5 27.5
q101 0 153 -47.5t52 -137.5v-250h49v-99zM330 226h-77q-47 0 -69.5 -16.5t-22.5 -48.5v-19q0 -32 19.5 -47.5t53.5 -15.5q27 0 48.5 9t34.5 27t13 42v69z" />
    <glyph glyph-name="b" unicode="b" horiz-adv-x="571" 
d="M70 0v740h124v-304h10q12 44 48.5 71t84.5 27q64 0 106 -31.5t64 -92.5t22 -149t-21.5 -149t-64 -92.5t-106.5 -31.5q-48 0 -84.5 27t-48.5 71h-10v-86h-124zM293 91q48 0 76.5 31.5t28.5 85.5v107q0 54 -28.5 85t-76.5 31q-28 0 -50.5 -9.5t-35.5 -28t-13 -43.5v-177
q0 -26 13 -44.5t35.5 -28t50.5 -9.5z" />
    <glyph glyph-name="c" unicode="c" horiz-adv-x="488" 
d="M265 -12q-110 0 -169 70t-59 203t59 203t169 70q78 0 127 -35t70 -96l-102 -46q-8 36 -31 56t-64 20q-49 0 -73.5 -30t-24.5 -85v-114q0 -55 24.5 -85t73.5 -30q44 0 67.5 22t36.5 60l96 -46q-24 -68 -74.5 -102.5t-125.5 -34.5z" />
    <glyph glyph-name="d" unicode="d" horiz-adv-x="571" 
d="M377 0v86h-10q-12 -44 -48.5 -71t-84.5 -27q-63 0 -106 31.5t-64.5 92.5t-21.5 149t22 149t64.5 92.5t105.5 31.5q48 0 84.5 -27t48.5 -71h10v304h124v-740h-124zM278 91q29 0 51 9.5t35 28t13 44.5v177q0 25 -13 43.5t-35 28t-51 9.5q-48 0 -76.5 -31t-28.5 -85v-107
q0 -54 28.5 -85.5t76.5 -31.5z" />
    <glyph glyph-name="e" unicode="e" horiz-adv-x="531" 
d="M274 -12q-72 0 -125.5 31.5t-82.5 92.5t-29 149t27 149t79 92.5t124 31.5q76 0 126 -32.5t75.5 -92.5t25.5 -143v-36h-328v-23q0 -54 31 -86.5t88 -32.5q45 0 75 19.5t52 52.5l68 -74q-31 -44 -83 -71t-123 -27zM268 440q-31 0 -54 -14t-35.5 -40t-12.5 -62v-17h198v18
q0 36 -10.5 61.5t-32 39.5t-53.5 14z" />
    <glyph glyph-name="f" unicode="f" horiz-adv-x="339" 
d="M95 0v423h-72v99h72v78q0 70 34.5 105t102.5 35h89v-99h-101v-119h101v-99h-101v-423h-125z" />
    <glyph glyph-name="g" unicode="g" horiz-adv-x="519" 
d="M519 -45q0 -54 -25 -91.5t-82.5 -56.5t-154.5 -19q-85 0 -136 14.5t-73 42.5t-22 67q0 41 23.5 65t65.5 31v15q-32 8 -48.5 30.5t-16.5 54.5q0 38 27 59t64 28v9q-45 21 -67.5 60t-22.5 93t23 94t69 61.5t114 21.5q24 0 46 -3.5t41 -9.5v17q0 38 18.5 56t52.5 18h77v-96
h-106v-17q39 -20 58.5 -57t19.5 -85q0 -54 -22.5 -93.5t-68.5 -61t-115 -21.5q-22 0 -41.5 2.5t-37.5 6.5q-14 -6 -23 -18.5t-9 -29.5q0 -19 15 -29t47 -10h136q92 0 133 -39t41 -109zM402 -60q0 26 -19 40.5t-64 14.5h-169q-13 -11 -19 -25t-6 -30q0 -31 23.5 -48t80.5 -17
h61q60 0 86 16t26 49zM258 267q44 0 66 20.5t22 60.5v19q0 41 -22 61t-66 20t-66.5 -20t-22.5 -61v-19q0 -40 22.5 -60.5t66.5 -20.5z" />
    <glyph glyph-name="h" unicode="h" horiz-adv-x="560" 
d="M70 0v740h124v-305h10q14 42 46.5 70.5t89.5 28.5q75 0 115.5 -50.5t40.5 -143.5v-340h-125v324q0 53 -19 80t-62 27q-25 0 -47 -9.5t-35.5 -28t-13.5 -45.5v-348h-124z" />
    <glyph glyph-name="i" unicode="i" horiz-adv-x="264" 
d="M132 601q-39 0 -56.5 17.5t-17.5 45.5v19q0 29 17.5 46t56.5 17q38 0 55.5 -17t17.5 -46v-19q0 -28 -17.5 -45.5t-55.5 -17.5zM70 0v522h124v-522h-124z" />
    <glyph glyph-name="j" unicode="j" horiz-adv-x="265" 
d="M71 -101v623h125v-593q0 -63 -31.5 -96t-100.5 -33h-69v99h76zM133 601q-38 0 -55.5 17.5t-17.5 45.5v19q0 29 17.5 46t55.5 17q39 0 56.5 -17t17.5 -46v-19q0 -28 -17.5 -45.5t-56.5 -17.5z" />
    <glyph glyph-name="k" unicode="k" horiz-adv-x="536" 
d="M70 0v740h124v-343l-4 -107h10l65 96l111 136h140l-171 -203l185 -319h-144l-126 236l-66 -75v-161h-124z" />
    <glyph glyph-name="l" unicode="l" horiz-adv-x="281" 
d="M259 0h-66q-64 0 -93.5 31t-29.5 90v619h124v-641h65v-99z" />
    <glyph glyph-name="m" unicode="m" horiz-adv-x="845" 
d="M194 0h-124v522h124v-87h10q14 42 45 70.5t87 28.5q51 0 86.5 -26.5t51.5 -77.5h8q15 48 54 76t95 28q71 0 110.5 -50.5t39.5 -143.5v-340h-125v324q0 53 -19 80t-59 27q-24 0 -44.5 -9.5t-33 -28t-12.5 -45.5v-348h-125v324q0 54 -19.5 80.5t-58.5 26.5
q-24 0 -44.5 -9.5t-33.5 -28t-13 -45.5v-348z" />
    <glyph glyph-name="n" unicode="n" horiz-adv-x="560" 
d="M194 0h-124v522h124v-87h10q14 42 46.5 70.5t88.5 28.5q76 0 116.5 -50.5t40.5 -143.5v-340h-125v324q0 53 -19 80t-62 27q-25 0 -47 -9.5t-35.5 -28t-13.5 -45.5v-348z" />
    <glyph glyph-name="o" unicode="o" horiz-adv-x="535" 
d="M267 -12q-71 0 -123 31.5t-79.5 92.5t-27.5 149q0 89 27.5 150t79.5 92t123 31q72 0 124 -31t79.5 -92t27.5 -150q0 -88 -27.5 -149t-79.5 -92.5t-124 -31.5zM267 89q48 0 74.5 29t26.5 85v116q0 57 -26.5 85.5t-74.5 28.5q-47 0 -73.5 -28.5t-26.5 -85.5v-116
q0 -56 26.5 -85t73.5 -29z" />
    <glyph glyph-name="p" unicode="p" horiz-adv-x="571" 
d="M70 -200v722h124v-86h10q12 44 48.5 71t84.5 27q64 0 106 -31.5t64 -92.5t22 -149t-21.5 -149t-64 -92.5t-106.5 -31.5q-48 0 -84.5 27t-48.5 71h-10v-286h-124zM293 91q48 0 76.5 31.5t28.5 85.5v107q0 54 -28.5 85t-76.5 31q-28 0 -50.5 -9.5t-35.5 -28t-13 -43.5v-177
q0 -26 13 -44.5t35.5 -28t50.5 -9.5z" />
    <glyph glyph-name="q" unicode="q" horiz-adv-x="571" 
d="M377 -200v286h-10q-12 -44 -48.5 -71t-84.5 -27q-63 0 -106 31.5t-64.5 92.5t-21.5 149t22 149t64.5 92.5t105.5 31.5q48 0 84.5 -27t48.5 -71h10v86h124v-722h-124zM278 91q29 0 51 9.5t35 28t13 44.5v177q0 25 -13 43.5t-35 28t-51 9.5q-48 0 -76.5 -31t-28.5 -85v-107
q0 -54 28.5 -85.5t76.5 -31.5z" />
    <glyph glyph-name="r" unicode="r" horiz-adv-x="375" 
d="M194 0h-124v522h124v-107h10q6 28 21 52.5t40.5 39.5t63.5 15h27v-122h-40q-41 0 -68 -8t-40.5 -26t-13.5 -48v-318z" />
    <glyph glyph-name="s" unicode="s" horiz-adv-x="475" 
d="M234 -12q-69 0 -119.5 24.5t-88.5 70.5l76 74q27 -34 60.5 -52.5t75.5 -18.5t62 16t20 46q0 24 -13.5 38t-46.5 19l-51 8q-54 9 -91 28t-55.5 51t-18.5 78q0 79 51.5 121.5t139.5 42.5q47 0 81.5 -9t62 -27t50.5 -45l-73 -73q-21 25 -51.5 40.5t-66.5 15.5
q-38 0 -56.5 -15t-18.5 -43q0 -27 14.5 -40t48.5 -19l52 -8q84 -13 122 -50.5t38 -101.5q0 -52 -24.5 -90.5t-70 -59.5t-109.5 -21z" />
    <glyph glyph-name="t" unicode="t" horiz-adv-x="354" 
d="M313 0h-89q-64 0 -96 31.5t-32 93.5v298h-73v99h38q28 0 38 13t10 39v90h112v-142h100v-99h-100v-324h92v-99z" />
    <glyph glyph-name="u" unicode="u" horiz-adv-x="560" 
d="M366 0v87h-10q-13 -41 -45 -70t-91 -29q-75 0 -115.5 50.5t-40.5 143.5v340h124v-323q0 -53 20 -80.5t62 -27.5q26 0 47.5 9.5t35 28.5t13.5 46v347h124v-522h-124z" />
    <glyph glyph-name="v" unicode="v" horiz-adv-x="501" 
d="M327 0h-153l-164 522h124l74 -251l40 -164h10l40 164l74 251h119z" />
    <glyph glyph-name="w" unicode="w" horiz-adv-x="779" 
d="M155 0l-136 522h122l51 -229l33 -174h8l39 174l60 229h119l61 -229l40 -174h7l33 174l53 229h115l-134 -522h-138l-63 242l-32 149h-7l-32 -149l-63 -242h-136z" />
    <glyph glyph-name="x" unicode="x" horiz-adv-x="516" 
d="M17 0l167 266l-164 256h139l100 -170h8l101 170h130l-166 -258l170 -264h-139l-105 178h-8l-103 -178h-130z" />
    <glyph glyph-name="y" unicode="y" horiz-adv-x="503" 
d="M290 244l84 278h120l-205 -623q-11 -36 -29 -58t-45 -31.5t-67 -9.5h-80v99h98l23 74l-181 549h126l84 -279l31 -134h9z" />
    <glyph glyph-name="z" unicode="z" horiz-adv-x="477" 
d="M442 0h-406v98l255 325h-247v99h391v-97l-258 -326h265v-99z" />
    <glyph glyph-name="braceleft" unicode="{" horiz-adv-x="347" 
d="M297 -138h-101q-38 0 -61.5 22.5t-23.5 66.5v227q0 41 -25.5 62t-66.5 21v100q41 0 66.5 21.5t25.5 62.5v226q0 44 23.5 66.5t61.5 22.5h101v-89h-75v-234q0 -35 -14.5 -61t-40 -41.5t-59.5 -18.5v-10q34 -3 59.5 -18.5t40 -41.5t14.5 -61v-234h75v-89z" />
    <glyph glyph-name="bar" unicode="|" horiz-adv-x="361" 
d="M233 -138h-105v898h105v-898z" />
    <glyph glyph-name="braceright" unicode="}" horiz-adv-x="347" 
d="M50 760h100q39 0 62.5 -22.5t23.5 -66.5v-226q0 -41 25.5 -62.5t66.5 -21.5v-100q-41 0 -66.5 -21t-25.5 -62v-227q0 -44 -23.5 -66.5t-62.5 -22.5h-100v89h74v235q0 35 14.5 61t40 41.5t59.5 17.5v11q-34 3 -59.5 18t-40 41.5t-14.5 60.5v234h-74v89z" />
    <glyph glyph-name="asciitilde" unicode="~" 
d="M395 220q-35 0 -62 10t-58 26q-26 14 -52 24.5t-53 10.5q-22 0 -38.5 -7.5t-37.5 -21.5l-43 69q18 26 49 43t75 17q35 0 62 -9.5t58 -26.5q27 -14 52.5 -24.5t52.5 -10.5q22 0 38.5 7t37.5 22l43 -69q-18 -26 -48.5 -43t-75.5 -17z" />
    <glyph glyph-name="uni00A0" unicode="&#xa0;" horiz-adv-x="224" 
 />
    <glyph glyph-name="exclamdown" unicode="&#xa1;" horiz-adv-x="296" 
d="M214 -176h-132v197l37 293h56l39 -293v-197zM148 376q-41 0 -59.5 18.5t-18.5 48.5v23q0 31 18.5 49.5t59.5 18.5t59.5 -18.5t18.5 -49.5v-23q0 -30 -18.5 -48.5t-59.5 -18.5z" />
    <glyph glyph-name="cent" unicode="&#xa2;" horiz-adv-x="516" 
d="M318 -114h-93v106q-89 15 -137 82t-48 184t48 184.5t137 81.5v106h93v-105q61 -9 99 -40.5t57 -80.5l-91 -49q-8 29 -25.5 48.5t-46.5 26.5v-345q30 8 50 28t32 51l88 -52q-20 -50 -61 -81.5t-102 -39.5v-105zM161 204q0 -46 18 -76t54 -41v342q-36 -11 -54 -41t-18 -76
v-108z" />
    <glyph glyph-name="sterling" unicode="&#xa3;" horiz-adv-x="553" 
d="M515 0h-448v122q36 18 56 49.5t20 78.5q0 11 -1.5 21t-3.5 20h-100v102h64q-8 25 -14 51.5t-6 58.5q0 64 27.5 110.5t79.5 71.5t126 25q77 0 127.5 -29.5t86.5 -86.5l-93 -66q-24 36 -51.5 54t-66.5 18q-52 0 -79 -26.5t-27 -85.5q0 -26 5 -49t11 -46h187v-102h-155
q2 -9 3 -18t1 -18q0 -58 -26 -92t-63 -44v-10h340v-109z" />
    <glyph glyph-name="currency" unicode="&#xa4;" horiz-adv-x="592" 
d="M296 111q-32 0 -60 6.5t-51 18.5l-80 -102l-80 61l82 106q-20 29 -31 66.5t-11 81.5q0 45 11 82t31 66l-82 106l80 61l80 -102q23 12 51 18.5t60 6.5t60.5 -6.5t50.5 -18.5l80 102l80 -61l-82 -106q20 -29 31 -66t11 -82q0 -44 -11 -81.5t-31 -66.5l82 -106l-80 -61
l-80 102q-22 -12 -50.5 -18.5t-60.5 -6.5zM296 206q47 0 74 29t27 85v58q0 56 -27 85t-74 29t-74 -29t-27 -85v-58q0 -56 27 -85t74 -29z" />
    <glyph glyph-name="yen" unicode="&#xa5;" horiz-adv-x="606" 
d="M527 137h-161v-137h-129v137h-161v80h161v80h-161v81h110l-164 320h143l137 -290h9l136 290h138l-168 -320h110v-81h-161v-80h161v-80z" />
    <glyph glyph-name="brokenbar" unicode="&#xa6;" horiz-adv-x="361" 
d="M233 403h-105v357h105v-357zM233 -138h-105v357h105v-357z" />
    <glyph glyph-name="section" unicode="&#xa7;" horiz-adv-x="544" 
d="M460 10q0 -55 -24.5 -92.5t-70 -57t-106.5 -19.5q-50 0 -96.5 15t-85.5 51l63 77q23 -24 53 -37.5t67 -13.5q45 0 69 18.5t24 53.5q0 22 -9 36t-28 24.5t-49 18.5l-70 21q-54 16 -85.5 38.5t-44.5 51t-13 59.5q0 46 25 82t77 58v14q-34 22 -53.5 55t-19.5 80q0 55 25 92
t70.5 56t105.5 19q51 0 97.5 -15t85.5 -51l-63 -77q-24 25 -53 38t-69 13q-43 0 -67.5 -17.5t-24.5 -53.5q0 -20 9.5 -34.5t28.5 -24.5t49 -19l70 -20q54 -16 85.5 -39t45 -51t13.5 -60q0 -46 -25.5 -82.5t-77.5 -57.5v-13q34 -23 53 -56t19 -80zM385 262q0 22 -8 39
t-26.5 30.5t-50.5 22.5l-69 20q-8 2 -16 5t-15 6q-20 -20 -30.5 -43t-10.5 -51q0 -32 18 -55t67 -37l69 -20q8 -2 16 -5t15 -6q20 21 30.5 44t10.5 50z" />
    <glyph glyph-name="dieresis" unicode="&#xa8;" 
d="M186 606q-38 0 -53.5 15.5t-15.5 40.5v23q0 25 15.5 40t53.5 15t53.5 -15t15.5 -40v-23q0 -25 -15.5 -40.5t-53.5 -15.5zM384 606q-38 0 -53.5 15.5t-15.5 40.5v23q0 25 15.5 40t53.5 15t53.5 -15t15.5 -40v-23q0 -25 -15.5 -40.5t-53.5 -15.5z" />
    <glyph glyph-name="copyright" unicode="&#xa9;" horiz-adv-x="749" 
d="M374 -12q-96 0 -171 43t-117 123.5t-42 194.5t42 194.5t117 123.5t171 43q97 0 171.5 -43t117 -123.5t42.5 -194.5t-42.5 -194.5t-117 -123.5t-171.5 -43zM374 48q78 0 136 35t91 95t33 135v71q0 76 -33 136t-91 94.5t-136 34.5q-77 0 -135.5 -34.5t-91.5 -94.5t-33 -136
v-71q0 -75 33 -135t91.5 -95t135.5 -35zM381 140q-90 0 -138.5 55t-48.5 154q0 100 48.5 154.5t138.5 54.5q64 0 103 -28.5t58 -75.5l-85 -42q-11 27 -28 42.5t-48 15.5q-34 0 -53 -21t-19 -58v-85q0 -36 19 -57t53 -21q32 0 51.5 16.5t31.5 43.5l85 -43
q-19 -44 -58.5 -74.5t-109.5 -30.5z" />
    <glyph glyph-name="ordfeminine" unicode="&#xaa;" horiz-adv-x="415" 
d="M374 405v-68h-54q-25 0 -45 15.5t-20 54.5v15l26 -26h-32q-8 -30 -34 -47.5t-66 -17.5q-50 0 -78 27t-28 77q0 58 37.5 84t111.5 26h56v27q0 34 -14 50t-48 16q-31 0 -51 -13t-32 -34l-50 44q18 31 52.5 50.5t89.5 19.5q68 0 105.5 -32.5t37.5 -97.5v-170h36zM248 493
h-55q-31 0 -47 -11.5t-16 -32.5v-16q0 -20 13.5 -30t37.5 -10q28 0 47.5 14.5t19.5 41.5v44z" />
    <glyph glyph-name="guillemotleft" unicode="&#xab;" horiz-adv-x="520" 
d="M251 148l-37 -79l-178 153v108l178 153l37 -79l-115 -124v-8zM472 148l-37 -79l-178 153v108l178 153l37 -79l-115 -124v-8z" />
    <glyph glyph-name="logicalnot" unicode="&#xac;" 
d="M508 78h-105v178h-347v100h452v-278z" />
    <glyph glyph-name="uni00AD" unicode="&#xad;" horiz-adv-x="0" 
 />
    <glyph glyph-name="registered" unicode="&#xae;" horiz-adv-x="445" 
d="M222 298q-53 0 -97 25t-69.5 71.5t-25.5 109.5t25.5 109.5t69.5 71.5t97 25q54 0 98 -25t69.5 -71.5t25.5 -109.5t-25.5 -109.5t-69.5 -71.5t-98 -25zM222 341q42 0 74 18t50.5 50.5t18.5 75.5v38q0 44 -18.5 76t-50.5 50t-74 18q-40 0 -72.5 -18t-51 -50t-18.5 -76v-38
q0 -43 18.5 -75.5t51 -50.5t72.5 -18zM197 467v-68h-55v209h95q37 0 54.5 -18t17.5 -51q0 -25 -9 -40.5t-26 -23.5l42 -76h-60l-33 68h-26zM197 509h31q13 0 19 5t6 16v14q0 12 -6 17t-19 5h-31v-57z" />
    <glyph glyph-name="macron" unicode="&#xaf;" 
d="M143 628v92h284v-92h-284z" />
    <glyph glyph-name="degree" unicode="&#xb0;" horiz-adv-x="446" 
d="M223 352q-49 0 -89 23t-63 63.5t-23 92.5q0 53 23 93.5t63 63t89 22.5t89 -22.5t63 -63t23 -93.5q0 -52 -23 -92.5t-63 -63.5t-89 -23zM223 435q26 0 45 12t29.5 34t10.5 50q0 29 -10.5 51t-29.5 33.5t-45 11.5t-45 -11.5t-29.5 -33.5t-10.5 -50q0 -29 10.5 -51t29.5 -34
t45 -12z" />
    <glyph glyph-name="plusminus" unicode="&#xb1;" 
d="M340 184h-110v167h-168v100h168v167h110v-167h168v-100h-168v-167zM508 0h-446v98h446v-98z" />
    <glyph glyph-name="twosuperior" unicode="&#xb2;" horiz-adv-x="333" 
d="M304 399v-70h-270v77l108 90q34 28 48.5 46.5t14.5 42.5v5q0 21 -14 31t-34 10q-27 0 -40 -15t-19 -35l-74 28q13 39 46.5 67t94.5 28q66 0 99 -30.5t33 -81.5q0 -47 -28.5 -80t-74.5 -65l-67 -48h177z" />
    <glyph glyph-name="threesuperior" unicode="&#xb3;" horiz-adv-x="333" 
d="M114 553h34q27 0 40 10.5t13 25.5v8q0 16 -13 27t-35 11q-23 0 -41.5 -11t-33.5 -32l-54 50q23 30 54 46t78 16q64 0 100.5 -25.5t36.5 -73.5q0 -35 -21.5 -56t-51.5 -25v-7q35 -5 57 -26.5t22 -58.5q0 -53 -39.5 -81t-105.5 -28q-57 0 -89.5 21.5t-51.5 49.5l64 49
q12 -21 29.5 -36t47.5 -15q27 0 40 12t13 32v8q0 19 -14.5 29t-42.5 10h-36v70z" />
    <glyph glyph-name="acute" unicode="&#xb4;" 
d="M421 753l-123 -172l-75 36l91 188z" />
    <glyph glyph-name="mu" unicode="&#xb5;" horiz-adv-x="565" 
d="M191 -200h-124v722h125v-324q0 -52 19.5 -79.5t62.5 -27.5q25 0 46.5 10t35 28.5t13.5 45.5v347h125v-522h-125v87h-9q-11 -43 -37.5 -71t-72.5 -28q-28 0 -48 12t-29 33h-9l27 -118v-115z" />
    <glyph glyph-name="paragraph" unicode="&#xb6;" horiz-adv-x="636" 
d="M230 -149v423q-57 0 -101.5 28t-69.5 76t-25 108q0 61 25 109t69.5 75.5t101.5 27.5h349v-90h-63v-757h-95v757h-96v-757h-95z" />
    <glyph glyph-name="periodcentered" unicode="&#xb7;" horiz-adv-x="332" 
d="M166 224q-39 0 -58.5 19t-19.5 50v21q0 31 19.5 50.5t58.5 19.5q40 0 59 -19.5t19 -50.5v-21q0 -31 -19 -50t-59 -19z" />
    <glyph glyph-name="cedilla" unicode="&#xb8;" 
d="M298 -210q-45 0 -72 13.5t-40 29.5l41 50q9 -11 24.5 -19t37.5 -8q21 0 32 6.5t11 21.5t-11.5 24.5t-45.5 11.5l-36 2l21 104h59l-17 -89l7 -2q7 6 17.5 9.5t24.5 3.5q30 0 48.5 -17t18.5 -52q0 -32 -16 -51.5t-43 -28.5t-61 -9z" />
    <glyph glyph-name="onesuperior" unicode="&#xb9;" horiz-adv-x="334" 
d="M310 329h-260v69h92v231h-6l-59 -76l-58 41l80 104h130v-300h81v-69z" />
    <glyph glyph-name="ordmasculine" unicode="&#xba;" horiz-adv-x="403" 
d="M202 331q-77 0 -120.5 46.5t-43.5 140.5t43.5 140.5t120.5 46.5q76 0 120 -46.5t44 -140.5t-43.5 -140.5t-120.5 -46.5zM202 399q35 0 53.5 21.5t18.5 59.5v76q0 38 -18.5 59t-53.5 21q-36 0 -54 -21t-18 -59v-76q0 -38 18 -59.5t54 -21.5z" />
    <glyph glyph-name="guillemotright" unicode="&#xbb;" horiz-adv-x="520" 
d="M48 148l115 124v8l-115 124l36 79l179 -153v-108l-179 -153zM269 148l115 124v8l-115 124l36 79l179 -153v-108l-179 -153z" />
    <glyph glyph-name="onequarter" unicode="&#xbc;" horiz-adv-x="789" 
d="M310 329h-260v69h92v231h-6l-59 -76l-58 41l80 104h130v-300h81v-69zM205 0h-92l493 698h92zM722 0h-84v71h-164v72l143 226h105v-233h46v-65h-46v-71zM638 136v142h-7l-89 -142h96z" />
    <glyph glyph-name="onehalf" unicode="&#xbd;" horiz-adv-x="811" 
d="M310 329h-260v69h92v231h-6l-59 -76l-58 41l80 104h130v-300h81v-69zM210 0h-92l493 698h92zM782 70v-70h-270v77l108 90q34 28 48.5 47t14.5 42v5q0 21 -14 31t-34 10q-27 0 -40 -15t-19 -35l-74 28q13 39 46.5 67t94.5 28q66 0 99 -30.5t33 -81.5q0 -47 -28.5 -80
t-74.5 -65l-67 -48h177z" />
    <glyph glyph-name="threequarters" unicode="&#xbe;" horiz-adv-x="777" 
d="M114 553h34q27 0 40 10.5t13 25.5v8q0 16 -13 27t-35 11q-23 0 -41.5 -11t-33.5 -32l-54 50q23 30 54 46t78 16q64 0 100.5 -25.5t36.5 -73.5q0 -35 -21.5 -56t-51.5 -25v-7q35 -5 57 -26.5t22 -58.5q0 -53 -39.5 -81t-105.5 -28q-57 0 -89.5 21.5t-51.5 49.5l64 49
q12 -21 29.5 -36t47.5 -15q27 0 40 12t13 32v8q0 19 -14.5 29t-42.5 10h-36v70zM199 0h-92l493 698h92zM710 0h-84v71h-164v72l143 226h105v-233h46v-65h-46v-71zM626 136v142h-7l-89 -142h96z" />
    <glyph glyph-name="questiondown" unicode="&#xbf;" horiz-adv-x="463" 
d="M242 -188q-67 0 -115 24t-73.5 68.5t-25.5 105.5q0 60 23.5 102.5t62 67.5t82.5 33v85h118v-157q-76 -3 -115 -30.5t-39 -86.5v-16q0 -43 23.5 -66t62.5 -23q43 0 68.5 27t35.5 69l104 -42q-11 -42 -36.5 -78.5t-68.5 -59.5t-107 -23zM254 376q-40 0 -59 18.5t-19 48.5
v23q0 31 19 49.5t59 18.5q42 0 60.5 -18.5t18.5 -49.5v-23q0 -30 -18.5 -48.5t-60.5 -18.5z" />
    <glyph glyph-name="Agrave" unicode="&#xc0;" horiz-adv-x="639" 
d="M619 0h-131l-52 180h-236l-52 -180h-127l219 698h161zM405 287l-55 184l-28 111h-10l-27 -111l-54 -184h174zM306 744l-123 172l107 53l91 -188z" />
    <glyph glyph-name="Aacute" unicode="&#xc1;" horiz-adv-x="639" 
d="M619 0h-131l-52 180h-236l-52 -180h-127l219 698h161zM405 287l-55 184l-28 111h-10l-27 -111l-54 -184h174zM455 916l-123 -172l-75 37l91 188z" />
    <glyph glyph-name="Acircumflex" unicode="&#xc2;" horiz-adv-x="639" 
d="M619 0h-131l-52 180h-236l-52 -180h-127l219 698h161zM405 287l-55 184l-28 111h-10l-27 -111l-54 -184h174zM264 950h110l124 -156l-63 -49l-116 117l-116 -117l-63 49z" />
    <glyph glyph-name="Atilde" unicode="&#xc3;" horiz-adv-x="639" 
d="M619 0h-131l-52 180h-236l-52 -180h-127l219 698h161zM405 287l-55 184l-28 111h-10l-27 -111l-54 -184h174zM392 769q-20 0 -36.5 5.5t-39.5 16.5q-24 12 -40.5 18t-31.5 6q-16 0 -28 -6.5t-27 -19.5l-45 58q17 26 42.5 42.5t59.5 16.5q21 0 37.5 -6t38.5 -17
q24 -11 40.5 -17t31.5 -6q16 0 28 6.5t27 19.5l45 -58q-16 -26 -42 -42.5t-60 -16.5z" />
    <glyph glyph-name="Adieresis" unicode="&#xc4;" horiz-adv-x="639" 
d="M619 0h-131l-52 180h-236l-52 -180h-127l219 698h161zM405 287l-55 184l-28 111h-10l-27 -111l-54 -184h174zM220 771q-38 0 -53.5 15.5t-15.5 39.5v24q0 24 15.5 39.5t53.5 15.5t53.5 -15.5t15.5 -39.5v-24q0 -24 -15.5 -39.5t-53.5 -15.5zM418 771q-38 0 -53.5 15.5
t-15.5 39.5v24q0 24 15.5 39.5t53.5 15.5t53.5 -15.5t15.5 -39.5v-24q0 -24 -15.5 -39.5t-53.5 -15.5z" />
    <glyph glyph-name="Aring" unicode="&#xc5;" horiz-adv-x="639" 
d="M619 0h-131l-52 180h-236l-52 -180h-127l219 698h161zM405 287l-55 184l-28 111h-10l-27 -111l-54 -184h174zM319 727q-40 0 -70.5 17t-48 47.5t-17.5 70.5t17.5 70.5t48 47t70.5 16.5t70.5 -16.5t48 -47t17.5 -70.5t-17.5 -70.5t-48 -47.5t-70.5 -17zM319 793
q25 0 38.5 13t13.5 36v39q0 24 -13.5 36.5t-38.5 12.5t-38.5 -12.5t-13.5 -36.5v-39q0 -23 13.5 -36t38.5 -13z" />
    <glyph glyph-name="AE" unicode="&#xc6;" horiz-adv-x="904" 
d="M410 0v180h-199l-81 -180h-129l325 698h524v-113h-312v-176h274v-112h-274v-184h312v-113h-440zM410 585h-17l-135 -299h152v299z" />
    <glyph glyph-name="Ccedilla" unicode="&#xc7;" horiz-adv-x="611" 
d="M336 596q-70 0 -110 -46t-40 -131v-142q0 -84 40 -129.5t110 -45.5q59 0 92.5 31.5t49.5 79.5l104 -61q-35 -77 -92 -119.5t-145 -44.5l-10 -51l7 -2q7 6 18 9.5t24 3.5q31 0 49.5 -17t18.5 -52q0 -32 -16 -51.5t-43.5 -28.5t-61.5 -9q-45 0 -72 13.5t-40 29.5l41 50
q9 -11 24.5 -19t37.5 -8q21 0 32 6.5t11 21.5t-11.5 24.5t-45.5 11.5l-36 2l14 69q-72 10 -125.5 51.5t-82.5 116.5t-29 186q0 123 35.5 204t99.5 121t152 40q93 0 150.5 -39.5t92.5 -120.5l-109 -58q-14 48 -44.5 76t-89.5 28z" />
    <glyph glyph-name="Egrave" unicode="&#xc8;" horiz-adv-x="571" 
d="M517 0h-440v698h440v-113h-312v-176h274v-112h-274v-184h312v-113zM283 744l-123 172l107 53l91 -188z" />
    <glyph glyph-name="Eacute" unicode="&#xc9;" horiz-adv-x="571" 
d="M517 0h-440v698h440v-113h-312v-176h274v-112h-274v-184h312v-113zM432 916l-123 -172l-75 37l91 188z" />
    <glyph glyph-name="Ecircumflex" unicode="&#xca;" horiz-adv-x="571" 
d="M517 0h-440v698h440v-113h-312v-176h274v-112h-274v-184h312v-113zM241 950h110l124 -156l-63 -49l-116 117l-116 -117l-63 49z" />
    <glyph glyph-name="Edieresis" unicode="&#xcb;" horiz-adv-x="571" 
d="M517 0h-440v698h440v-113h-312v-176h274v-112h-274v-184h312v-113zM197 771q-38 0 -53.5 15.5t-15.5 39.5v24q0 24 15.5 39.5t53.5 15.5t53.5 -15.5t15.5 -39.5v-24q0 -24 -15.5 -39.5t-53.5 -15.5zM395 771q-38 0 -53.5 15.5t-15.5 39.5v24q0 24 15.5 39.5t53.5 15.5
t53.5 -15.5t15.5 -39.5v-24q0 -24 -15.5 -39.5t-53.5 -15.5z" />
    <glyph glyph-name="Igrave" unicode="&#xcc;" horiz-adv-x="405" 
d="M354 0h-304v103h88v492h-88v103h304v-103h-88v-492h88v-103zM189 744l-123 172l107 53l91 -188z" />
    <glyph glyph-name="Iacute" unicode="&#xcd;" horiz-adv-x="405" 
d="M354 0h-304v103h88v492h-88v103h304v-103h-88v-492h88v-103zM338 916l-123 -172l-75 37l91 188z" />
    <glyph glyph-name="Icircumflex" unicode="&#xce;" horiz-adv-x="405" 
d="M354 0h-304v103h88v492h-88v103h304v-103h-88v-492h88v-103zM147 950h110l124 -156l-63 -49l-116 117l-116 -117l-63 49z" />
    <glyph glyph-name="Idieresis" unicode="&#xcf;" horiz-adv-x="405" 
d="M354 0h-304v103h88v492h-88v103h304v-103h-88v-492h88v-103zM103 771q-38 0 -53.5 15.5t-15.5 39.5v24q0 24 15.5 39.5t53.5 15.5t53.5 -15.5t15.5 -39.5v-24q0 -24 -15.5 -39.5t-53.5 -15.5zM301 771q-38 0 -53.5 15.5t-15.5 39.5v24q0 24 15.5 39.5t53.5 15.5
t53.5 -15.5t15.5 -39.5v-24q0 -24 -15.5 -39.5t-53.5 -15.5z" />
    <glyph glyph-name="Eth" unicode="&#xd0;" horiz-adv-x="662" 
d="M83 0v310h-71v97h71v291h246q88 0 151.5 -37t98 -114.5t34.5 -197.5t-34.5 -197.5t-98 -114.5t-151.5 -37h-246zM211 113h118q46 0 79 18.5t51 56t18 92.5v138q0 56 -18 93t-51 55.5t-79 18.5h-118v-178h118v-97h-118v-197z" />
    <glyph glyph-name="Ntilde" unicode="&#xd1;" horiz-adv-x="684" 
d="M465 0l-201 378l-61 132h-9l4 -136v-374h-121v698h142l202 -378l60 -132h9l-4 136v374h121v-698h-142zM414 769q-20 0 -36.5 5.5t-39.5 16.5q-24 12 -40.5 18t-31.5 6q-16 0 -28 -6.5t-27 -19.5l-45 58q17 26 42.5 42.5t59.5 16.5q21 0 37.5 -6t38.5 -17q24 -11 40.5 -17
t31.5 -6q16 0 28 6.5t27 19.5l45 -58q-16 -26 -42 -42.5t-60 -16.5z" />
    <glyph glyph-name="Ograve" unicode="&#xd2;" horiz-adv-x="677" 
d="M338 -12q-87 0 -152 39t-101 119t-36 203q0 124 36 203.5t101 118.5t152 39q88 0 153 -39t100.5 -118.5t35.5 -203.5q0 -123 -35.5 -203t-100.5 -119t-153 -39zM338 102q48 0 82 20.5t52.5 60.5t18.5 96v140q0 57 -18.5 96.5t-52.5 60t-82 20.5q-47 0 -81 -20.5
t-52.5 -60t-18.5 -96.5v-140q0 -56 18.5 -96t52.5 -60.5t81 -20.5zM325 744l-123 172l107 53l91 -188z" />
    <glyph glyph-name="Oacute" unicode="&#xd3;" horiz-adv-x="677" 
d="M338 -12q-87 0 -152 39t-101 119t-36 203q0 124 36 203.5t101 118.5t152 39q88 0 153 -39t100.5 -118.5t35.5 -203.5q0 -123 -35.5 -203t-100.5 -119t-153 -39zM338 102q48 0 82 20.5t52.5 60.5t18.5 96v140q0 57 -18.5 96.5t-52.5 60t-82 20.5q-47 0 -81 -20.5
t-52.5 -60t-18.5 -96.5v-140q0 -56 18.5 -96t52.5 -60.5t81 -20.5zM474 916l-123 -172l-75 37l91 188z" />
    <glyph glyph-name="Ocircumflex" unicode="&#xd4;" horiz-adv-x="677" 
d="M338 -12q-87 0 -152 39t-101 119t-36 203q0 124 36 203.5t101 118.5t152 39q88 0 153 -39t100.5 -118.5t35.5 -203.5q0 -123 -35.5 -203t-100.5 -119t-153 -39zM338 102q48 0 82 20.5t52.5 60.5t18.5 96v140q0 57 -18.5 96.5t-52.5 60t-82 20.5q-47 0 -81 -20.5
t-52.5 -60t-18.5 -96.5v-140q0 -56 18.5 -96t52.5 -60.5t81 -20.5zM283 950h110l124 -156l-63 -49l-116 117l-116 -117l-63 49z" />
    <glyph glyph-name="Otilde" unicode="&#xd5;" horiz-adv-x="677" 
d="M338 -12q-87 0 -152 39t-101 119t-36 203q0 124 36 203.5t101 118.5t152 39q88 0 153 -39t100.5 -118.5t35.5 -203.5q0 -123 -35.5 -203t-100.5 -119t-153 -39zM338 102q48 0 82 20.5t52.5 60.5t18.5 96v140q0 57 -18.5 96.5t-52.5 60t-82 20.5q-47 0 -81 -20.5
t-52.5 -60t-18.5 -96.5v-140q0 -56 18.5 -96t52.5 -60.5t81 -20.5zM411 769q-20 0 -36.5 5.5t-39.5 16.5q-24 12 -40.5 18t-31.5 6q-16 0 -28 -6.5t-27 -19.5l-45 58q17 26 42.5 42.5t59.5 16.5q21 0 37.5 -6t38.5 -17q24 -11 40.5 -17t31.5 -6q16 0 28 6.5t27 19.5l45 -58
q-16 -26 -42 -42.5t-60 -16.5z" />
    <glyph glyph-name="Odieresis" unicode="&#xd6;" horiz-adv-x="677" 
d="M338 -12q-87 0 -152 39t-101 119t-36 203q0 124 36 203.5t101 118.5t152 39q88 0 153 -39t100.5 -118.5t35.5 -203.5q0 -123 -35.5 -203t-100.5 -119t-153 -39zM338 102q48 0 82 20.5t52.5 60.5t18.5 96v140q0 57 -18.5 96.5t-52.5 60t-82 20.5q-47 0 -81 -20.5
t-52.5 -60t-18.5 -96.5v-140q0 -56 18.5 -96t52.5 -60.5t81 -20.5zM239 771q-38 0 -53.5 15.5t-15.5 39.5v24q0 24 15.5 39.5t53.5 15.5t53.5 -15.5t15.5 -39.5v-24q0 -24 -15.5 -39.5t-53.5 -15.5zM437 771q-38 0 -53.5 15.5t-15.5 39.5v24q0 24 15.5 39.5t53.5 15.5
t53.5 -15.5t15.5 -39.5v-24q0 -24 -15.5 -39.5t-53.5 -15.5z" />
    <glyph glyph-name="multiply" unicode="&#xd7;" 
d="M427 90l-141 144l-141 -144l-70 69l141 145l-141 144l70 70l141 -144l141 144l70 -70l-141 -144l141 -145z" />
    <glyph glyph-name="Oslash" unicode="&#xd8;" horiz-adv-x="677" 
d="M338 -12q-43 0 -80.5 9.5t-69.5 28.5l-50 -78l-79 51l58 91q-33 44 -50.5 109t-17.5 150q0 124 36 203.5t101 118.5t152 39q43 0 81 -9.5t69 -28.5l50 78l80 -51l-59 -90q33 -45 50.5 -109.5t17.5 -150.5q0 -123 -35.5 -203t-100.5 -119t-153 -39zM338 604
q-49 0 -84.5 -21.5t-54.5 -62t-19 -98.5v-127q-1 -25 1 -53.5t5 -49.5h9l140 229l98 155q-19 14 -42.5 21t-52.5 7zM338 94q50 0 85 21.5t54 62t19 98.5v130q1 26 -0.5 52.5t-5.5 47.5h-8l-141 -229l-97 -154q19 -14 42.5 -21.5t51.5 -7.5z" />
    <glyph glyph-name="Ugrave" unicode="&#xd9;" horiz-adv-x="657" 
d="M73 698h127v-441q0 -52 12 -86.5t40.5 -51.5t75.5 -17q48 0 76 17t40.5 51.5t12.5 86.5v441h127v-423q0 -100 -25 -163.5t-81 -93.5t-150 -30t-150 30t-80.5 93.5t-24.5 163.5v423zM315 744l-123 172l107 53l91 -188z" />
    <glyph glyph-name="Uacute" unicode="&#xda;" horiz-adv-x="657" 
d="M73 698h127v-441q0 -52 12 -86.5t40.5 -51.5t75.5 -17q48 0 76 17t40.5 51.5t12.5 86.5v441h127v-423q0 -100 -25 -163.5t-81 -93.5t-150 -30t-150 30t-80.5 93.5t-24.5 163.5v423zM464 916l-123 -172l-75 37l91 188z" />
    <glyph glyph-name="Ucircumflex" unicode="&#xdb;" horiz-adv-x="657" 
d="M73 698h127v-441q0 -52 12 -86.5t40.5 -51.5t75.5 -17q48 0 76 17t40.5 51.5t12.5 86.5v441h127v-423q0 -100 -25 -163.5t-81 -93.5t-150 -30t-150 30t-80.5 93.5t-24.5 163.5v423zM273 950h110l124 -156l-63 -49l-116 117l-116 -117l-63 49z" />
    <glyph glyph-name="Udieresis" unicode="&#xdc;" horiz-adv-x="657" 
d="M73 698h127v-441q0 -52 12 -86.5t40.5 -51.5t75.5 -17q48 0 76 17t40.5 51.5t12.5 86.5v441h127v-423q0 -100 -25 -163.5t-81 -93.5t-150 -30t-150 30t-80.5 93.5t-24.5 163.5v423zM229 771q-38 0 -53.5 15.5t-15.5 39.5v24q0 24 15.5 39.5t53.5 15.5t53.5 -15.5
t15.5 -39.5v-24q0 -24 -15.5 -39.5t-53.5 -15.5zM427 771q-38 0 -53.5 15.5t-15.5 39.5v24q0 24 15.5 39.5t53.5 15.5t53.5 -15.5t15.5 -39.5v-24q0 -24 -15.5 -39.5t-53.5 -15.5z" />
    <glyph glyph-name="Yacute" unicode="&#xdd;" horiz-adv-x="599" 
d="M364 0h-129v270l-227 428h143l148 -297h8l144 297h140l-227 -427v-271zM436 916l-123 -172l-75 37l91 188z" />
    <glyph glyph-name="Thorn" unicode="&#xde;" horiz-adv-x="611" 
d="M205 0h-128v698h128v-128h174q63 0 106.5 -26.5t66.5 -74.5t23 -114q0 -65 -23 -113.5t-66.5 -75t-106.5 -26.5h-174v-140zM205 458v-206h161q24 0 41 8.5t26 25.5t9 42v54q0 26 -9 42.5t-26 25t-41 8.5h-161z" />
    <glyph glyph-name="germandbls" unicode="&#xdf;" horiz-adv-x="645" 
d="M622 165q0 -83 -49 -130t-132 -47q-60 0 -103.5 19.5t-71.5 58.5l72 71q22 -28 47.5 -41t55.5 -13q31 0 48.5 17t17.5 49q0 27 -15.5 43t-49.5 27l-30 10q-36 13 -61.5 31t-39 46.5t-13.5 68.5q0 63 37 102t106 48v8q0 66 -26.5 95t-84.5 29q-57 0 -84 -29t-27 -95v-533
h-124v423h-73v99h73v12q0 69 28 118t79.5 74.5t123.5 25.5t123.5 -25.5t79 -74t27.5 -118.5v-91h-57q-30 0 -49 -6t-28 -18.5t-9 -33.5q0 -28 15.5 -40.5t47.5 -24.5l29 -10q59 -20 88 -53.5t29 -91.5z" />
    <glyph glyph-name="agrave" unicode="&#xe0;" horiz-adv-x="532" 
d="M504 0h-72q-27 0 -47.5 11.5t-32.5 35.5t-12 61v13l28 -32h-36q-11 -48 -49 -74.5t-93 -26.5q-76 0 -115.5 41.5t-39.5 111.5q0 54 24.5 89.5t72 53.5t114.5 18h84v42q0 44 -21 67.5t-69 23.5q-41 0 -67.5 -19t-44.5 -48l-74 66q29 45 75.5 72.5t120.5 27.5
q101 0 153 -47.5t52 -137.5v-250h49v-99zM330 226h-77q-47 0 -69.5 -16.5t-22.5 -48.5v-19q0 -32 19.5 -47.5t53.5 -15.5q27 0 48.5 9t34.5 27t13 42v69zM238 581l-123 172l107 52l91 -188z" />
    <glyph glyph-name="aacute" unicode="&#xe1;" horiz-adv-x="532" 
d="M504 0h-72q-27 0 -47.5 11.5t-32.5 35.5t-12 61v13l28 -32h-36q-11 -48 -49 -74.5t-93 -26.5q-76 0 -115.5 41.5t-39.5 111.5q0 54 24.5 89.5t72 53.5t114.5 18h84v42q0 44 -21 67.5t-69 23.5q-41 0 -67.5 -19t-44.5 -48l-74 66q29 45 75.5 72.5t120.5 27.5
q101 0 153 -47.5t52 -137.5v-250h49v-99zM330 226h-77q-47 0 -69.5 -16.5t-22.5 -48.5v-19q0 -32 19.5 -47.5t53.5 -15.5q27 0 48.5 9t34.5 27t13 42v69zM387 753l-123 -172l-75 36l91 188z" />
    <glyph glyph-name="acircumflex" unicode="&#xe2;" horiz-adv-x="532" 
d="M504 0h-72q-27 0 -47.5 11.5t-32.5 35.5t-12 61v13l28 -32h-36q-11 -48 -49 -74.5t-93 -26.5q-76 0 -115.5 41.5t-39.5 111.5q0 54 24.5 89.5t72 53.5t114.5 18h84v42q0 44 -21 67.5t-69 23.5q-41 0 -67.5 -19t-44.5 -48l-74 66q29 45 75.5 72.5t120.5 27.5
q101 0 153 -47.5t52 -137.5v-250h49v-99zM330 226h-77q-47 0 -69.5 -16.5t-22.5 -48.5v-19q0 -32 19.5 -47.5t53.5 -15.5q27 0 48.5 9t34.5 27t13 42v69zM196 787h110l124 -156l-63 -49l-116 117l-116 -117l-63 49z" />
    <glyph glyph-name="atilde" unicode="&#xe3;" horiz-adv-x="532" 
d="M504 0h-72q-27 0 -47.5 11.5t-32.5 35.5t-12 61v13l28 -32h-36q-11 -48 -49 -74.5t-93 -26.5q-76 0 -115.5 41.5t-39.5 111.5q0 54 24.5 89.5t72 53.5t114.5 18h84v42q0 44 -21 67.5t-69 23.5q-41 0 -67.5 -19t-44.5 -48l-74 66q29 45 75.5 72.5t120.5 27.5
q101 0 153 -47.5t52 -137.5v-250h49v-99zM330 226h-77q-47 0 -69.5 -16.5t-22.5 -48.5v-19q0 -32 19.5 -47.5t53.5 -15.5q27 0 48.5 9t34.5 27t13 42v69zM324 605q-20 0 -36.5 6t-39.5 17q-24 12 -40.5 17.5t-31.5 5.5q-16 0 -28 -6.5t-27 -19.5l-45 58q17 26 42.5 42.5
t59.5 16.5q21 0 37.5 -5.5t38.5 -16.5q24 -12 40.5 -18t31.5 -6q16 0 28 6.5t27 19.5l45 -58q-16 -25 -42 -42t-60 -17z" />
    <glyph glyph-name="adieresis" unicode="&#xe4;" horiz-adv-x="532" 
d="M504 0h-72q-27 0 -47.5 11.5t-32.5 35.5t-12 61v13l28 -32h-36q-11 -48 -49 -74.5t-93 -26.5q-76 0 -115.5 41.5t-39.5 111.5q0 54 24.5 89.5t72 53.5t114.5 18h84v42q0 44 -21 67.5t-69 23.5q-41 0 -67.5 -19t-44.5 -48l-74 66q29 45 75.5 72.5t120.5 27.5
q101 0 153 -47.5t52 -137.5v-250h49v-99zM330 226h-77q-47 0 -69.5 -16.5t-22.5 -48.5v-19q0 -32 19.5 -47.5t53.5 -15.5q27 0 48.5 9t34.5 27t13 42v69zM152 606q-38 0 -53.5 15.5t-15.5 40.5v23q0 25 15.5 40t53.5 15t53.5 -15t15.5 -40v-23q0 -25 -15.5 -40.5
t-53.5 -15.5zM350 606q-38 0 -53.5 15.5t-15.5 40.5v23q0 25 15.5 40t53.5 15t53.5 -15t15.5 -40v-23q0 -25 -15.5 -40.5t-53.5 -15.5z" />
    <glyph glyph-name="aring" unicode="&#xe5;" horiz-adv-x="532" 
d="M504 0h-72q-27 0 -47.5 11.5t-32.5 35.5t-12 61v13l28 -32h-36q-11 -48 -49 -74.5t-93 -26.5q-76 0 -115.5 41.5t-39.5 111.5q0 54 24.5 89.5t72 53.5t114.5 18h84v42q0 44 -21 67.5t-69 23.5q-41 0 -67.5 -19t-44.5 -48l-74 66q29 45 75.5 72.5t120.5 27.5
q101 0 153 -47.5t52 -137.5v-250h49v-99zM330 226h-77q-47 0 -69.5 -16.5t-22.5 -48.5v-19q0 -32 19.5 -47.5t53.5 -15.5q27 0 48.5 9t34.5 27t13 42v69zM251 563q-40 0 -70.5 17t-48 47.5t-17.5 70.5q0 41 17.5 71t48 47t70.5 17t70.5 -17t48 -47t17.5 -71
q0 -40 -17.5 -70.5t-48 -47.5t-70.5 -17zM251 629q25 0 38.5 13t13.5 36v40q0 24 -13.5 36.5t-38.5 12.5t-38.5 -12.5t-13.5 -36.5v-40q0 -23 13.5 -36t38.5 -13z" />
    <glyph glyph-name="ae" unicode="&#xe6;" horiz-adv-x="823" 
d="M333 229h-80q-45 0 -68.5 -17.5t-23.5 -49.5v-18q0 -33 19 -49t55 -16q26 0 48.5 9t36 27t13.5 42v72zM459 306h198v19q0 36 -11 61.5t-32.5 39.5t-52.5 14q-32 0 -55 -14t-35 -40t-12 -62v-18zM578 89q45 0 75.5 19.5t52.5 51.5l67 -74q-31 -44 -81.5 -71t-119.5 -27
q-45 0 -84 14t-65.5 38.5t-36.5 54.5h-10q-8 -29 -31.5 -53t-61 -39t-90.5 -15q-76 0 -117 42t-41 112q0 55 25.5 91t72.5 54.5t113 18.5h87v37q0 45 -22.5 68.5t-70.5 23.5q-41 0 -67.5 -19t-44.5 -48l-74 66q28 45 74.5 72.5t117.5 27.5q36 0 65.5 -11t50.5 -32.5
t31 -52.5h9q10 29 33 51t57 33.5t74 11.5q74 0 123 -32.5t73.5 -93t24.5 -143.5v-36h-329v-22q0 -54 32 -86t88 -32z" />
    <glyph glyph-name="ccedilla" unicode="&#xe7;" horiz-adv-x="488" 
d="M265 534q78 0 127 -35t70 -96l-102 -46q-8 36 -31 56t-64 20q-49 0 -73.5 -30t-24.5 -85v-114q0 -55 24.5 -85t73.5 -30q44 0 67.5 22t36.5 60l96 -46q-23 -66 -70 -100t-117 -37l-9 -51l6 -2q7 6 18 9.5t24 3.5q31 0 49.5 -17t18.5 -52q0 -32 -16 -51.5t-43 -28.5
t-61 -9q-46 0 -73 13.5t-40 29.5l41 50q10 -11 25 -19t38 -8q20 0 31 6.5t11 21.5t-11.5 24.5t-45.5 11.5l-35 2l13 69q-88 15 -135 83.5t-47 186.5q0 133 59 203t169 70z" />
    <glyph glyph-name="egrave" unicode="&#xe8;" horiz-adv-x="531" 
d="M274 -12q-72 0 -125.5 31.5t-82.5 92.5t-29 149t27 149t79 92.5t124 31.5q76 0 126 -32.5t75.5 -92.5t25.5 -143v-36h-328v-23q0 -54 31 -86.5t88 -32.5q45 0 75 19.5t52 52.5l68 -74q-31 -44 -83 -71t-123 -27zM268 440q-31 0 -54 -14t-35.5 -40t-12.5 -62v-17h198v18
q0 36 -10.5 61.5t-32 39.5t-53.5 14zM256 581l-123 172l107 52l91 -188z" />
    <glyph glyph-name="eacute" unicode="&#xe9;" horiz-adv-x="531" 
d="M274 -12q-72 0 -125.5 31.5t-82.5 92.5t-29 149t27 149t79 92.5t124 31.5q76 0 126 -32.5t75.5 -92.5t25.5 -143v-36h-328v-23q0 -54 31 -86.5t88 -32.5q45 0 75 19.5t52 52.5l68 -74q-31 -44 -83 -71t-123 -27zM268 440q-31 0 -54 -14t-35.5 -40t-12.5 -62v-17h198v18
q0 36 -10.5 61.5t-32 39.5t-53.5 14zM405 753l-123 -172l-75 36l91 188z" />
    <glyph glyph-name="ecircumflex" unicode="&#xea;" horiz-adv-x="531" 
d="M274 -12q-72 0 -125.5 31.5t-82.5 92.5t-29 149t27 149t79 92.5t124 31.5q76 0 126 -32.5t75.5 -92.5t25.5 -143v-36h-328v-23q0 -54 31 -86.5t88 -32.5q45 0 75 19.5t52 52.5l68 -74q-31 -44 -83 -71t-123 -27zM268 440q-31 0 -54 -14t-35.5 -40t-12.5 -62v-17h198v18
q0 36 -10.5 61.5t-32 39.5t-53.5 14zM214 787h110l124 -156l-63 -49l-116 117l-116 -117l-63 49z" />
    <glyph glyph-name="edieresis" unicode="&#xeb;" horiz-adv-x="531" 
d="M274 -12q-72 0 -125.5 31.5t-82.5 92.5t-29 149t27 149t79 92.5t124 31.5q76 0 126 -32.5t75.5 -92.5t25.5 -143v-36h-328v-23q0 -54 31 -86.5t88 -32.5q45 0 75 19.5t52 52.5l68 -74q-31 -44 -83 -71t-123 -27zM268 440q-31 0 -54 -14t-35.5 -40t-12.5 -62v-17h198v18
q0 36 -10.5 61.5t-32 39.5t-53.5 14zM170 606q-38 0 -53.5 15.5t-15.5 40.5v23q0 25 15.5 40t53.5 15t53.5 -15t15.5 -40v-23q0 -25 -15.5 -40.5t-53.5 -15.5zM368 606q-38 0 -53.5 15.5t-15.5 40.5v23q0 25 15.5 40t53.5 15t53.5 -15t15.5 -40v-23q0 -25 -15.5 -40.5
t-53.5 -15.5z" />
    <glyph glyph-name="igrave" unicode="&#xec;" horiz-adv-x="264" 
d="M194 0h-124v522h124v-522zM119 581l-123 172l107 52l91 -188z" />
    <glyph glyph-name="iacute" unicode="&#xed;" horiz-adv-x="264" 
d="M194 0h-124v522h124v-522zM268 753l-123 -172l-75 36l91 188z" />
    <glyph glyph-name="icircumflex" unicode="&#xee;" horiz-adv-x="264" 
d="M194 0h-124v522h124v-522zM77 787h110l116 -156l-62 -49l-109 117l-109 -117l-62 49z" />
    <glyph glyph-name="idieresis" unicode="&#xef;" horiz-adv-x="264" 
d="M194 0h-124v522h124v-522zM36 606q-38 0 -53.5 15.5t-15.5 40.5v23q0 25 15.5 40t53.5 15t53 -15t15 -40v-23q0 -25 -15 -40.5t-53 -15.5zM228 606q-37 0 -52.5 15.5t-15.5 40.5v23q0 25 15.5 40t52.5 15q38 0 53.5 -15t15.5 -40v-23q0 -25 -15.5 -40.5t-53.5 -15.5z" />
    <glyph glyph-name="eth" unicode="&#xf0;" horiz-adv-x="560" 
d="M401 753l39 -53l-71 -46q44 -46 76.5 -104t50.5 -128.5t18 -155.5q0 -94 -28.5 -156t-81.5 -92t-127 -30q-75 0 -128.5 31t-81.5 90t-28 142q0 79 23.5 135t67.5 85.5t103 29.5q52 0 86 -25t52 -70l10 1q-12 51 -39.5 98.5t-67.5 89.5l-87 -56l-40 53l79 50
q-32 28 -68.5 52.5t-75.5 45.5h182q14 -9 27.5 -19t27.5 -21zM276 86q34 0 58.5 13.5t37 41.5t12.5 68v70q0 41 -12.5 68.5t-37 41t-58.5 13.5q-33 0 -57.5 -13.5t-37 -41t-12.5 -68.5v-70q0 -40 12.5 -68t37 -41.5t57.5 -13.5z" />
    <glyph glyph-name="ntilde" unicode="&#xf1;" horiz-adv-x="560" 
d="M194 0h-124v522h124v-87h10q14 42 46.5 70.5t88.5 28.5q76 0 116.5 -50.5t40.5 -143.5v-340h-125v324q0 53 -19 80t-62 27q-25 0 -47 -9.5t-35.5 -28t-13.5 -45.5v-348zM355 605q-20 0 -36.5 6t-39.5 17q-24 12 -40.5 17.5t-31.5 5.5q-16 0 -28 -6.5t-27 -19.5l-45 58
q17 26 42.5 42.5t59.5 16.5q21 0 37.5 -5.5t38.5 -16.5q24 -12 40.5 -18t31.5 -6q16 0 28 6.5t27 19.5l45 -58q-16 -25 -42 -42t-60 -17z" />
    <glyph glyph-name="ograve" unicode="&#xf2;" horiz-adv-x="535" 
d="M267 -12q-71 0 -123 31.5t-79.5 92.5t-27.5 149q0 89 27.5 150t79.5 92t123 31q72 0 124 -31t79.5 -92t27.5 -150q0 -88 -27.5 -149t-79.5 -92.5t-124 -31.5zM267 89q48 0 74.5 29t26.5 85v116q0 57 -26.5 85.5t-74.5 28.5q-47 0 -73.5 -28.5t-26.5 -85.5v-116
q0 -56 26.5 -85t73.5 -29zM254 581l-123 172l107 52l91 -188z" />
    <glyph glyph-name="oacute" unicode="&#xf3;" horiz-adv-x="535" 
d="M267 -12q-71 0 -123 31.5t-79.5 92.5t-27.5 149q0 89 27.5 150t79.5 92t123 31q72 0 124 -31t79.5 -92t27.5 -150q0 -88 -27.5 -149t-79.5 -92.5t-124 -31.5zM267 89q48 0 74.5 29t26.5 85v116q0 57 -26.5 85.5t-74.5 28.5q-47 0 -73.5 -28.5t-26.5 -85.5v-116
q0 -56 26.5 -85t73.5 -29zM403 753l-123 -172l-75 36l91 188z" />
    <glyph glyph-name="ocircumflex" unicode="&#xf4;" horiz-adv-x="535" 
d="M267 -12q-71 0 -123 31.5t-79.5 92.5t-27.5 149q0 89 27.5 150t79.5 92t123 31q72 0 124 -31t79.5 -92t27.5 -150q0 -88 -27.5 -149t-79.5 -92.5t-124 -31.5zM267 89q48 0 74.5 29t26.5 85v116q0 57 -26.5 85.5t-74.5 28.5q-47 0 -73.5 -28.5t-26.5 -85.5v-116
q0 -56 26.5 -85t73.5 -29zM212 787h110l124 -156l-63 -49l-116 117l-116 -117l-63 49z" />
    <glyph glyph-name="otilde" unicode="&#xf5;" horiz-adv-x="535" 
d="M267 -12q-71 0 -123 31.5t-79.5 92.5t-27.5 149q0 89 27.5 150t79.5 92t123 31q72 0 124 -31t79.5 -92t27.5 -150q0 -88 -27.5 -149t-79.5 -92.5t-124 -31.5zM267 89q48 0 74.5 29t26.5 85v116q0 57 -26.5 85.5t-74.5 28.5q-47 0 -73.5 -28.5t-26.5 -85.5v-116
q0 -56 26.5 -85t73.5 -29zM340 605q-20 0 -36.5 6t-39.5 17q-24 12 -40.5 17.5t-31.5 5.5q-16 0 -28 -6.5t-27 -19.5l-45 58q17 26 42.5 42.5t59.5 16.5q21 0 37.5 -5.5t38.5 -16.5q24 -12 40.5 -18t31.5 -6q16 0 28 6.5t27 19.5l45 -58q-16 -25 -42 -42t-60 -17z" />
    <glyph glyph-name="odieresis" unicode="&#xf6;" horiz-adv-x="535" 
d="M267 -12q-71 0 -123 31.5t-79.5 92.5t-27.5 149q0 89 27.5 150t79.5 92t123 31q72 0 124 -31t79.5 -92t27.5 -150q0 -88 -27.5 -149t-79.5 -92.5t-124 -31.5zM267 89q48 0 74.5 29t26.5 85v116q0 57 -26.5 85.5t-74.5 28.5q-47 0 -73.5 -28.5t-26.5 -85.5v-116
q0 -56 26.5 -85t73.5 -29zM168 606q-38 0 -53.5 15.5t-15.5 40.5v23q0 25 15.5 40t53.5 15t53.5 -15t15.5 -40v-23q0 -25 -15.5 -40.5t-53.5 -15.5zM366 606q-38 0 -53.5 15.5t-15.5 40.5v23q0 25 15.5 40t53.5 15t53.5 -15t15.5 -40v-23q0 -25 -15.5 -40.5t-53.5 -15.5z
" />
    <glyph glyph-name="divide" unicode="&#xf7;" 
d="M508 256h-446v100h446v-100zM285 43q-41 0 -58.5 17t-17.5 43v23q0 26 17.5 43t58.5 17q42 0 59 -17t17 -43v-23q0 -26 -17 -43t-59 -17zM285 425q-41 0 -58.5 17.5t-17.5 42.5v24q0 26 17.5 43t58.5 17q42 0 59 -17t17 -43v-24q0 -25 -17 -42.5t-59 -17.5z" />
    <glyph glyph-name="oslash" unicode="&#xf8;" horiz-adv-x="541" 
d="M84 -46l-66 51l62 80q-20 33 -30.5 77t-10.5 99q0 89 27.5 150t79.5 92t123 31q39 0 71.5 -9t58.5 -27l56 70l66 -51l-62 -80q20 -33 30.5 -77.5t10.5 -98.5q0 -88 -27.5 -149t-79.5 -92.5t-124 -31.5q-37 0 -70 9t-59 27zM269 83q50 0 77.5 31t27.5 89v56q1 14 1.5 27
t1 25.5t0.5 26.5h-7l-91 -123l-81 -107q13 -12 31 -18.5t40 -6.5zM269 439q-49 0 -76.5 -30.5t-27.5 -88.5v-56q0 -14 -1 -27t-1 -25.5t-1 -26.5h7l91 123l81 106q-13 12 -31 18.5t-41 6.5z" />
    <glyph glyph-name="ugrave" unicode="&#xf9;" horiz-adv-x="560" 
d="M366 0v87h-10q-13 -41 -45 -70t-91 -29q-75 0 -115.5 50.5t-40.5 143.5v340h124v-323q0 -53 20 -80.5t62 -27.5q26 0 47.5 9.5t35 28.5t13.5 46v347h124v-522h-124zM264 581l-123 172l107 52l91 -188z" />
    <glyph glyph-name="uacute" unicode="&#xfa;" horiz-adv-x="560" 
d="M366 0v87h-10q-13 -41 -45 -70t-91 -29q-75 0 -115.5 50.5t-40.5 143.5v340h124v-323q0 -53 20 -80.5t62 -27.5q26 0 47.5 9.5t35 28.5t13.5 46v347h124v-522h-124zM413 753l-123 -172l-75 36l91 188z" />
    <glyph glyph-name="ucircumflex" unicode="&#xfb;" horiz-adv-x="560" 
d="M366 0v87h-10q-13 -41 -45 -70t-91 -29q-75 0 -115.5 50.5t-40.5 143.5v340h124v-323q0 -53 20 -80.5t62 -27.5q26 0 47.5 9.5t35 28.5t13.5 46v347h124v-522h-124zM222 787h110l124 -156l-63 -49l-116 117l-116 -117l-63 49z" />
    <glyph glyph-name="udieresis" unicode="&#xfc;" horiz-adv-x="560" 
d="M366 0v87h-10q-13 -41 -45 -70t-91 -29q-75 0 -115.5 50.5t-40.5 143.5v340h124v-323q0 -53 20 -80.5t62 -27.5q26 0 47.5 9.5t35 28.5t13.5 46v347h124v-522h-124zM178 606q-38 0 -53.5 15.5t-15.5 40.5v23q0 25 15.5 40t53.5 15t53.5 -15t15.5 -40v-23
q0 -25 -15.5 -40.5t-53.5 -15.5zM376 606q-38 0 -53.5 15.5t-15.5 40.5v23q0 25 15.5 40t53.5 15t53.5 -15t15.5 -40v-23q0 -25 -15.5 -40.5t-53.5 -15.5z" />
    <glyph glyph-name="yacute" unicode="&#xfd;" horiz-adv-x="503" 
d="M290 244l84 278h120l-205 -623q-11 -36 -29 -58t-45 -31.5t-67 -9.5h-80v99h98l23 74l-181 549h126l84 -279l31 -134h9zM389 753l-123 -172l-75 36l91 188z" />
    <glyph glyph-name="thorn" unicode="&#xfe;" horiz-adv-x="571" 
d="M70 -200v940h124v-304h10q12 44 48.5 71t84.5 27q64 0 106 -31.5t64 -92.5t22 -149t-21.5 -149t-64 -92.5t-106.5 -31.5q-48 0 -84.5 27t-48.5 71h-10v-286h-124zM293 91q48 0 76.5 31.5t28.5 85.5v107q0 54 -28.5 85t-76.5 31q-28 0 -50.5 -9.5t-35.5 -28t-13 -43.5
v-177q0 -26 13 -44.5t35.5 -28t50.5 -9.5z" />
    <glyph glyph-name="ydieresis" unicode="&#xff;" horiz-adv-x="503" 
d="M290 244l84 278h120l-205 -623q-11 -36 -29 -58t-45 -31.5t-67 -9.5h-80v99h98l23 74l-181 549h126l84 -279l31 -134h9zM154 606q-38 0 -53.5 15.5t-15.5 40.5v23q0 25 15.5 40t53.5 15t53.5 -15t15.5 -40v-23q0 -25 -15.5 -40.5t-53.5 -15.5zM352 606q-38 0 -53.5 15.5
t-15.5 40.5v23q0 25 15.5 40t53.5 15t53.5 -15t15.5 -40v-23q0 -25 -15.5 -40.5t-53.5 -15.5z" />
    <glyph glyph-name="Amacron" unicode="&#x100;" horiz-adv-x="639" 
d="M619 0h-131l-52 180h-236l-52 -180h-127l219 698h161zM405 287l-55 184l-28 111h-10l-27 -111l-54 -184h174zM177 792v92h284v-92h-284z" />
    <glyph glyph-name="amacron" unicode="&#x101;" horiz-adv-x="532" 
d="M504 0h-72q-27 0 -47.5 11.5t-32.5 35.5t-12 61v13l28 -32h-36q-11 -48 -49 -74.5t-93 -26.5q-76 0 -115.5 41.5t-39.5 111.5q0 54 24.5 89.5t72 53.5t114.5 18h84v42q0 44 -21 67.5t-69 23.5q-41 0 -67.5 -19t-44.5 -48l-74 66q29 45 75.5 72.5t120.5 27.5
q101 0 153 -47.5t52 -137.5v-250h49v-99zM330 226h-77q-47 0 -69.5 -16.5t-22.5 -48.5v-19q0 -32 19.5 -47.5t53.5 -15.5q27 0 48.5 9t34.5 27t13 42v69zM109 628v92h284v-92h-284z" />
    <glyph glyph-name="Abreve" unicode="&#x102;" horiz-adv-x="639" 
d="M619 0h-131l-52 180h-236l-52 -180h-127l219 698h161zM405 287l-55 184l-28 111h-10l-27 -111l-54 -184h174zM319 748q-37 0 -64 11t-47 32t-35 50t-27 64l68 35l20 -36q19 -36 38 -52t47 -16q29 0 48 16.5t38 51.5l19 36l68 -35q-16 -47 -38 -82.5t-54.5 -55
t-80.5 -19.5z" />
    <glyph glyph-name="abreve" unicode="&#x103;" horiz-adv-x="532" 
d="M504 0h-72q-27 0 -47.5 11.5t-32.5 35.5t-12 61v13l28 -32h-36q-11 -48 -49 -74.5t-93 -26.5q-76 0 -115.5 41.5t-39.5 111.5q0 54 24.5 89.5t72 53.5t114.5 18h84v42q0 44 -21 67.5t-69 23.5q-41 0 -67.5 -19t-44.5 -48l-74 66q29 45 75.5 72.5t120.5 27.5
q101 0 153 -47.5t52 -137.5v-250h49v-99zM330 226h-77q-47 0 -69.5 -16.5t-22.5 -48.5v-19q0 -32 19.5 -47.5t53.5 -15.5q27 0 48.5 9t34.5 27t13 42v69zM251 584q-37 0 -64 11.5t-47 32t-35 49.5t-27 65l68 35l20 -37q20 -36 38.5 -51.5t46.5 -15.5t47.5 16t37.5 51l20 37
l68 -35q-12 -36 -27 -65t-36 -49.5t-47.5 -32t-62.5 -11.5z" />
    <glyph glyph-name="Aogonek" unicode="&#x104;" horiz-adv-x="639" 
d="M21 0l219 698h161l218 -698q-43 -28 -65.5 -47.5t-31 -34.5t-8.5 -29q0 -16 9.5 -24.5t25.5 -8.5t28.5 7.5t21.5 18.5l46 -45q-14 -21 -42 -34.5t-65 -13.5q-33 0 -58 9t-39.5 26.5t-14.5 45.5q0 26 14.5 48t41 40.5t62.5 35.5v6h-56l-52 180h-236l-52 -180h-127z
M405 287l-55 184l-28 111h-10l-28 -111l-53 -184h174z" />
    <glyph glyph-name="aogonek" unicode="&#x105;" horiz-adv-x="532" 
d="M504 100v-100q-43 -28 -65.5 -47.5t-31 -34t-8.5 -29.5q0 -17 9.5 -25t25.5 -8t28.5 7.5t21.5 18.5l46 -45q-14 -21 -42 -34.5t-65 -13.5q-32 0 -57.5 8.5t-39.5 26.5t-14 46q0 40 32.5 70t85.5 54l-9 31l40 -25h-29q-27 0 -47.5 11.5t-32.5 35.5t-12 61v13l28 -32h-36
q-11 -48 -49 -74.5t-93 -26.5q-76 0 -115.5 41.5t-39.5 111.5q0 54 24.5 89.5t72 53.5t114.5 18h84v42q0 44 -21 67.5t-69 23.5q-41 0 -67.5 -19t-44.5 -48l-74 66q29 45 75.5 72.5t120.5 27.5q101 0 153 -47.5t52 -137.5v-249h49zM330 226h-77q-47 0 -69.5 -16.5
t-22.5 -48.5v-19q0 -32 19.5 -47.5t53.5 -15.5q27 0 48.5 9t34.5 27t13 42v69z" />
    <glyph glyph-name="Cacute" unicode="&#x106;" horiz-adv-x="611" 
d="M336 -12q-88 0 -152 38t-99.5 117t-35.5 202t35.5 204t99.5 121t152 40q93 0 150.5 -39.5t92.5 -120.5l-109 -58q-14 48 -44.5 76t-89.5 28q-70 0 -110 -46t-40 -131v-142q0 -84 40 -129.5t110 -45.5q59 0 92.5 31.5t49.5 79.5l104 -61q-35 -78 -94 -121t-152 -43z
M470 916l-123 -172l-75 37l91 188z" />
    <glyph glyph-name="cacute" unicode="&#x107;" horiz-adv-x="488" 
d="M265 -12q-110 0 -169 70t-59 203t59 203t169 70q78 0 127 -35t70 -96l-102 -46q-8 36 -31 56t-64 20q-49 0 -73.5 -30t-24.5 -85v-114q0 -55 24.5 -85t73.5 -30q44 0 67.5 22t36.5 60l96 -46q-24 -68 -74.5 -102.5t-125.5 -34.5zM397 753l-123 -172l-75 36l91 188z" />
    <glyph glyph-name="Ccircumflex" unicode="&#x108;" horiz-adv-x="611" 
d="M336 -12q-88 0 -152 38t-99.5 117t-35.5 202t35.5 204t99.5 121t152 40q93 0 150.5 -39.5t92.5 -120.5l-109 -58q-14 48 -44.5 76t-89.5 28q-70 0 -110 -46t-40 -131v-142q0 -84 40 -129.5t110 -45.5q59 0 92.5 31.5t49.5 79.5l104 -61q-35 -78 -94 -121t-152 -43z
M279 950h110l124 -156l-63 -49l-116 117l-116 -117l-63 49z" />
    <glyph glyph-name="ccircumflex" unicode="&#x109;" horiz-adv-x="488" 
d="M265 -12q-110 0 -169 70t-59 203t59 203t169 70q78 0 127 -35t70 -96l-102 -46q-8 36 -31 56t-64 20q-49 0 -73.5 -30t-24.5 -85v-114q0 -55 24.5 -85t73.5 -30q44 0 67.5 22t36.5 60l96 -46q-24 -68 -74.5 -102.5t-125.5 -34.5zM206 787h110l124 -156l-63 -49l-116 117
l-116 -117l-63 49z" />
    <glyph glyph-name="Cdotaccent" unicode="&#x10a;" horiz-adv-x="611" 
d="M336 -12q-88 0 -152 38t-99.5 117t-35.5 202t35.5 204t99.5 121t152 40q93 0 150.5 -39.5t92.5 -120.5l-109 -58q-14 48 -44.5 76t-89.5 28q-70 0 -110 -46t-40 -131v-142q0 -84 40 -129.5t110 -45.5q59 0 92.5 31.5t49.5 79.5l104 -61q-35 -78 -94 -121t-152 -43z
M334 767q-40 0 -56.5 16.5t-16.5 42.5v24q0 26 16.5 42.5t56.5 16.5t56.5 -16.5t16.5 -42.5v-24q0 -26 -16.5 -42.5t-56.5 -16.5z" />
    <glyph glyph-name="cdotaccent" unicode="&#x10b;" horiz-adv-x="488" 
d="M265 -12q-110 0 -169 70t-59 203t59 203t169 70q78 0 127 -35t70 -96l-102 -46q-8 36 -31 56t-64 20q-49 0 -73.5 -30t-24.5 -85v-114q0 -55 24.5 -85t73.5 -30q44 0 67.5 22t36.5 60l96 -46q-24 -68 -74.5 -102.5t-125.5 -34.5zM261 603q-39 0 -56 16t-17 42v23
q0 26 17 42.5t56 16.5q40 0 56.5 -16.5t16.5 -42.5v-23q0 -26 -16.5 -42t-56.5 -16z" />
    <glyph glyph-name="Ccaron" unicode="&#x10c;" horiz-adv-x="611" 
d="M336 -12q-88 0 -152 38t-99.5 117t-35.5 202t35.5 204t99.5 121t152 40q93 0 150.5 -39.5t92.5 -120.5l-109 -58q-14 48 -44.5 76t-89.5 28q-70 0 -110 -46t-40 -131v-142q0 -84 40 -129.5t110 -45.5q59 0 92.5 31.5t49.5 79.5l104 -61q-35 -78 -94 -121t-152 -43z
M389 754h-110l-124 156l63 49l116 -117l116 117l63 -49z" />
    <glyph glyph-name="ccaron" unicode="&#x10d;" horiz-adv-x="488" 
d="M265 -12q-110 0 -169 70t-59 203t59 203t169 70q78 0 127 -35t70 -96l-102 -46q-8 36 -31 56t-64 20q-49 0 -73.5 -30t-24.5 -85v-114q0 -55 24.5 -85t73.5 -30q44 0 67.5 22t36.5 60l96 -46q-24 -68 -74.5 -102.5t-125.5 -34.5zM316 588h-110l-124 155l63 49l116 -117
l116 117l63 -49z" />
    <glyph glyph-name="Dcaron" unicode="&#x10e;" horiz-adv-x="656" 
d="M77 0v698h246q87 0 151 -37t98.5 -114.5t34.5 -197.5t-34.5 -197.5t-98.5 -114.5t-151 -37h-246zM205 113h118q46 0 79 18.5t51 56t18 92.5v138q0 56 -18 93t-51 55.5t-79 18.5h-118v-472zM361 754h-110l-124 156l63 49l116 -117l116 117l63 -49z" />
    <glyph glyph-name="dcaron" unicode="&#x10f;" horiz-adv-x="619" 
d="M377 0v86h-10q-12 -44 -48.5 -71t-84.5 -27q-63 0 -106 31.5t-64.5 92.5t-21.5 149t22 149t64.5 92.5t105.5 31.5q48 0 84.5 -27t48.5 -71h10v304h124v-740h-124zM278 91q29 0 51 9.5t35 28t13 44.5v177q0 25 -13 43.5t-35 28t-51 9.5q-48 0 -76.5 -31t-28.5 -85v-107
q0 -54 28.5 -85.5t76.5 -31.5zM695 740l-59 -206h-78l7 206h130z" />
    <glyph glyph-name="Dcroat" unicode="&#x110;" horiz-adv-x="662" 
d="M83 0v310h-71v97h71v291h246q88 0 151.5 -37t98 -114.5t34.5 -197.5t-34.5 -197.5t-98 -114.5t-151.5 -37h-246zM211 113h118q46 0 79 18.5t51 56t18 92.5v138q0 56 -18 93t-51 55.5t-79 18.5h-118v-178h118v-97h-118v-197z" />
    <glyph glyph-name="dcroat" unicode="&#x111;" horiz-adv-x="573" 
d="M377 0v86h-10q-12 -44 -48.5 -71t-84.5 -27q-63 0 -106 31.5t-64.5 92.5t-21.5 149t22 149t64.5 92.5t105.5 31.5q48 0 84.5 -27t48.5 -71h10v163h-136v82h136v59h124v-59h60v-82h-60v-599h-124zM278 91q29 0 51 9.5t35 28t13 44.5v177q0 25 -13 43.5t-35 28t-51 9.5
q-48 0 -76.5 -31t-28.5 -85v-107q0 -54 28.5 -85.5t76.5 -31.5z" />
    <glyph glyph-name="Emacron" unicode="&#x112;" horiz-adv-x="571" 
d="M517 0h-440v698h440v-113h-312v-176h274v-112h-274v-184h312v-113zM154 792v92h284v-92h-284z" />
    <glyph glyph-name="emacron" unicode="&#x113;" horiz-adv-x="531" 
d="M274 -12q-72 0 -125.5 31.5t-82.5 92.5t-29 149t27 149t79 92.5t124 31.5q76 0 126 -32.5t75.5 -92.5t25.5 -143v-36h-328v-23q0 -54 31 -86.5t88 -32.5q45 0 75 19.5t52 52.5l68 -74q-31 -44 -83 -71t-123 -27zM268 440q-31 0 -54 -14t-35.5 -40t-12.5 -62v-17h198v18
q0 36 -10.5 61.5t-32 39.5t-53.5 14zM127 628v92h284v-92h-284z" />
    <glyph glyph-name="Ebreve" unicode="&#x114;" horiz-adv-x="571" 
d="M517 0h-440v698h440v-113h-312v-176h274v-112h-274v-184h312v-113zM296 748q-37 0 -64 11t-47 32t-35 50t-27 64l68 35l20 -36q19 -36 38 -52t47 -16q29 0 48 16.5t38 51.5l19 36l68 -35q-16 -47 -38 -82.5t-54.5 -55t-80.5 -19.5z" />
    <glyph glyph-name="ebreve" unicode="&#x115;" horiz-adv-x="531" 
d="M274 -12q-72 0 -125.5 31.5t-82.5 92.5t-29 149t27 149t79 92.5t124 31.5q76 0 126 -32.5t75.5 -92.5t25.5 -143v-36h-328v-23q0 -54 31 -86.5t88 -32.5q45 0 75 19.5t52 52.5l68 -74q-31 -44 -83 -71t-123 -27zM268 440q-31 0 -54 -14t-35.5 -40t-12.5 -62v-17h198v18
q0 36 -10.5 61.5t-32 39.5t-53.5 14zM269 584q-37 0 -64 11.5t-47 32t-35 49.5t-27 65l68 35l20 -37q20 -36 38.5 -51.5t46.5 -15.5t47.5 16t37.5 51l20 37l68 -35q-12 -36 -27 -65t-36 -49.5t-47.5 -32t-62.5 -11.5z" />
    <glyph glyph-name="Edotaccent" unicode="&#x116;" horiz-adv-x="571" 
d="M517 0h-440v698h440v-113h-312v-176h274v-112h-274v-184h312v-113zM296 767q-40 0 -56.5 16.5t-16.5 42.5v24q0 26 16.5 42.5t56.5 16.5t56.5 -16.5t16.5 -42.5v-24q0 -26 -16.5 -42.5t-56.5 -16.5z" />
    <glyph glyph-name="edotaccent" unicode="&#x117;" horiz-adv-x="531" 
d="M274 -12q-72 0 -125.5 31.5t-82.5 92.5t-29 149t27 149t79 92.5t124 31.5q76 0 126 -32.5t75.5 -92.5t25.5 -143v-36h-328v-23q0 -54 31 -86.5t88 -32.5q45 0 75 19.5t52 52.5l68 -74q-31 -44 -83 -71t-123 -27zM268 440q-31 0 -54 -14t-35.5 -40t-12.5 -62v-17h198v18
q0 36 -10.5 61.5t-32 39.5t-53.5 14zM269 603q-39 0 -56 16t-17 42v23q0 26 17 42.5t56 16.5q40 0 56.5 -16.5t16.5 -42.5v-23q0 -26 -16.5 -42t-56.5 -16z" />
    <glyph glyph-name="Eogonek" unicode="&#x118;" horiz-adv-x="571" 
d="M77 0v698h440v-113h-312v-176h274v-112h-274v-184h312v-113q-43 -28 -65.5 -47.5t-31 -34.5t-8.5 -29q0 -16 9.5 -24.5t25.5 -8.5q17 0 29.5 7.5t20.5 18.5l46 -45q-14 -21 -42 -34.5t-65 -13.5q-33 0 -58 9t-39 26.5t-14 45.5q0 39 31.5 69t86.5 55l-1 6h-365z" />
    <glyph glyph-name="eogonek" unicode="&#x119;" horiz-adv-x="531" 
d="M314 -211q-32 0 -57 8.5t-39 26.5t-14 46q0 25 13.5 46t39.5 38.5t63 33.5l-1 6q-11 -3 -22.5 -4.5t-23.5 -1.5q-73 0 -125.5 31.5t-81.5 92.5t-29 149t27 149t79 92.5t124 31.5q76 0 126 -32.5t75.5 -92.5t25.5 -143v-36h-328v-23q0 -54 31 -86.5t88 -32.5q44 0 75.5 20
t52.5 52l67 -74q-11 -16 -30.5 -33.5t-53.5 -41.5q-25 -20 -45 -37t-33.5 -31.5t-20 -27.5t-6.5 -26q0 -16 9.5 -24.5t25.5 -8.5t28.5 7.5t21.5 18.5l45 -45q-14 -21 -41.5 -34.5t-65.5 -13.5zM166 307h198v18q0 36 -10.5 61.5t-32 39.5t-53.5 14q-31 0 -54 -14t-35.5 -40
t-12.5 -62v-17z" />
    <glyph glyph-name="Ecaron" unicode="&#x11a;" horiz-adv-x="571" 
d="M517 0h-440v698h440v-113h-312v-176h274v-112h-274v-184h312v-113zM351 754h-110l-124 156l63 49l116 -117l116 117l63 -49z" />
    <glyph glyph-name="ecaron" unicode="&#x11b;" horiz-adv-x="531" 
d="M274 -12q-72 0 -125.5 31.5t-82.5 92.5t-29 149t27 149t79 92.5t124 31.5q76 0 126 -32.5t75.5 -92.5t25.5 -143v-36h-328v-23q0 -54 31 -86.5t88 -32.5q45 0 75 19.5t52 52.5l68 -74q-31 -44 -83 -71t-123 -27zM268 440q-31 0 -54 -14t-35.5 -40t-12.5 -62v-17h198v18
q0 36 -10.5 61.5t-32 39.5t-53.5 14zM324 588h-110l-124 155l63 49l116 -117l116 117l63 -49z" />
    <glyph glyph-name="Gcircumflex" unicode="&#x11c;" horiz-adv-x="676" 
d="M500 0v107h-9q-9 -51 -53 -85t-120 -34q-75 0 -136 38.5t-97 118t-36 202.5q0 124 36.5 204t102 119.5t154.5 39.5q93 0 156.5 -41t98.5 -117l-104 -61q-18 47 -54.5 76t-97.5 29q-47 0 -82 -20t-54 -59t-19 -96v-144q0 -56 19 -95.5t54.5 -59.5t84.5 -20q40 0 72.5 13.5
t51.5 40.5t19 66v48h-130v108h253v-378h-110zM285 950h110l124 -156l-63 -49l-116 117l-116 -117l-63 49z" />
    <glyph glyph-name="gcircumflex" unicode="&#x11d;" horiz-adv-x="527" 
d="M519 -45q0 -54 -25 -91.5t-82.5 -56.5t-154.5 -19q-85 0 -136 14.5t-73 42.5t-22 67q0 41 23.5 65t65.5 31v15q-32 8 -48.5 30.5t-16.5 54.5q0 38 27 59t64 28v9q-45 21 -67.5 60t-22.5 93t23 94t69 61.5t114 21.5q24 0 47 -2.5t43 -9.5h162v-86h-100v-8q26 -6 40 -28
t14 -53q0 -49 -22.5 -86.5t-68.5 -58.5t-114 -21q-22 0 -41.5 2.5t-37.5 6.5q-14 -6 -23 -18.5t-9 -29.5q0 -19 15 -29t47 -10h136q92 0 133 -39t41 -109zM258 267q44 0 66 20.5t22 60.5v19q0 41 -22 61t-66 20t-66.5 -20t-22.5 -61v-19q0 -40 22.5 -60.5t66.5 -20.5z
M402 -60q0 26 -19 40.5t-64 14.5h-169q-13 -11 -19 -25t-6 -30q0 -31 23.5 -48t80.5 -17h61q60 0 86 16t26 49zM208 787h110l124 -156l-63 -49l-116 117l-116 -117l-63 49z" />
    <glyph glyph-name="Gbreve" unicode="&#x11e;" horiz-adv-x="676" 
d="M500 0v107h-9q-9 -51 -53 -85t-120 -34q-75 0 -136 38.5t-97 118t-36 202.5q0 124 36.5 204t102 119.5t154.5 39.5q93 0 156.5 -41t98.5 -117l-104 -61q-18 47 -54.5 76t-97.5 29q-47 0 -82 -20t-54 -59t-19 -96v-144q0 -56 19 -95.5t54.5 -59.5t84.5 -20q40 0 72.5 13.5
t51.5 40.5t19 66v48h-130v108h253v-378h-110zM340 748q-37 0 -64 11t-47 32t-35 50t-27 64l68 35l20 -36q19 -36 38 -52t47 -16q29 0 48 16.5t38 51.5l19 36l68 -35q-16 -47 -38 -82.5t-54.5 -55t-80.5 -19.5z" />
    <glyph glyph-name="gbreve" unicode="&#x11f;" horiz-adv-x="527" 
d="M519 -45q0 -54 -25 -91.5t-82.5 -56.5t-154.5 -19q-85 0 -136 14.5t-73 42.5t-22 67q0 41 23.5 65t65.5 31v15q-32 8 -48.5 30.5t-16.5 54.5q0 38 27 59t64 28v9q-45 21 -67.5 60t-22.5 93t23 94t69 61.5t114 21.5q24 0 47 -2.5t43 -9.5h162v-86h-100v-8q26 -6 40 -28
t14 -53q0 -49 -22.5 -86.5t-68.5 -58.5t-114 -21q-22 0 -41.5 2.5t-37.5 6.5q-14 -6 -23 -18.5t-9 -29.5q0 -19 15 -29t47 -10h136q92 0 133 -39t41 -109zM258 267q44 0 66 20.5t22 60.5v19q0 41 -22 61t-66 20t-66.5 -20t-22.5 -61v-19q0 -40 22.5 -60.5t66.5 -20.5z
M402 -60q0 26 -19 40.5t-64 14.5h-169q-13 -11 -19 -25t-6 -30q0 -31 23.5 -48t80.5 -17h61q60 0 86 16t26 49zM263 584q-37 0 -64 11.5t-47 32t-35 49.5t-27 65l68 35l20 -37q20 -36 38.5 -51.5t46.5 -15.5t47.5 16t37.5 51l20 37l68 -35q-12 -36 -27 -65t-36 -49.5
t-47.5 -32t-62.5 -11.5z" />
    <glyph glyph-name="Gdotaccent" unicode="&#x120;" horiz-adv-x="676" 
d="M500 0v107h-9q-9 -51 -53 -85t-120 -34q-75 0 -136 38.5t-97 118t-36 202.5q0 124 36.5 204t102 119.5t154.5 39.5q93 0 156.5 -41t98.5 -117l-104 -61q-18 47 -54.5 76t-97.5 29q-47 0 -82 -20t-54 -59t-19 -96v-144q0 -56 19 -95.5t54.5 -59.5t84.5 -20q40 0 72.5 13.5
t51.5 40.5t19 66v48h-130v108h253v-378h-110zM340 767q-40 0 -56.5 16.5t-16.5 42.5v24q0 26 16.5 42.5t56.5 16.5t56.5 -16.5t16.5 -42.5v-24q0 -26 -16.5 -42.5t-56.5 -16.5z" />
    <glyph glyph-name="gdotaccent" unicode="&#x121;" horiz-adv-x="527" 
d="M519 -45q0 -54 -25 -91.5t-82.5 -56.5t-154.5 -19q-85 0 -136 14.5t-73 42.5t-22 67q0 41 23.5 65t65.5 31v15q-32 8 -48.5 30.5t-16.5 54.5q0 38 27 59t64 28v9q-45 21 -67.5 60t-22.5 93t23 94t69 61.5t114 21.5q24 0 47 -2.5t43 -9.5h162v-86h-100v-8q26 -6 40 -28
t14 -53q0 -49 -22.5 -86.5t-68.5 -58.5t-114 -21q-22 0 -41.5 2.5t-37.5 6.5q-14 -6 -23 -18.5t-9 -29.5q0 -19 15 -29t47 -10h136q92 0 133 -39t41 -109zM258 267q44 0 66 20.5t22 60.5v19q0 41 -22 61t-66 20t-66.5 -20t-22.5 -61v-19q0 -40 22.5 -60.5t66.5 -20.5z
M402 -60q0 26 -19 40.5t-64 14.5h-169q-13 -11 -19 -25t-6 -30q0 -31 23.5 -48t80.5 -17h61q60 0 86 16t26 49zM261 603q-39 0 -56 16t-17 42v23q0 26 17 42.5t56 16.5q40 0 56.5 -16.5t16.5 -42.5v-23q0 -26 -16.5 -42t-56.5 -16z" />
    <glyph glyph-name="Gcommaaccent" unicode="&#x122;" horiz-adv-x="676" 
d="M500 0v107h-9q-9 -51 -53 -85t-120 -34q-75 0 -136 38.5t-97 118t-36 202.5q0 124 36.5 204t102 119.5t154.5 39.5q93 0 156.5 -41t98.5 -117l-104 -61q-18 47 -54.5 76t-97.5 29q-47 0 -82 -20t-54 -59t-19 -96v-144q0 -56 19 -95.5t54.5 -59.5t84.5 -20q40 0 72.5 13.5
t51.5 40.5t19 66v48h-130v108h253v-378h-110zM334 -49q31 0 48 -14t17 -42v-16q0 -43 -19 -82t-46 -63h-76q24 22 38 43.5t20 48.5q-25 3 -35.5 17.5t-10.5 36.5v15q0 28 17 42t47 14z" />
    <glyph glyph-name="gcommaaccent" unicode="&#x123;" horiz-adv-x="527" 
d="M519 -45q0 -54 -25 -91.5t-82.5 -56.5t-154.5 -19q-85 0 -136 14.5t-73 42.5t-22 67q0 41 23.5 65t65.5 31v15q-32 8 -48.5 30.5t-16.5 54.5q0 38 27 59t64 28v9q-45 21 -67.5 60t-22.5 93t23 94t69 61.5t114 21.5q24 0 47 -2.5t43 -9.5h162v-86h-100v-8q26 -6 40 -28
t14 -53q0 -49 -22.5 -86.5t-68.5 -58.5t-114 -21q-22 0 -41.5 2.5t-37.5 6.5q-14 -6 -23 -18.5t-9 -29.5q0 -19 15 -29t47 -10h136q92 0 133 -39t41 -109zM258 267q44 0 66 20.5t22 60.5v19q0 41 -22 61t-66 20t-66.5 -20t-22.5 -61v-19q0 -40 22.5 -60.5t66.5 -20.5z
M402 -60q0 26 -19 40.5t-64 14.5h-169q-13 -11 -19 -25t-6 -30q0 -31 23.5 -48t80.5 -17h61q60 0 86 16t26 49zM262 582q-31 0 -48 14t-17 41v16q0 44 19 82.5t46 63.5h75q-23 -22 -36.5 -43.5t-21.5 -49.5q26 -2 36.5 -16.5t10.5 -37.5v-15q0 -27 -17 -41t-47 -14z" />
    <glyph glyph-name="Hcircumflex" unicode="&#x124;" horiz-adv-x="684" 
d="M479 0v297h-274v-297h-128v698h128v-289h274v289h128v-698h-128zM287 950h110l124 -156l-63 -49l-116 117l-116 -117l-63 49z" />
    <glyph glyph-name="hcircumflex" unicode="&#x125;" horiz-adv-x="560" 
d="M70 0v740h124v-305h10q14 42 46.5 70.5t89.5 28.5q75 0 115.5 -50.5t40.5 -143.5v-340h-125v324q0 53 -19 80t-62 27q-25 0 -47 -9.5t-35.5 -28t-13.5 -45.5v-348h-124zM77 945h110l124 -156l-63 -49l-116 117l-116 -117l-63 49z" />
    <glyph glyph-name="Hbar" unicode="&#x126;" horiz-adv-x="696" 
d="M485 0v297h-274v-297h-128v514h-69v89h69v95h128v-95h274v95h128v-95h69v-89h-69v-514h-128zM211 409h274v105h-274v-105z" />
    <glyph glyph-name="hbar" unicode="&#x127;" horiz-adv-x="560" 
d="M194 0h-124v599h-60v82h60v59h124v-59h136v-82h-136v-164h10q14 42 46.5 70.5t89.5 28.5q75 0 115.5 -50.5t40.5 -143.5v-340h-125v324q0 53 -19 80t-62 27q-25 0 -47 -9.5t-35.5 -28t-13.5 -45.5v-348z" />
    <glyph glyph-name="Itilde" unicode="&#x128;" horiz-adv-x="405" 
d="M354 0h-304v103h88v492h-88v103h304v-103h-88v-492h88v-103zM275 769q-20 0 -36.5 5.5t-39.5 16.5q-24 12 -40.5 18t-31.5 6q-16 0 -28 -6.5t-27 -19.5l-45 58q17 26 42.5 42.5t59.5 16.5q21 0 37.5 -6t38.5 -17q24 -11 40.5 -17t31.5 -6q16 0 28 6.5t27 19.5l45 -58
q-16 -26 -42 -42.5t-60 -16.5z" />
    <glyph glyph-name="itilde" unicode="&#x129;" horiz-adv-x="264" 
d="M194 0h-124v522h124v-522zM194 607q-19 0 -34.5 6.5t-31.5 14.5q-16 9 -30.5 15t-27.5 6q-14 0 -24.5 -5.5t-23.5 -17.5l-44 56q17 27 39 42.5t53 15.5q19 0 35 -6.5t31 -14.5q17 -9 31.5 -15t26.5 -6q14 0 24.5 5.5t23.5 17.5l44 -56q-17 -27 -39 -42.5t-53 -15.5z" />
    <glyph glyph-name="Imacron" unicode="&#x12a;" horiz-adv-x="405" 
d="M354 0h-304v103h88v492h-88v103h304v-103h-88v-492h88v-103zM60 792v92h284v-92h-284z" />
    <glyph glyph-name="imacron" unicode="&#x12b;" horiz-adv-x="264" 
d="M194 0h-124v522h124v-522zM-8 628v92h280v-92h-280z" />
    <glyph glyph-name="Ibreve" unicode="&#x12c;" horiz-adv-x="405" 
d="M354 0h-304v103h88v492h-88v103h304v-103h-88v-492h88v-103zM202 748q-37 0 -64 11t-47 32t-35 50t-27 64l68 35l20 -36q19 -36 38 -52t47 -16q29 0 48 16.5t38 51.5l19 36l68 -35q-16 -47 -38 -82.5t-54.5 -55t-80.5 -19.5z" />
    <glyph glyph-name="ibreve" unicode="&#x12d;" horiz-adv-x="264" 
d="M194 0h-124v522h124v-522zM132 584q-36 0 -63 11.5t-46 33t-33 51t-24 64.5l69 33l18 -39q16 -33 33.5 -49t45.5 -16t46 16.5t34 48.5l18 39l68 -33q-10 -35 -24 -64.5t-33.5 -51t-46.5 -33t-62 -11.5z" />
    <glyph glyph-name="Iogonek" unicode="&#x12e;" horiz-adv-x="405" 
d="M50 0v103h88v492h-88v103h305v-103h-89v-492h89v-103q-43 -28 -65.5 -47.5t-31 -34.5t-8.5 -29q0 -16 9.5 -24.5t25.5 -8.5t28.5 7.5t21.5 18.5l46 -45q-14 -21 -42 -34.5t-65 -13.5q-33 0 -58 9t-39 26.5t-14 45.5q0 39 31 68.5t87 55.5l-1 6h-230z" />
    <glyph glyph-name="iogonek" unicode="&#x12f;" horiz-adv-x="264" 
d="M70 522h124v-522q-43 -28 -65.5 -47.5t-31 -34.5t-8.5 -29q0 -16 9.5 -24.5t25.5 -8.5q17 0 29.5 7.5t21.5 18.5l45 -45q-14 -21 -41.5 -34.5t-65.5 -13.5q-32 0 -57 9t-39.5 26.5t-14.5 45.5q0 26 14.5 47.5t41 40.5t63.5 36v6h-51v522zM132 601q-39 0 -56.5 17.5
t-17.5 45.5v19q0 29 17.5 46t56.5 17q38 0 55.5 -17t17.5 -46v-19q0 -28 -17.5 -45.5t-55.5 -17.5z" />
    <glyph glyph-name="Idotaccent" unicode="&#x130;" horiz-adv-x="405" 
d="M354 0h-304v103h88v492h-88v103h304v-103h-88v-492h88v-103zM202 767q-40 0 -56.5 16.5t-16.5 42.5v24q0 26 16.5 42.5t56.5 16.5t56.5 -16.5t16.5 -42.5v-24q0 -26 -16.5 -42.5t-56.5 -16.5z" />
    <glyph glyph-name="dotlessi" unicode="&#x131;" horiz-adv-x="264" 
d="M194 0h-124v522h124v-522z" />
    <glyph glyph-name="IJ" unicode="&#x132;" horiz-adv-x="621" 
d="M312 -11q-105 0 -161 50t-71 135l119 24q8 -47 36.5 -72t75.5 -25q46 0 77 25t31 82v385h-98v105h227v-496q0 -66 -28.5 -114t-81.5 -73.5t-126 -25.5zM74 302v396h128v-396h-128z" />
    <glyph glyph-name="ij" unicode="&#x133;" horiz-adv-x="526" 
d="M132 601q-39 0 -56.5 17.5t-17.5 45.5v19q0 29 17.5 46t56.5 17q38 0 55.5 -17t17.5 -46v-19q0 -28 -17.5 -45.5t-55.5 -17.5zM70 0v522h124v-522h-124zM332 -101v623h125v-593q0 -63 -31.5 -96t-100.5 -33h-69v99h76zM394 601q-38 0 -55.5 17.5t-17.5 45.5v19
q0 29 17.5 46t55.5 17q39 0 56.5 -17t17.5 -46v-19q0 -28 -17.5 -45.5t-56.5 -17.5z" />
    <glyph glyph-name="Jcircumflex" unicode="&#x134;" horiz-adv-x="519" 
d="M110 698h336v-510q0 -62 -25 -106.5t-72.5 -69t-113.5 -24.5q-95 0 -145.5 49.5t-65.5 133.5l118 25q8 -47 30 -71t62 -24q38 0 61 23t23 74v395h-208v105zM223 950h110l124 -156l-63 -49l-116 117l-116 -117l-63 49z" />
    <glyph glyph-name="jcircumflex" unicode="&#x135;" horiz-adv-x="265" 
d="M-5 -200v99h76v623h125v-593q0 -63 -31.5 -96t-100.5 -33h-69zM78 787h110l116 -156l-62 -49l-109 117l-109 -117l-62 49z" />
    <glyph glyph-name="Kcommaaccent" unicode="&#x136;" horiz-adv-x="646" 
d="M480 0l-186 318l-89 -111v-207h-128v698h128v-220l-3 -126h10l89 126l166 220h146l-229 -292l248 -406h-152zM337 -49q31 0 48 -14t17 -42v-16q0 -43 -19 -82t-46 -63h-76q24 22 38 43.5t20 48.5q-25 3 -35.5 17.5t-10.5 36.5v15q0 28 17 42t47 14z" />
    <glyph glyph-name="kcommaaccent" unicode="&#x137;" horiz-adv-x="536" 
d="M70 0v740h124v-343l-4 -107h10l65 96l111 136h140l-171 -203l185 -319h-144l-126 236l-66 -75v-161h-124zM292 -49q31 0 48 -14t17 -42v-16q0 -43 -19 -82t-46 -63h-76q24 22 38 43.5t20 48.5q-25 3 -35.5 17.5t-10.5 36.5v15q0 28 17 42t47 14z" />
    <glyph glyph-name="kgreenlandic" unicode="&#x138;" horiz-adv-x="536" 
d="M387 0l-128 236l-65 -75v-161h-124v522h124v-126l-4 -105h10l67 94l113 137h142l-176 -204l184 -318h-143z" />
    <glyph glyph-name="Lacute" unicode="&#x139;" horiz-adv-x="497" 
d="M465 0h-388v698h128v-585h260v-113zM277 916l-123 -172l-75 37l91 188z" />
    <glyph glyph-name="lacute" unicode="&#x13a;" horiz-adv-x="281" 
d="M259 0h-66q-64 0 -93.5 31t-29.5 90v619h124v-641h65v-99zM268 953l-123 -172l-75 36l91 188z" />
    <glyph glyph-name="Lcommaaccent" unicode="&#x13b;" horiz-adv-x="497" 
d="M465 0h-388v698h128v-585h260v-113zM274 -49q31 0 48 -14t17 -42v-16q0 -43 -19 -82t-46 -63h-76q24 22 38 43.5t20 48.5q-25 3 -35.5 17.5t-10.5 36.5v15q0 28 17 42t47 14z" />
    <glyph glyph-name="lcommaaccent" unicode="&#x13c;" horiz-adv-x="281" 
d="M259 0h-66q-64 0 -93.5 31t-29.5 90v619h124v-641h65v-99zM163 -49q31 0 48 -14t17 -42v-16q0 -43 -19 -82t-46 -63h-76q24 22 38 43.5t20 48.5q-25 3 -35.5 17.5t-10.5 36.5v15q0 28 17 42t47 14z" />
    <glyph glyph-name="Lcaron" unicode="&#x13d;" horiz-adv-x="497" 
d="M465 0h-388v698h128v-585h260v-113zM412 740l-59 -206h-78l7 206h130z" />
    <glyph glyph-name="lcaron" unicode="&#x13e;" horiz-adv-x="314" 
d="M259 0h-66q-64 0 -93.5 31t-29.5 90v619h124v-641h65v-99zM388 740l-59 -206h-78l7 206h130z" />
    <glyph glyph-name="Ldot" unicode="&#x13f;" horiz-adv-x="497" 
d="M465 0h-388v698h128v-585h260v-113zM385 310q-39 0 -56 16t-17 42v23q0 26 17 42.5t56 16.5q40 0 56.5 -16.5t16.5 -42.5v-23q0 -26 -16.5 -42t-56.5 -16z" />
    <glyph glyph-name="ldot" unicode="&#x140;" horiz-adv-x="399" 
d="M259 0h-66q-64 0 -93.5 31t-29.5 90v619h124v-641h65v-99zM329 269q-39 0 -56 16t-17 42v23q0 26 17 42.5t56 16.5q40 0 56.5 -16.5t16.5 -42.5v-23q0 -26 -16.5 -42t-56.5 -16z" />
    <glyph glyph-name="Lslash" unicode="&#x141;" horiz-adv-x="505" 
d="M472 113v-113h-389v253l-86 -29v94l86 29v351h128v-308l155 53v-95l-155 -53v-182h261z" />
    <glyph glyph-name="lslash" unicode="&#x142;" horiz-adv-x="290" 
d="M262 99v-99h-66q-65 0 -94.5 31t-29.5 90v185l-71 -24v93l71 24v341h124v-298l95 32v-94l-95 -32v-249h66z" />
    <glyph glyph-name="Nacute" unicode="&#x143;" horiz-adv-x="684" 
d="M465 0l-201 378l-61 132h-9l4 -136v-374h-121v698h142l202 -378l60 -132h9l-4 136v374h121v-698h-142zM477 916l-123 -172l-75 37l91 188z" />
    <glyph glyph-name="nacute" unicode="&#x144;" horiz-adv-x="560" 
d="M194 0h-124v522h124v-87h10q14 42 46.5 70.5t88.5 28.5q76 0 116.5 -50.5t40.5 -143.5v-340h-125v324q0 53 -19 80t-62 27q-25 0 -47 -9.5t-35.5 -28t-13.5 -45.5v-348zM418 753l-123 -172l-75 36l91 188z" />
    <glyph glyph-name="Ncommaaccent" unicode="&#x145;" horiz-adv-x="684" 
d="M465 0l-201 378l-61 132h-9l4 -136v-374h-121v698h142l202 -378l60 -132h9l-4 136v374h121v-698h-142zM340 -49q31 0 48 -14t17 -42v-16q0 -43 -19 -82t-46 -63h-76q24 22 38 43.5t20 48.5q-25 3 -35.5 17.5t-10.5 36.5v15q0 28 17 42t47 14z" />
    <glyph glyph-name="ncommaaccent" unicode="&#x146;" horiz-adv-x="560" 
d="M194 0h-124v522h124v-87h10q14 42 46.5 70.5t88.5 28.5q76 0 116.5 -50.5t40.5 -143.5v-340h-125v324q0 53 -19 80t-62 27q-25 0 -47 -9.5t-35.5 -28t-13.5 -45.5v-348zM282 -49q31 0 48 -14t17 -42v-16q0 -43 -19 -82t-46 -63h-76q24 22 38 43.5t20 48.5
q-25 3 -35.5 17.5t-10.5 36.5v15q0 28 17 42t47 14z" />
    <glyph glyph-name="Ncaron" unicode="&#x147;" horiz-adv-x="684" 
d="M465 0l-201 378l-61 132h-9l4 -136v-374h-121v698h142l202 -378l60 -132h9l-4 136v374h121v-698h-142zM396 754h-110l-124 156l63 49l116 -117l116 117l63 -49z" />
    <glyph glyph-name="ncaron" unicode="&#x148;" horiz-adv-x="560" 
d="M194 0h-124v522h124v-87h10q14 42 46.5 70.5t88.5 28.5q76 0 116.5 -50.5t40.5 -143.5v-340h-125v324q0 53 -19 80t-62 27q-25 0 -47 -9.5t-35.5 -28t-13.5 -45.5v-348zM337 588h-110l-124 155l63 49l116 -117l116 117l63 -49z" />
    <glyph glyph-name="napostrophe" unicode="&#x149;" horiz-adv-x="835" 
d="M143 749q40 0 58.5 -18.5t18.5 -48.5v-21q0 -52 -28 -104.5t-72 -88.5h-82q31 31 52.5 61t31.5 66q-28 6 -41.5 23t-13.5 42v22q0 30 18.5 48.5t57.5 18.5zM469 0h-124v522h124v-87h10q14 42 46.5 70.5t88.5 28.5q76 0 116.5 -50.5t40.5 -143.5v-340h-125v324
q0 53 -19 80t-62 27q-25 0 -47 -9.5t-35.5 -28t-13.5 -45.5v-348z" />
    <glyph glyph-name="Eng" unicode="&#x14a;" horiz-adv-x="684" 
d="M198 0h-121v698h142l201 -378l61 -132h8l-4 134v376h122v-768q0 -64 -31.5 -97t-100.5 -33h-70v100h80v100h-21l-200 378l-61 132h-9l4 -134v-376z" />
    <glyph glyph-name="eng" unicode="&#x14b;" horiz-adv-x="560" 
d="M296 -200v99h75v425q0 53 -19 80t-62 27q-25 0 -47 -9.5t-35.5 -28t-13.5 -45.5v-348h-124v522h124v-87h10q14 42 46.5 70.5t88.5 28.5q76 0 116.5 -50.5t40.5 -143.5v-411q0 -63 -31 -96t-100 -33h-69z" />
    <glyph glyph-name="Omacron" unicode="&#x14c;" horiz-adv-x="677" 
d="M338 -12q-87 0 -152 39t-101 119t-36 203q0 124 36 203.5t101 118.5t152 39q88 0 153 -39t100.5 -118.5t35.5 -203.5q0 -123 -35.5 -203t-100.5 -119t-153 -39zM338 102q48 0 82 20.5t52.5 60.5t18.5 96v140q0 57 -18.5 96.5t-52.5 60t-82 20.5q-47 0 -81 -20.5
t-52.5 -60t-18.5 -96.5v-140q0 -56 18.5 -96t52.5 -60.5t81 -20.5zM196 792v92h284v-92h-284z" />
    <glyph glyph-name="omacron" unicode="&#x14d;" horiz-adv-x="535" 
d="M267 -12q-71 0 -123 31.5t-79.5 92.5t-27.5 149q0 89 27.5 150t79.5 92t123 31q72 0 124 -31t79.5 -92t27.5 -150q0 -88 -27.5 -149t-79.5 -92.5t-124 -31.5zM267 89q48 0 74.5 29t26.5 85v116q0 57 -26.5 85.5t-74.5 28.5q-47 0 -73.5 -28.5t-26.5 -85.5v-116
q0 -56 26.5 -85t73.5 -29zM125 628v92h284v-92h-284z" />
    <glyph glyph-name="Obreve" unicode="&#x14e;" horiz-adv-x="677" 
d="M338 -12q-87 0 -152 39t-101 119t-36 203q0 124 36 203.5t101 118.5t152 39q88 0 153 -39t100.5 -118.5t35.5 -203.5q0 -123 -35.5 -203t-100.5 -119t-153 -39zM338 102q48 0 82 20.5t52.5 60.5t18.5 96v140q0 57 -18.5 96.5t-52.5 60t-82 20.5q-47 0 -81 -20.5
t-52.5 -60t-18.5 -96.5v-140q0 -56 18.5 -96t52.5 -60.5t81 -20.5zM338 748q-37 0 -64 11t-47 32t-35 50t-27 64l68 35l20 -36q19 -36 38 -52t47 -16q29 0 48 16.5t38 51.5l19 36l68 -35q-16 -47 -38 -82.5t-54.5 -55t-80.5 -19.5z" />
    <glyph glyph-name="obreve" unicode="&#x14f;" horiz-adv-x="535" 
d="M267 -12q-71 0 -123 31.5t-79.5 92.5t-27.5 149q0 89 27.5 150t79.5 92t123 31q72 0 124 -31t79.5 -92t27.5 -150q0 -88 -27.5 -149t-79.5 -92.5t-124 -31.5zM267 89q48 0 74.5 29t26.5 85v116q0 57 -26.5 85.5t-74.5 28.5q-47 0 -73.5 -28.5t-26.5 -85.5v-116
q0 -56 26.5 -85t73.5 -29zM267 584q-37 0 -64 11.5t-47 32t-35 49.5t-27 65l68 35l20 -37q20 -36 38.5 -51.5t46.5 -15.5t47.5 16t37.5 51l20 37l68 -35q-12 -36 -27 -65t-36 -49.5t-47.5 -32t-62.5 -11.5z" />
    <glyph glyph-name="Ohungarumlaut" unicode="&#x150;" horiz-adv-x="677" 
d="M338 -12q-87 0 -152 39t-101 119t-36 203q0 124 36 203.5t101 118.5t152 39q88 0 153 -39t100.5 -118.5t35.5 -203.5q0 -123 -35.5 -203t-100.5 -119t-153 -39zM338 102q48 0 82 20.5t52.5 60.5t18.5 96v140q0 57 -18.5 96.5t-52.5 60t-82 20.5q-47 0 -81 -20.5
t-52.5 -60t-18.5 -96.5v-140q0 -56 18.5 -96t52.5 -60.5t81 -20.5zM378 917l-122 -172l-69 33l92 188zM562 917l-122 -172l-69 33l92 188z" />
    <glyph glyph-name="ohungarumlaut" unicode="&#x151;" horiz-adv-x="535" 
d="M267 -12q-71 0 -123 31.5t-79.5 92.5t-27.5 149q0 89 27.5 150t79.5 92t123 31q72 0 124 -31t79.5 -92t27.5 -150q0 -88 -27.5 -149t-79.5 -92.5t-124 -31.5zM267 89q48 0 74.5 29t26.5 85v116q0 57 -26.5 85.5t-74.5 28.5q-47 0 -73.5 -28.5t-26.5 -85.5v-116
q0 -56 26.5 -85t73.5 -29zM307 753l-122 -172l-69 33l92 188zM491 753l-122 -172l-69 33l92 188z" />
    <glyph glyph-name="OE" unicode="&#x152;" horiz-adv-x="945" 
d="M890 0h-433q-25 -6 -54.5 -9t-59.5 -3q-90 0 -156 39t-102 119t-36 203q0 124 36 203.5t102 118.5t156 39q30 0 60 -3t57 -9h430v-113h-312v-176h275v-112h-275v-184h312v-113zM344 102q31 0 57.5 3t48.5 9v469q-22 7 -48.5 10t-57.5 3q-75 0 -116.5 -46.5t-41.5 -130.5
v-140q0 -84 41.5 -130.5t116.5 -46.5z" />
    <glyph glyph-name="oe" unicode="&#x153;" horiz-adv-x="863" 
d="M267 89q48 0 74.5 29t26.5 85v116q0 57 -26.5 85.5t-74.5 28.5q-47 0 -73.5 -28.5t-26.5 -85.5v-116q0 -56 26.5 -85t73.5 -29zM498 307h198v18q0 36 -11 61.5t-32 39.5t-53 14t-55 -14t-35 -40t-12 -62v-17zM612 -12q-41 0 -76.5 11.5t-61 33t-36.5 50.5h-10
q-15 -45 -59.5 -70t-104.5 -25q-71 0 -122 31.5t-78 93t-27 149.5q0 89 27 149.5t78 91.5t122 31q58 0 102.5 -23.5t61.5 -71.5h10q16 46 60.5 70.5t105.5 24.5q71 0 120.5 -31t75.5 -90.5t26 -146.5v-36h-328v-23q0 -54 31 -86.5t89 -32.5q45 0 75 19.5t53 52.5l67 -74
q-31 -44 -81.5 -71t-119.5 -27z" />
    <glyph glyph-name="Racute" unicode="&#x154;" horiz-adv-x="632" 
d="M205 272v-272h-128v698h302q63 0 106.5 -26t66.5 -73.5t23 -114.5q0 -75 -31 -127t-93 -72l136 -285h-142l-122 272h-118zM205 380h161q24 0 41 8t26 25t9 43v54q0 26 -9 43t-26 25t-41 8h-161v-206zM439 916l-123 -172l-75 37l91 188z" />
    <glyph glyph-name="racute" unicode="&#x155;" horiz-adv-x="375" 
d="M194 0h-124v522h124v-107h10q6 28 21 52.5t40.5 39.5t63.5 15h27v-122h-40q-41 0 -68 -8t-40.5 -26t-13.5 -48v-318zM347 753l-123 -172l-75 36l91 188z" />
    <glyph glyph-name="Rcommaaccent" unicode="&#x156;" horiz-adv-x="632" 
d="M205 272v-272h-128v698h302q63 0 106.5 -26t66.5 -73.5t23 -114.5q0 -75 -31 -127t-93 -72l136 -285h-142l-122 272h-118zM205 380h161q24 0 41 8t26 25t9 43v54q0 26 -9 43t-26 25t-41 8h-161v-206zM318 -49q31 0 48 -14t17 -42v-16q0 -43 -19 -82t-46 -63h-76
q24 22 38 43.5t20 48.5q-25 3 -35.5 17.5t-10.5 36.5v15q0 28 17 42t47 14z" />
    <glyph glyph-name="rcommaaccent" unicode="&#x157;" horiz-adv-x="375" 
d="M194 0h-124v522h124v-107h10q6 28 21 52.5t40.5 39.5t63.5 15h27v-122h-40q-41 0 -68 -8t-40.5 -26t-13.5 -48v-318zM131 -49q31 0 48 -14t17 -42v-16q0 -43 -19 -82t-46 -63h-76q24 22 38 43.5t20 48.5q-25 3 -35.5 17.5t-10.5 36.5v15q0 28 17 42t47 14z" />
    <glyph glyph-name="Rcaron" unicode="&#x158;" horiz-adv-x="632" 
d="M205 272v-272h-128v698h302q63 0 106.5 -26t66.5 -73.5t23 -114.5q0 -75 -31 -127t-93 -72l136 -285h-142l-122 272h-118zM205 380h161q24 0 41 8t26 25t9 43v54q0 26 -9 43t-26 25t-41 8h-161v-206zM358 754h-110l-124 156l63 49l116 -117l116 117l63 -49z" />
    <glyph glyph-name="rcaron" unicode="&#x159;" horiz-adv-x="375" 
d="M194 0h-124v522h124v-107h10q6 28 21 52.5t40.5 39.5t63.5 15h27v-122h-40q-41 0 -68 -8t-40.5 -26t-13.5 -48v-318zM266 588h-110l-124 155l63 49l116 -117l116 117l63 -49z" />
    <glyph glyph-name="Sacute" unicode="&#x15a;" horiz-adv-x="579" 
d="M284 -12q-84 0 -145 30.5t-105 83.5l86 83q32 -41 74.5 -63t94.5 -22q59 0 88.5 26.5t29.5 73.5q0 25 -9 43.5t-28.5 30.5t-53.5 18l-63 12q-67 12 -110.5 37.5t-65 66.5t-21.5 98q0 65 28.5 110t82.5 69.5t130 24.5t132.5 -25.5t96.5 -76.5l-86 -81q-26 34 -61.5 52.5
t-86.5 18.5q-54 0 -81.5 -21.5t-27.5 -64.5q0 -26 9.5 -43.5t30 -28t51.5 -16.5l63 -13q69 -13 112.5 -38t64 -65t20.5 -98q0 -69 -29 -118.5t-85 -76.5t-136 -27zM427 916l-123 -172l-75 37l91 188z" />
    <glyph glyph-name="sacute" unicode="&#x15b;" horiz-adv-x="475" 
d="M234 -12q-69 0 -119.5 24.5t-88.5 70.5l76 74q27 -34 60.5 -52.5t75.5 -18.5t62 16t20 46q0 24 -13.5 38t-46.5 19l-51 8q-54 9 -91 28t-55.5 51t-18.5 78q0 79 51.5 121.5t139.5 42.5q47 0 81.5 -9t62 -27t50.5 -45l-73 -73q-21 25 -51.5 40.5t-66.5 15.5
q-38 0 -56.5 -15t-18.5 -43q0 -27 14.5 -40t48.5 -19l52 -8q84 -13 122 -50.5t38 -101.5q0 -52 -24.5 -90.5t-70 -59.5t-109.5 -21zM372 753l-123 -172l-75 36l91 188z" />
    <glyph glyph-name="Scircumflex" unicode="&#x15c;" horiz-adv-x="579" 
d="M284 -12q-84 0 -145 30.5t-105 83.5l86 83q32 -41 74.5 -63t94.5 -22q59 0 88.5 26.5t29.5 73.5q0 25 -9 43.5t-28.5 30.5t-53.5 18l-63 12q-67 12 -110.5 37.5t-65 66.5t-21.5 98q0 65 28.5 110t82.5 69.5t130 24.5t132.5 -25.5t96.5 -76.5l-86 -81q-26 34 -61.5 52.5
t-86.5 18.5q-54 0 -81.5 -21.5t-27.5 -64.5q0 -26 9.5 -43.5t30 -28t51.5 -16.5l63 -13q69 -13 112.5 -38t64 -65t20.5 -98q0 -69 -29 -118.5t-85 -76.5t-136 -27zM236 950h110l124 -156l-63 -49l-116 117l-116 -117l-63 49z" />
    <glyph glyph-name="scircumflex" unicode="&#x15d;" horiz-adv-x="475" 
d="M234 -12q-69 0 -119.5 24.5t-88.5 70.5l76 74q27 -34 60.5 -52.5t75.5 -18.5t62 16t20 46q0 24 -13.5 38t-46.5 19l-51 8q-54 9 -91 28t-55.5 51t-18.5 78q0 79 51.5 121.5t139.5 42.5q47 0 81.5 -9t62 -27t50.5 -45l-73 -73q-21 25 -51.5 40.5t-66.5 15.5
q-38 0 -56.5 -15t-18.5 -43q0 -27 14.5 -40t48.5 -19l52 -8q84 -13 122 -50.5t38 -101.5q0 -52 -24.5 -90.5t-70 -59.5t-109.5 -21zM181 787h110l124 -156l-63 -49l-116 117l-116 -117l-63 49z" />
    <glyph glyph-name="Scedilla" unicode="&#x15e;" horiz-adv-x="583" 
d="M293 598q-54 0 -81 -21.5t-27 -64.5q0 -26 9.5 -43.5t29.5 -28t51 -16.5l63 -13q69 -13 112.5 -38t64.5 -65t21 -98q0 -97 -58 -155.5t-166 -65.5l-9 -52l6 -2q7 6 18 9.5t24 3.5q31 0 49.5 -17t18.5 -52q0 -32 -16 -51.5t-43 -28.5t-61 -9q-46 0 -73 13.5t-40 29.5
l41 50q10 -11 25 -19t38 -8q20 0 31 6.5t11 21.5t-11.5 24.5t-45.5 11.5l-35 2l13 67q-71 5 -124.5 35t-92.5 78l85 83q33 -41 75.5 -63t93.5 -22q59 0 88.5 26.5t29.5 73.5q0 25 -8.5 43.5t-28.5 30.5t-54 18l-63 12q-66 12 -110 37.5t-65.5 66.5t-21.5 98q0 65 29 110
t82.5 69.5t129.5 24.5q77 0 133 -25.5t96 -76.5l-86 -81q-26 34 -61 52.5t-87 18.5z" />
    <glyph glyph-name="scedilla" unicode="&#x15f;" horiz-adv-x="475" 
d="M247 -210q-46 0 -72.5 13.5t-40.5 29.5l42 50q9 -11 24 -19t38 -8q21 0 32 6.5t11 21.5t-11.5 24.5t-45.5 11.5l-36 2l13 68q-56 5 -99 29t-76 64l76 74q27 -34 60.5 -52.5t75.5 -18.5t62 16t20 46q0 24 -13.5 38t-46.5 19l-51 8q-54 9 -91 28t-55.5 51t-18.5 78
q0 79 51.5 121.5t139.5 42.5q47 0 81.5 -9t62 -27t50.5 -45l-73 -73q-21 25 -51.5 40.5t-66.5 15.5q-38 0 -56.5 -15t-18.5 -43q0 -27 14.5 -40t48.5 -19l52 -8q84 -13 122 -50.5t38 -101.5q0 -73 -47 -118.5t-130 -51.5l-10 -52l6 -2q8 6 18.5 9.5t24.5 3.5q30 0 48.5 -17
t18.5 -52q0 -32 -16 -51.5t-43 -28.5t-61 -9z" />
    <glyph glyph-name="Scaron" unicode="&#x160;" horiz-adv-x="579" 
d="M284 -12q-84 0 -145 30.5t-105 83.5l86 83q32 -41 74.5 -63t94.5 -22q59 0 88.5 26.5t29.5 73.5q0 25 -9 43.5t-28.5 30.5t-53.5 18l-63 12q-67 12 -110.5 37.5t-65 66.5t-21.5 98q0 65 28.5 110t82.5 69.5t130 24.5t132.5 -25.5t96.5 -76.5l-86 -81q-26 34 -61.5 52.5
t-86.5 18.5q-54 0 -81.5 -21.5t-27.5 -64.5q0 -26 9.5 -43.5t30 -28t51.5 -16.5l63 -13q69 -13 112.5 -38t64 -65t20.5 -98q0 -69 -29 -118.5t-85 -76.5t-136 -27zM346 754h-110l-124 156l63 49l116 -117l116 117l63 -49z" />
    <glyph glyph-name="scaron" unicode="&#x161;" horiz-adv-x="475" 
d="M234 -12q-69 0 -119.5 24.5t-88.5 70.5l76 74q27 -34 60.5 -52.5t75.5 -18.5t62 16t20 46q0 24 -13.5 38t-46.5 19l-51 8q-54 9 -91 28t-55.5 51t-18.5 78q0 79 51.5 121.5t139.5 42.5q47 0 81.5 -9t62 -27t50.5 -45l-73 -73q-21 25 -51.5 40.5t-66.5 15.5
q-38 0 -56.5 -15t-18.5 -43q0 -27 14.5 -40t48.5 -19l52 -8q84 -13 122 -50.5t38 -101.5q0 -52 -24.5 -90.5t-70 -59.5t-109.5 -21zM291 588h-110l-124 155l63 49l116 -117l116 117l63 -49z" />
    <glyph glyph-name="uni0162" unicode="&#x162;" horiz-adv-x="552" 
d="M289 -210q-45 0 -72 13.5t-40 29.5l41 50q10 -11 25 -19t38 -8q20 0 31 6.5t11 21.5t-11.5 24.5t-45.5 11.5l-36 2l16 78h-34v585h-187v113h502v-113h-187v-585h-35l-12 -63l7 -2q7 6 18 9.5t24 3.5q31 0 49.5 -17t18.5 -52q0 -32 -16 -51.5t-43.5 -28.5t-61.5 -9z" />
    <glyph glyph-name="uni0163" unicode="&#x163;" horiz-adv-x="354" 
d="M223 -210q-45 0 -72 13.5t-40 29.5l41 50q9 -11 24.5 -19t37.5 -8q21 0 32 6.5t11 21.5t-11.5 24.5t-45.5 11.5l-36 2l22 110l43 -32h-5q-64 0 -96 31.5t-32 93.5v298h-73v99h38q28 0 38 13t10 39v90h112v-142h100v-99h-100v-324h92v-99h-74l-12 -63l7 -2q7 6 17.5 9.5
t24.5 3.5q30 0 48.5 -17t18.5 -52q0 -32 -16 -51.5t-43 -28.5t-61 -9z" />
    <glyph glyph-name="Tcaron" unicode="&#x164;" horiz-adv-x="552" 
d="M527 585h-187v-585h-128v585h-187v113h502v-113zM331 754h-110l-124 156l63 49l116 -117l116 117l63 -49z" />
    <glyph glyph-name="tcaron" unicode="&#x165;" horiz-adv-x="356" 
d="M313 0h-89q-64 0 -96 31.5t-32 93.5v298h-73v99h38q28 0 38 13t10 39v90h112v-142h100v-99h-100v-324h92v-99zM417 779l-59 -206h-78l7 206h130z" />
    <glyph glyph-name="Tbar" unicode="&#x166;" horiz-adv-x="560" 
d="M478 296h-135v-296h-129v296h-135v96h135v193h-187v113h503v-113h-187v-193h135v-96z" />
    <glyph glyph-name="tbar" unicode="&#x167;" horiz-adv-x="363" 
d="M315 99v-99h-89q-65 0 -96.5 31.5t-31.5 93.5v109h-60v82h60v107h-73v99h38q28 0 38 13t10 39v90h112v-142h100v-99h-100v-107h85v-82h-85v-135h92z" />
    <glyph glyph-name="Utilde" unicode="&#x168;" horiz-adv-x="657" 
d="M73 698h127v-441q0 -52 12 -86.5t40.5 -51.5t75.5 -17q48 0 76 17t40.5 51.5t12.5 86.5v441h127v-423q0 -100 -25 -163.5t-81 -93.5t-150 -30t-150 30t-80.5 93.5t-24.5 163.5v423zM401 769q-20 0 -36.5 5.5t-39.5 16.5q-24 12 -40.5 18t-31.5 6q-16 0 -28 -6.5
t-27 -19.5l-45 58q17 26 42.5 42.5t59.5 16.5q21 0 37.5 -6t38.5 -17q24 -11 40.5 -17t31.5 -6q16 0 28 6.5t27 19.5l45 -58q-16 -26 -42 -42.5t-60 -16.5z" />
    <glyph glyph-name="utilde" unicode="&#x169;" horiz-adv-x="560" 
d="M366 0v87h-10q-13 -41 -45 -70t-91 -29q-75 0 -115.5 50.5t-40.5 143.5v340h124v-323q0 -53 20 -80.5t62 -27.5q26 0 47.5 9.5t35 28.5t13.5 46v347h124v-522h-124zM350 605q-20 0 -36.5 6t-39.5 17q-24 12 -40.5 17.5t-31.5 5.5q-16 0 -28 -6.5t-27 -19.5l-45 58
q17 26 42.5 42.5t59.5 16.5q21 0 37.5 -5.5t38.5 -16.5q24 -12 40.5 -18t31.5 -6q16 0 28 6.5t27 19.5l45 -58q-16 -25 -42 -42t-60 -17z" />
    <glyph glyph-name="Umacron" unicode="&#x16a;" horiz-adv-x="657" 
d="M73 698h127v-441q0 -52 12 -86.5t40.5 -51.5t75.5 -17q48 0 76 17t40.5 51.5t12.5 86.5v441h127v-423q0 -100 -25 -163.5t-81 -93.5t-150 -30t-150 30t-80.5 93.5t-24.5 163.5v423zM186 792v92h284v-92h-284z" />
    <glyph glyph-name="umacron" unicode="&#x16b;" horiz-adv-x="560" 
d="M366 0v87h-10q-13 -41 -45 -70t-91 -29q-75 0 -115.5 50.5t-40.5 143.5v340h124v-323q0 -53 20 -80.5t62 -27.5q26 0 47.5 9.5t35 28.5t13.5 46v347h124v-522h-124zM135 628v92h284v-92h-284z" />
    <glyph glyph-name="Ubreve" unicode="&#x16c;" horiz-adv-x="657" 
d="M73 698h127v-441q0 -52 12 -86.5t40.5 -51.5t75.5 -17q48 0 76 17t40.5 51.5t12.5 86.5v441h127v-423q0 -100 -25 -163.5t-81 -93.5t-150 -30t-150 30t-80.5 93.5t-24.5 163.5v423zM328 748q-37 0 -64 11t-47 32t-35 50t-27 64l68 35l20 -36q19 -36 38 -52t47 -16
q29 0 48 16.5t38 51.5l19 36l68 -35q-16 -47 -38 -82.5t-54.5 -55t-80.5 -19.5z" />
    <glyph glyph-name="ubreve" unicode="&#x16d;" horiz-adv-x="560" 
d="M366 0v87h-10q-13 -41 -45 -70t-91 -29q-75 0 -115.5 50.5t-40.5 143.5v340h124v-323q0 -53 20 -80.5t62 -27.5q26 0 47.5 9.5t35 28.5t13.5 46v347h124v-522h-124zM277 584q-37 0 -64 11.5t-47 32t-35 49.5t-27 65l68 35l20 -37q20 -36 38.5 -51.5t46.5 -15.5t47.5 16
t37.5 51l20 37l68 -35q-12 -36 -27 -65t-36 -49.5t-47.5 -32t-62.5 -11.5z" />
    <glyph glyph-name="Uring" unicode="&#x16e;" horiz-adv-x="657" 
d="M73 698h127v-441q0 -52 12 -86.5t40.5 -51.5t75.5 -17q48 0 76 17t40.5 51.5t12.5 86.5v441h127v-423q0 -100 -25 -163.5t-81 -93.5t-150 -30t-150 30t-80.5 93.5t-24.5 163.5v423zM328 727q-40 0 -70.5 17t-48 47.5t-17.5 70.5t17.5 70.5t48 47t70.5 16.5t70.5 -16.5
t48 -47t17.5 -70.5t-17.5 -70.5t-48 -47.5t-70.5 -17zM328 793q25 0 38.5 13t13.5 36v39q0 24 -13.5 36.5t-38.5 12.5t-38.5 -12.5t-13.5 -36.5v-39q0 -23 13.5 -36t38.5 -13z" />
    <glyph glyph-name="uring" unicode="&#x16f;" horiz-adv-x="560" 
d="M366 0v87h-10q-13 -41 -45 -70t-91 -29q-75 0 -115.5 50.5t-40.5 143.5v340h124v-323q0 -53 20 -80.5t62 -27.5q26 0 47.5 9.5t35 28.5t13.5 46v347h124v-522h-124zM277 563q-40 0 -70.5 17t-48 47.5t-17.5 70.5q0 41 17.5 71t48 47t70.5 17t70.5 -17t48 -47t17.5 -71
q0 -40 -17.5 -70.5t-48 -47.5t-70.5 -17zM277 629q25 0 38.5 13t13.5 36v40q0 24 -13.5 36.5t-38.5 12.5t-38.5 -12.5t-13.5 -36.5v-40q0 -23 13.5 -36t38.5 -13z" />
    <glyph glyph-name="Uhungarumlaut" unicode="&#x170;" horiz-adv-x="657" 
d="M73 698h127v-441q0 -52 12 -86.5t40.5 -51.5t75.5 -17q48 0 76 17t40.5 51.5t12.5 86.5v441h127v-423q0 -100 -25 -163.5t-81 -93.5t-150 -30t-150 30t-80.5 93.5t-24.5 163.5v423zM368 917l-122 -172l-69 33l92 188zM552 917l-122 -172l-69 33l92 188z" />
    <glyph glyph-name="uhungarumlaut" unicode="&#x171;" horiz-adv-x="560" 
d="M366 0v87h-10q-13 -41 -45 -70t-91 -29q-75 0 -115.5 50.5t-40.5 143.5v340h124v-323q0 -53 20 -80.5t62 -27.5q26 0 47.5 9.5t35 28.5t13.5 46v347h124v-522h-124zM317 753l-122 -172l-69 33l92 188zM501 753l-122 -172l-69 33l92 188z" />
    <glyph glyph-name="Uogonek" unicode="&#x172;" horiz-adv-x="657" 
d="M73 698h127v-441q0 -52 12 -86.5t40.5 -51.5t75.5 -17q48 0 76 17t40.5 51.5t12.5 86.5v441h127v-423q0 -63 -9.5 -111t-32 -85.5t-61.5 -69.5q-35 -30 -58.5 -51t-35.5 -37t-12 -33q0 -15 9.5 -23.5t25.5 -8.5t28.5 7.5t21.5 18.5l46 -45q-15 -21 -42.5 -34.5
t-64.5 -13.5q-49 0 -80 19.5t-31 58.5q0 25 13 45t39.5 39t63.5 38l-2 7q-17 -4 -35.5 -6t-38.5 -2q-94 0 -150 30t-80.5 93.5t-24.5 163.5v423z" />
    <glyph glyph-name="uogonek" unicode="&#x173;" horiz-adv-x="560" 
d="M490 522v-522q-42 -28 -65 -47.5t-31.5 -34t-8.5 -29.5q0 -17 10 -25t25 -8q17 0 29.5 7.5t21.5 18.5l45 -45q-14 -21 -41.5 -34.5t-65.5 -13.5q-32 0 -57 8.5t-39.5 26.5t-14.5 46q0 40 33 70t87 54v6h-52v87h-10q-13 -41 -45 -70t-91 -29q-75 0 -115.5 50.5
t-40.5 143.5v340h124v-323q0 -53 20 -80.5t62 -27.5q26 0 47.5 9.5t35 28.5t13.5 46v347h124z" />
    <glyph glyph-name="Wcircumflex" unicode="&#x174;" horiz-adv-x="905" 
d="M326 0h-148l-153 698h128l72 -370l32 -186h8l35 184l82 372h144l83 -372l35 -184h8l32 186l72 370h124l-159 -698h-146l-88 393l-31 167h-9l-32 -167zM398 950h110l124 -156l-63 -49l-116 117l-116 -117l-63 49z" />
    <glyph glyph-name="wcircumflex" unicode="&#x175;" horiz-adv-x="779" 
d="M155 0l-136 522h122l51 -229l33 -174h8l39 174l60 229h119l61 -229l40 -174h7l33 174l53 229h115l-134 -522h-138l-63 242l-32 149h-7l-32 -149l-63 -242h-136zM335 787h110l124 -156l-63 -49l-116 117l-116 -117l-63 49z" />
    <glyph glyph-name="Ycircumflex" unicode="&#x176;" horiz-adv-x="599" 
d="M364 0h-129v270l-227 428h143l148 -297h8l144 297h140l-227 -427v-271zM245 950h110l124 -156l-63 -49l-116 117l-116 -117l-63 49z" />
    <glyph glyph-name="ycircumflex" unicode="&#x177;" horiz-adv-x="503" 
d="M290 244l84 278h120l-205 -623q-11 -36 -29 -58t-45 -31.5t-67 -9.5h-80v99h98l23 74l-181 549h126l84 -279l31 -134h9zM198 787h110l124 -156l-63 -49l-116 117l-116 -117l-63 49z" />
    <glyph glyph-name="Ydieresis" unicode="&#x178;" horiz-adv-x="599" 
d="M364 0h-129v270l-227 428h143l148 -297h8l144 297h140l-227 -427v-271zM201 771q-38 0 -53.5 15.5t-15.5 39.5v24q0 24 15.5 39.5t53.5 15.5t53.5 -15.5t15.5 -39.5v-24q0 -24 -15.5 -39.5t-53.5 -15.5zM399 771q-38 0 -53.5 15.5t-15.5 39.5v24q0 24 15.5 39.5
t53.5 15.5t53.5 -15.5t15.5 -39.5v-24q0 -24 -15.5 -39.5t-53.5 -15.5z" />
    <glyph glyph-name="Zacute" unicode="&#x179;" horiz-adv-x="569" 
d="M533 113v-113h-497v114l341 471h-324v113h471v-114l-342 -471h351zM422 916l-123 -172l-75 37l91 188z" />
    <glyph glyph-name="zacute" unicode="&#x17a;" horiz-adv-x="477" 
d="M442 0h-406v98l255 325h-247v99h391v-97l-258 -326h265v-99zM375 753l-123 -172l-75 36l91 188z" />
    <glyph glyph-name="Zdotaccent" unicode="&#x17b;" horiz-adv-x="569" 
d="M533 113v-113h-497v114l341 471h-324v113h471v-114l-342 -471h351zM286 767q-40 0 -56.5 16.5t-16.5 42.5v24q0 26 16.5 42.5t56.5 16.5t56.5 -16.5t16.5 -42.5v-24q0 -26 -16.5 -42.5t-56.5 -16.5z" />
    <glyph glyph-name="zdotaccent" unicode="&#x17c;" horiz-adv-x="477" 
d="M442 0h-406v98l255 325h-247v99h391v-97l-258 -326h265v-99zM239 603q-39 0 -56 16t-17 42v23q0 26 17 42.5t56 16.5q40 0 56.5 -16.5t16.5 -42.5v-23q0 -26 -16.5 -42t-56.5 -16z" />
    <glyph glyph-name="Zcaron" unicode="&#x17d;" horiz-adv-x="569" 
d="M533 113v-113h-497v114l341 471h-324v113h471v-114l-342 -471h351zM341 754h-110l-124 156l63 49l116 -117l116 117l63 -49z" />
    <glyph glyph-name="zcaron" unicode="&#x17e;" horiz-adv-x="477" 
d="M442 0h-406v98l255 325h-247v99h391v-97l-258 -326h265v-99zM294 588h-110l-124 155l63 49l116 -117l116 117l63 -49z" />
    <glyph glyph-name="uni017F" unicode="&#x17f;" horiz-adv-x="289" 
d="M95 0v423h-72v99h72v78q0 70 34.5 105t102.5 35h89v-99h-101v-641h-125z" />
    <glyph glyph-name="uni018F" unicode="&#x18f;" horiz-adv-x="677" 
d="M49 388h442v21q0 94 -39 141t-113 47q-64 0 -100 -31t-52 -89l-114 42q18 56 52.5 98.5t88 67.5t126.5 25q88 0 153 -39t100 -119t35 -203q0 -122 -35.5 -202.5t-100.5 -119.5t-154 -39q-88 0 -153 39t-100.5 119t-35.5 203v39zM187 284v-8q0 -53 17 -92.5t51 -61
t83 -21.5q51 0 84.5 21t50.5 60.5t17 93.5v8h-303z" />
    <glyph glyph-name="florin" unicode="&#x192;" horiz-adv-x="460" 
d="M3 -134l10 99h116l29 304h-109l11 103h108l19 194q6 62 41.5 97t105.5 35h112l-11 -99h-121l-21 -227h129l-10 -103h-130l-26 -272q-6 -61 -40.5 -96t-105.5 -35h-107z" />
    <glyph glyph-name="Ohorn" unicode="&#x1a0;" horiz-adv-x="677" 
d="M542 805h104v-102q0 -43 -17.5 -63.5t-67.5 -20.5h-56v-7q43 -17 69.5 -52t39.5 -87.5t13 -123.5q0 -123 -35.5 -203t-100.5 -119t-153 -39q-87 0 -152 39t-101 119t-36 203q0 124 36 203.5t101 118.5t152 39q25 0 48 -3t43 -9h113v107zM338 102q48 0 82 20.5t52.5 60.5
t18.5 96v140q0 57 -18.5 96.5t-52.5 60t-82 20.5q-47 0 -81 -20.5t-52.5 -60t-18.5 -96.5v-140q0 -56 18.5 -96t52.5 -60.5t81 -20.5z" />
    <glyph glyph-name="ohorn" unicode="&#x1a1;" horiz-adv-x="535" 
d="M418 629h104v-104q0 -34 -17.5 -54t-56.5 -20h-40v-7q33 -12 52.5 -39.5t28.5 -64.5t9 -78q0 -88 -27.5 -149.5t-79.5 -93t-124 -31.5q-71 0 -123 31.5t-79.5 93t-27.5 149.5q0 89 27.5 149.5t79.5 91.5t123 31q23 0 43.5 -3t38.5 -9h69v107zM267 89q48 0 74.5 29
t26.5 85v116q0 57 -26.5 85.5t-74.5 28.5q-47 0 -73.5 -28.5t-26.5 -85.5v-116q0 -56 26.5 -85t73.5 -29z" />
    <glyph glyph-name="Uhorn" unicode="&#x1af;" horiz-adv-x="662" 
d="M73 698h127v-441q0 -52 12 -86.5t40.5 -51.5t75.5 -17q48 0 76 17t40.5 51.5t12.5 86.5v441h92v107h104v-100q0 -31 -8 -49t-25 -25.5t-46 -7.5h-20l30 31v-379q0 -100 -25 -163.5t-81 -93.5t-150 -30t-150 30t-80.5 93.5t-24.5 163.5v423z" />
    <glyph glyph-name="uhorn" unicode="&#x1b0;" horiz-adv-x="565" 
d="M490 0h-124v87h-10q-13 -41 -45 -70t-91 -29q-75 0 -115.5 50.5t-40.5 143.5v340h124v-323q0 -53 20 -80.5t62 -27.5q26 0 47.5 9.5t35 28.5t13.5 46v347h94v107h104v-100q0 -30 -7.5 -48t-24.5 -26.5t-47 -8.5h-25l30 30v-476z" />
    <glyph glyph-name="uni01CD" unicode="&#x1cd;" horiz-adv-x="639" 
d="M619 0h-131l-52 180h-236l-52 -180h-127l219 698h161zM405 287l-55 184l-28 111h-10l-27 -111l-54 -184h174zM374 754h-110l-124 156l63 49l116 -117l116 117l63 -49z" />
    <glyph glyph-name="uni01CE" unicode="&#x1ce;" horiz-adv-x="532" 
d="M504 0h-72q-27 0 -47.5 11.5t-32.5 35.5t-12 61v13l28 -32h-36q-11 -48 -49 -74.5t-93 -26.5q-76 0 -115.5 41.5t-39.5 111.5q0 54 24.5 89.5t72 53.5t114.5 18h84v42q0 44 -21 67.5t-69 23.5q-41 0 -67.5 -19t-44.5 -48l-74 66q29 45 75.5 72.5t120.5 27.5
q101 0 153 -47.5t52 -137.5v-250h49v-99zM330 226h-77q-47 0 -69.5 -16.5t-22.5 -48.5v-19q0 -32 19.5 -47.5t53.5 -15.5q27 0 48.5 9t34.5 27t13 42v69zM306 588h-110l-124 155l63 49l116 -117l116 117l63 -49z" />
    <glyph glyph-name="uni01CF" unicode="&#x1cf;" horiz-adv-x="405" 
d="M354 0h-304v103h88v492h-88v103h304v-103h-88v-492h88v-103zM257 754h-110l-124 156l63 49l116 -117l116 117l63 -49z" />
    <glyph glyph-name="uni01D0" unicode="&#x1d0;" horiz-adv-x="264" 
d="M194 0h-124v522h124v-522zM187 588h-110l-116 155l62 49l109 -117l109 117l62 -49z" />
    <glyph glyph-name="uni01D1" unicode="&#x1d1;" horiz-adv-x="677" 
d="M338 -12q-87 0 -152 39t-101 119t-36 203q0 124 36 203.5t101 118.5t152 39q88 0 153 -39t100.5 -118.5t35.5 -203.5q0 -123 -35.5 -203t-100.5 -119t-153 -39zM338 102q48 0 82 20.5t52.5 60.5t18.5 96v140q0 57 -18.5 96.5t-52.5 60t-82 20.5q-47 0 -81 -20.5
t-52.5 -60t-18.5 -96.5v-140q0 -56 18.5 -96t52.5 -60.5t81 -20.5zM393 754h-110l-124 156l63 49l116 -117l116 117l63 -49z" />
    <glyph glyph-name="uni01D2" unicode="&#x1d2;" horiz-adv-x="535" 
d="M267 -12q-71 0 -123 31.5t-79.5 92.5t-27.5 149q0 89 27.5 150t79.5 92t123 31q72 0 124 -31t79.5 -92t27.5 -150q0 -88 -27.5 -149t-79.5 -92.5t-124 -31.5zM267 89q48 0 74.5 29t26.5 85v116q0 57 -26.5 85.5t-74.5 28.5q-47 0 -73.5 -28.5t-26.5 -85.5v-116
q0 -56 26.5 -85t73.5 -29zM322 588h-110l-124 155l63 49l116 -117l116 117l63 -49z" />
    <glyph glyph-name="uni01D3" unicode="&#x1d3;" horiz-adv-x="657" 
d="M73 698h127v-441q0 -52 12 -86.5t40.5 -51.5t75.5 -17q48 0 76 17t40.5 51.5t12.5 86.5v441h127v-423q0 -100 -25 -163.5t-81 -93.5t-150 -30t-150 30t-80.5 93.5t-24.5 163.5v423zM383 754h-110l-124 156l63 49l116 -117l116 117l63 -49z" />
    <glyph glyph-name="uni01D4" unicode="&#x1d4;" horiz-adv-x="560" 
d="M366 0v87h-10q-13 -41 -45 -70t-91 -29q-75 0 -115.5 50.5t-40.5 143.5v340h124v-323q0 -53 20 -80.5t62 -27.5q26 0 47.5 9.5t35 28.5t13.5 46v347h124v-522h-124zM332 588h-110l-124 155l63 49l116 -117l116 117l63 -49z" />
    <glyph glyph-name="uni01D5" unicode="&#x1d5;" horiz-adv-x="657" 
d="M73 698h127v-441q0 -52 12 -86.5t40.5 -51.5t75.5 -17q48 0 76 17t40.5 51.5t12.5 86.5v441h127v-423q0 -100 -25 -163.5t-81 -93.5t-150 -30t-150 30t-80.5 93.5t-24.5 163.5v423zM186 939v92h284v-92h-284zM228 754q-38 0 -53.5 15t-15.5 40v24q0 24 15.5 39.5
t53.5 15.5q37 0 52.5 -15.5t15.5 -39.5v-24q0 -25 -15.5 -40t-52.5 -15zM429 754q-38 0 -53.5 15t-15.5 40v24q0 24 15.5 39.5t53.5 15.5q37 0 52.5 -15.5t15.5 -39.5v-24q0 -25 -15.5 -40t-52.5 -15z" />
    <glyph glyph-name="uni01D6" unicode="&#x1d6;" horiz-adv-x="560" 
d="M366 0v87h-10q-13 -41 -45 -70t-91 -29q-75 0 -115.5 50.5t-40.5 143.5v340h124v-323q0 -53 20 -80.5t62 -27.5q26 0 47.5 9.5t35 28.5t13.5 46v347h124v-522h-124zM135 775v92h284v-92h-284zM177 590q-38 0 -53.5 15.5t-15.5 39.5v24q0 25 15.5 40t53.5 15
q37 0 52.5 -15t15.5 -40v-24q0 -24 -15.5 -39.5t-52.5 -15.5zM377 590q-37 0 -52.5 15.5t-15.5 39.5v24q0 25 15.5 40t52.5 15q38 0 53.5 -15t15.5 -40v-24q0 -24 -15.5 -39.5t-53.5 -15.5z" />
    <glyph glyph-name="uni01D7" unicode="&#x1d7;" horiz-adv-x="657" 
d="M73 698h127v-441q0 -52 12 -86.5t40.5 -51.5t75.5 -17q48 0 76 17t40.5 51.5t12.5 86.5v441h127v-423q0 -100 -25 -163.5t-81 -93.5t-150 -30t-150 30t-80.5 93.5t-24.5 163.5v423zM459 1057l-120 -171l-67 35l89 187zM228 754q-38 0 -53.5 15t-15.5 40v24
q0 24 15.5 39.5t53.5 15.5q37 0 52.5 -15.5t15.5 -39.5v-24q0 -25 -15.5 -40t-52.5 -15zM429 754q-38 0 -53.5 15t-15.5 40v24q0 24 15.5 39.5t53.5 15.5q37 0 52.5 -15.5t15.5 -39.5v-24q0 -25 -15.5 -40t-52.5 -15z" />
    <glyph glyph-name="uni01D8" unicode="&#x1d8;" horiz-adv-x="560" 
d="M366 0v87h-10q-13 -41 -45 -70t-91 -29q-75 0 -115.5 50.5t-40.5 143.5v340h124v-323q0 -53 20 -80.5t62 -27.5q26 0 47.5 9.5t35 28.5t13.5 46v347h124v-522h-124zM408 894l-120 -171l-67 34l89 187zM177 590q-38 0 -53.5 15.5t-15.5 39.5v24q0 25 15.5 40t53.5 15
q37 0 52.5 -15t15.5 -40v-24q0 -24 -15.5 -39.5t-52.5 -15.5zM377 590q-37 0 -52.5 15.5t-15.5 39.5v24q0 25 15.5 40t52.5 15q38 0 53.5 -15t15.5 -40v-24q0 -24 -15.5 -39.5t-53.5 -15.5z" />
    <glyph glyph-name="uni01D9" unicode="&#x1d9;" horiz-adv-x="657" 
d="M73 698h127v-441q0 -52 12 -86.5t40.5 -51.5t75.5 -17q48 0 76 17t40.5 51.5t12.5 86.5v441h127v-423q0 -100 -25 -163.5t-81 -93.5t-150 -30t-150 30t-80.5 93.5t-24.5 163.5v423zM378 911h-99l-130 146l58 51l121 -111l121 111l59 -51zM228 754q-38 0 -53.5 15
t-15.5 40v24q0 24 15.5 39.5t53.5 15.5q37 0 52.5 -15.5t15.5 -39.5v-24q0 -25 -15.5 -40t-52.5 -15zM429 754q-38 0 -53.5 15t-15.5 40v24q0 24 15.5 39.5t53.5 15.5q37 0 52.5 -15.5t15.5 -39.5v-24q0 -25 -15.5 -40t-52.5 -15z" />
    <glyph glyph-name="uni01DA" unicode="&#x1da;" horiz-adv-x="560" 
d="M366 0v87h-10q-13 -41 -45 -70t-91 -29q-75 0 -115.5 50.5t-40.5 143.5v340h124v-323q0 -53 20 -80.5t62 -27.5q26 0 47.5 9.5t35 28.5t13.5 46v347h124v-522h-124zM327 748h-99l-130 145l58 52l121 -112l121 112l59 -52zM177 590q-38 0 -53.5 15.5t-15.5 39.5v24
q0 25 15.5 40t53.5 15q37 0 52.5 -15t15.5 -40v-24q0 -24 -15.5 -39.5t-52.5 -15.5zM377 590q-37 0 -52.5 15.5t-15.5 39.5v24q0 25 15.5 40t52.5 15q38 0 53.5 -15t15.5 -40v-24q0 -24 -15.5 -39.5t-53.5 -15.5z" />
    <glyph glyph-name="uni01DB" unicode="&#x1db;" horiz-adv-x="657" 
d="M73 698h127v-441q0 -52 12 -86.5t40.5 -51.5t75.5 -17q48 0 76 17t40.5 51.5t12.5 86.5v441h127v-423q0 -100 -25 -163.5t-81 -93.5t-150 -30t-150 30t-80.5 93.5t-24.5 163.5v423zM317 886l-120 171l98 51l89 -187zM228 754q-38 0 -53.5 15t-15.5 40v24q0 24 15.5 39.5
t53.5 15.5q37 0 52.5 -15.5t15.5 -39.5v-24q0 -25 -15.5 -40t-52.5 -15zM429 754q-38 0 -53.5 15t-15.5 40v24q0 24 15.5 39.5t53.5 15.5q37 0 52.5 -15.5t15.5 -39.5v-24q0 -25 -15.5 -40t-52.5 -15z" />
    <glyph glyph-name="uni01DC" unicode="&#x1dc;" horiz-adv-x="560" 
d="M366 0v87h-10q-13 -41 -45 -70t-91 -29q-75 0 -115.5 50.5t-40.5 143.5v340h124v-323q0 -53 20 -80.5t62 -27.5q26 0 47.5 9.5t35 28.5t13.5 46v347h124v-522h-124zM266 723l-120 171l98 50l89 -187zM177 590q-38 0 -53.5 15.5t-15.5 39.5v24q0 25 15.5 40t53.5 15
q37 0 52.5 -15t15.5 -40v-24q0 -24 -15.5 -39.5t-52.5 -15.5zM377 590q-37 0 -52.5 15.5t-15.5 39.5v24q0 25 15.5 40t52.5 15q38 0 53.5 -15t15.5 -40v-24q0 -24 -15.5 -39.5t-53.5 -15.5z" />
    <glyph glyph-name="Aringacute" unicode="&#x1fa;" horiz-adv-x="639" 
d="M619 0h-131l-52 180h-236l-52 -180h-127l219 698h161zM405 287l-55 184l-28 111h-10l-27 -111l-54 -184h174zM447 1079l-133 -100l-48 43l112 120zM319 728q-61 0 -99 32t-38 87t38 86.5t99 31.5t99 -31.5t38 -86.5t-38 -87t-99 -32zM319 790q25 0 40 12t15 35v20
q0 23 -15 34.5t-40 11.5t-40 -11.5t-15 -34.5v-20q0 -23 15 -35t40 -12z" />
    <glyph glyph-name="aringacute" unicode="&#x1fb;" horiz-adv-x="532" 
d="M504 0h-72q-27 0 -47.5 11.5t-32.5 35.5t-12 61v13l28 -32h-36q-11 -48 -49 -74.5t-93 -26.5q-76 0 -115.5 41.5t-39.5 111.5q0 54 24.5 89.5t72 53.5t114.5 18h84v42q0 44 -21 67.5t-69 23.5q-41 0 -67.5 -19t-44.5 -48l-74 66q29 45 75.5 72.5t120.5 27.5
q101 0 153 -47.5t52 -137.5v-250h49v-99zM330 226h-77q-47 0 -69.5 -16.5t-22.5 -48.5v-19q0 -32 19.5 -47.5t53.5 -15.5q27 0 48.5 9t34.5 27t13 42v69zM378 915l-133 -100l-46 44l112 120zM251 565q-61 0 -99 31.5t-38 86.5q0 56 38 87.5t99 31.5t99 -31.5t38 -87.5
q0 -55 -38 -86.5t-99 -31.5zM251 627q25 0 40 12t15 34v20q0 23 -15 35t-40 12t-40 -12t-15 -35v-20q0 -22 15 -34t40 -12z" />
    <glyph glyph-name="AEacute" unicode="&#x1fc;" horiz-adv-x="904" 
d="M410 0v180h-199l-81 -180h-129l325 698h524v-113h-312v-176h274v-112h-274v-184h312v-113h-440zM410 585h-17l-135 -299h152v299zM715 916l-123 -172l-75 37l91 188z" />
    <glyph glyph-name="aeacute" unicode="&#x1fd;" horiz-adv-x="823" 
d="M333 229h-80q-45 0 -68.5 -17.5t-23.5 -49.5v-18q0 -33 19 -49t55 -16q26 0 48.5 9t36 27t13.5 42v72zM459 306h198v19q0 36 -11 61.5t-32.5 39.5t-52.5 14q-32 0 -55 -14t-35 -40t-12 -62v-18zM578 89q45 0 75.5 19.5t52.5 51.5l67 -74q-31 -44 -81.5 -71t-119.5 -27
q-45 0 -84 14t-65.5 38.5t-36.5 54.5h-10q-8 -29 -31.5 -53t-61 -39t-90.5 -15q-76 0 -117 42t-41 112q0 55 25.5 91t72.5 54.5t113 18.5h87v37q0 45 -22.5 68.5t-70.5 23.5q-41 0 -67.5 -19t-44.5 -48l-74 66q28 45 74.5 72.5t117.5 27.5q36 0 65.5 -11t50.5 -32.5
t31 -52.5h9q10 29 33 51t57 33.5t74 11.5q74 0 123 -32.5t73.5 -93t24.5 -143.5v-36h-329v-22q0 -54 32 -86t88 -32zM545 753l-123 -172l-75 36l91 188z" />
    <glyph glyph-name="Oslashacute" unicode="&#x1fe;" horiz-adv-x="677" 
d="M338 -12q-43 0 -80.5 9.5t-69.5 28.5l-50 -78l-79 51l58 91q-33 44 -50.5 109t-17.5 150q0 124 36 203.5t101 118.5t152 39q43 0 81 -9.5t69 -28.5l50 78l80 -51l-59 -90q33 -45 50.5 -109.5t17.5 -150.5q0 -123 -35.5 -203t-100.5 -119t-153 -39zM338 604
q-49 0 -84.5 -21.5t-54.5 -62t-19 -98.5v-127q-1 -25 1 -53.5t5 -49.5h9l140 229l98 155q-19 14 -42.5 21t-52.5 7zM338 94q50 0 85 21.5t54 62t19 98.5v130q1 26 -0.5 52.5t-5.5 47.5h-8l-141 -229l-97 -154q19 -14 42.5 -21.5t51.5 -7.5zM474 916l-123 -172l-75 37l91 188
z" />
    <glyph glyph-name="oslashacute" unicode="&#x1ff;" horiz-adv-x="541" 
d="M84 -46l-66 51l62 80q-20 33 -30.5 77t-10.5 99q0 89 27.5 150t79.5 92t123 31q39 0 71.5 -9t58.5 -27l56 70l66 -51l-62 -80q20 -33 30.5 -77.5t10.5 -98.5q0 -88 -27.5 -149t-79.5 -92.5t-124 -31.5q-37 0 -70 9t-59 27zM269 83q50 0 77.5 31t27.5 89v56q1 14 1.5 27
t1 25.5t0.5 26.5h-7l-91 -123l-81 -107q13 -12 31 -18.5t40 -6.5zM269 439q-49 0 -76.5 -30.5t-27.5 -88.5v-56q0 -14 -1 -27t-1 -25.5t-1 -26.5h7l91 123l81 106q-13 12 -31 18.5t-41 6.5zM406 753l-123 -172l-75 36l91 188z" />
    <glyph glyph-name="Scommaaccent" unicode="&#x218;" horiz-adv-x="579" 
d="M284 -12q-84 0 -145 30.5t-105 83.5l86 83q32 -41 74.5 -63t94.5 -22q59 0 88.5 26.5t29.5 73.5q0 25 -9 43.5t-28.5 30.5t-53.5 18l-63 12q-67 12 -110.5 37.5t-65 66.5t-21.5 98q0 65 28.5 110t82.5 69.5t130 24.5t132.5 -25.5t96.5 -76.5l-86 -81q-26 34 -61.5 52.5
t-86.5 18.5q-54 0 -81.5 -21.5t-27.5 -64.5q0 -26 9.5 -43.5t30 -28t51.5 -16.5l63 -13q69 -13 112.5 -38t64 -65t20.5 -98q0 -69 -29 -118.5t-85 -76.5t-136 -27zM285 -49q31 0 48 -14t17 -42v-16q0 -43 -19 -82t-46 -63h-76q24 22 38 43.5t20 48.5q-25 3 -35.5 17.5
t-10.5 36.5v15q0 28 17 42t47 14z" />
    <glyph glyph-name="scommaaccent" unicode="&#x219;" horiz-adv-x="475" 
d="M234 -12q-69 0 -119.5 24.5t-88.5 70.5l76 74q27 -34 60.5 -52.5t75.5 -18.5t62 16t20 46q0 24 -13.5 38t-46.5 19l-51 8q-54 9 -91 28t-55.5 51t-18.5 78q0 79 51.5 121.5t139.5 42.5q47 0 81.5 -9t62 -27t50.5 -45l-73 -73q-21 25 -51.5 40.5t-66.5 15.5
q-38 0 -56.5 -15t-18.5 -43q0 -27 14.5 -40t48.5 -19l52 -8q84 -13 122 -50.5t38 -101.5q0 -52 -24.5 -90.5t-70 -59.5t-109.5 -21zM235 -49q31 0 48 -14t17 -42v-16q0 -43 -19 -82t-46 -63h-76q24 22 38 43.5t20 48.5q-25 3 -35.5 17.5t-10.5 36.5v15q0 28 17 42t47 14z
" />
    <glyph glyph-name="uni021A" unicode="&#x21a;" horiz-adv-x="552" 
d="M527 585h-187v-585h-128v585h-187v113h502v-113zM275 -49q31 0 48 -14t17 -42v-16q0 -43 -19 -82t-46 -63h-76q24 22 38 43.5t20 48.5q-25 3 -35.5 17.5t-10.5 36.5v15q0 28 17 42t47 14z" />
    <glyph glyph-name="uni021B" unicode="&#x21b;" horiz-adv-x="354" 
d="M313 0h-89q-64 0 -96 31.5t-32 93.5v298h-73v99h38q28 0 38 13t10 39v90h112v-142h100v-99h-100v-324h92v-99zM209 -49q31 0 48 -14t17 -42v-16q0 -43 -19 -82t-46 -63h-76q24 22 38 43.5t20 48.5q-25 3 -35.5 17.5t-10.5 36.5v15q0 28 17 42t47 14z" />
    <glyph glyph-name="uni0237" unicode="&#x237;" horiz-adv-x="265" 
d="M-5 -200v99h76v623h125v-593q0 -63 -31.5 -96t-100.5 -33h-69z" />
    <glyph glyph-name="uni0259" unicode="&#x259;" horiz-adv-x="531" 
d="M37 292h328v23q0 55 -30 87t-87 32q-46 0 -76 -20t-50 -51l-68 73q31 45 83 71.5t122 26.5q72 0 125 -31.5t82 -92.5t29 -149t-27.5 -149t-79 -92.5t-124.5 -31.5q-76 0 -126.5 33t-75.5 93t-25 142v36zM167 215v-18q0 -36 10.5 -61.5t32.5 -39t53 -13.5q32 0 55 14
t35 39.5t12 61.5v17h-198z" />
    <glyph glyph-name="uni02BB" unicode="&#x2bb;" 
d="M286 582q-31 0 -48 14t-17 41v16q0 44 19 82.5t46 63.5h75q-23 -22 -36.5 -43.5t-21.5 -49.5q26 -2 36.5 -16.5t10.5 -37.5v-15q0 -27 -17 -41t-47 -14z" />
    <glyph glyph-name="uni02BC" unicode="&#x2bc;" 
d="M365 740l-59 -206h-78l7 206h130z" />
    <glyph glyph-name="circumflex" unicode="&#x2c6;" 
d="M230 787h110l124 -156l-63 -49l-116 117l-116 -117l-63 49z" />
    <glyph glyph-name="caron" unicode="&#x2c7;" 
d="M340 588h-110l-124 155l63 49l116 -117l116 117l63 -49z" />
    <glyph glyph-name="breve" unicode="&#x2d8;" 
d="M285 584q-37 0 -64 11.5t-47 32t-35 49.5t-27 65l68 35l20 -37q20 -36 38.5 -51.5t46.5 -15.5t47.5 16t37.5 51l20 37l68 -35q-12 -36 -27 -65t-36 -49.5t-47.5 -32t-62.5 -11.5z" />
    <glyph glyph-name="dotaccent" unicode="&#x2d9;" 
d="M285 603q-39 0 -56 16t-17 42v23q0 26 17 42.5t56 16.5q40 0 56.5 -16.5t16.5 -42.5v-23q0 -26 -16.5 -42t-56.5 -16z" />
    <glyph glyph-name="ring" unicode="&#x2da;" 
d="M285 563q-40 0 -70.5 17t-48 47.5t-17.5 70.5q0 41 17.5 71t48 47t70.5 17t70.5 -17t48 -47t17.5 -71q0 -40 -17.5 -70.5t-48 -47.5t-70.5 -17zM285 629q25 0 38.5 13t13.5 36v40q0 24 -13.5 36.5t-38.5 12.5t-38.5 -12.5t-13.5 -36.5v-40q0 -23 13.5 -36t38.5 -13z" />
    <glyph glyph-name="ogonek" unicode="&#x2db;" 
d="M208 -211q-32 0 -57 8.5t-39.5 26.5t-14.5 46q0 40 31.5 70t83.5 55l-3 27h71l9 -22q-42 -28 -65 -47.5t-31.5 -34t-8.5 -29.5q0 -17 10 -25t25 -8q17 0 29.5 7.5t21.5 18.5l45 -45q-14 -21 -41.5 -34.5t-65.5 -13.5z" />
    <glyph glyph-name="tilde" unicode="&#x2dc;" 
d="M358 605q-20 0 -36.5 6t-39.5 17q-24 12 -40.5 17.5t-31.5 5.5q-16 0 -28 -6.5t-27 -19.5l-45 58q17 26 42.5 42.5t59.5 16.5q21 0 37.5 -5.5t38.5 -16.5q24 -12 40.5 -18t31.5 -6q16 0 28 6.5t27 19.5l45 -58q-16 -25 -42 -42t-60 -17z" />
    <glyph glyph-name="hungarumlaut" unicode="&#x2dd;" 
d="M325 753l-122 -172l-69 33l92 188zM509 753l-122 -172l-69 33l92 188z" />
    <glyph glyph-name="uni0300" unicode="&#x300;" horiz-adv-x="0" 
d="M-13 581l-123 172l107 52l91 -188z" />
    <glyph glyph-name="uni0301" unicode="&#x301;" horiz-adv-x="0" 
d="M136 753l-123 -172l-75 36l91 188z" />
    <glyph glyph-name="uni0302" unicode="&#x302;" horiz-adv-x="0" 
d="M-55 787h110l124 -156l-63 -49l-116 117l-116 -117l-63 49z" />
    <glyph glyph-name="uni0303" unicode="&#x303;" horiz-adv-x="0" 
d="M73 605q-20 0 -36.5 6t-39.5 17q-24 12 -40.5 17.5t-31.5 5.5q-16 0 -28 -6.5t-27 -19.5l-45 58q17 26 42.5 42.5t59.5 16.5q21 0 37.5 -5.5t38.5 -16.5q24 -12 40.5 -18t31.5 -6q16 0 28 6.5t27 19.5l45 -58q-16 -25 -42 -42t-60 -17z" />
    <glyph glyph-name="uni0304" unicode="&#x304;" horiz-adv-x="0" 
d="M-142 628v92h284v-92h-284z" />
    <glyph glyph-name="uni0306" unicode="&#x306;" horiz-adv-x="0" 
d="M0 584q-37 0 -64 11.5t-47 32t-35 49.5t-27 65l68 35l20 -37q20 -36 38.5 -51.5t46.5 -15.5t47.5 16t37.5 51l20 37l68 -35q-12 -36 -27 -65t-36 -49.5t-47.5 -32t-62.5 -11.5z" />
    <glyph glyph-name="uni0307" unicode="&#x307;" horiz-adv-x="0" 
d="M0 603q-39 0 -56 16t-17 42v23q0 26 17 42.5t56 16.5q40 0 56.5 -16.5t16.5 -42.5v-23q0 -26 -16.5 -42t-56.5 -16z" />
    <glyph glyph-name="uni0308" unicode="&#x308;" horiz-adv-x="0" 
d="M-99 606q-38 0 -53.5 15.5t-15.5 40.5v23q0 25 15.5 40t53.5 15t53.5 -15t15.5 -40v-23q0 -25 -15.5 -40.5t-53.5 -15.5zM99 606q-38 0 -53.5 15.5t-15.5 40.5v23q0 25 15.5 40t53.5 15t53.5 -15t15.5 -40v-23q0 -25 -15.5 -40.5t-53.5 -15.5z" />
    <glyph glyph-name="uni0309" unicode="&#x309;" horiz-adv-x="0" 
d="M-106 700v91h132q47 0 66 -18.5t19 -48.5q0 -27 -12 -53t-35 -56l-33 -44l-65 31l45 98h-117z" />
    <glyph glyph-name="uni030A" unicode="&#x30a;" horiz-adv-x="0" 
d="M0 563q-40 0 -70.5 17t-48 47.5t-17.5 70.5q0 41 17.5 71t48 47t70.5 17t70.5 -17t48 -47t17.5 -71q0 -40 -17.5 -70.5t-48 -47.5t-70.5 -17zM0 629q25 0 38.5 13t13.5 36v40q0 24 -13.5 36.5t-38.5 12.5t-38.5 -12.5t-13.5 -36.5v-40q0 -23 13.5 -36t38.5 -13z" />
    <glyph glyph-name="uni030B" unicode="&#x30b;" horiz-adv-x="0" 
d="M40 753l-122 -172l-69 33l92 188zM224 753l-122 -172l-69 33l92 188z" />
    <glyph glyph-name="uni030C" unicode="&#x30c;" horiz-adv-x="0" 
d="M55 588h-110l-124 155l63 49l116 -117l116 117l63 -49z" />
    <glyph glyph-name="uni0312" unicode="&#x312;" horiz-adv-x="0" 
d="M1 582q-31 0 -48 14t-17 41v16q0 44 19 82.5t46 63.5h75q-23 -22 -36.5 -43.5t-21.5 -49.5q26 -2 36.5 -16.5t10.5 -37.5v-15q0 -27 -17 -41t-47 -14z" />
    <glyph glyph-name="uni0315" unicode="&#x315;" horiz-adv-x="0" 
d="M137 740l-59 -206h-78l7 206h130z" />
    <glyph glyph-name="uni031B" unicode="&#x31b;" horiz-adv-x="0" 
d="M107 629v-100q0 -43 -17 -63t-69 -20h-128v76h111v107h103z" />
    <glyph glyph-name="uni0323" unicode="&#x323;" horiz-adv-x="0" 
d="M0 -191q-38 0 -54 15.5t-16 39.5v24q0 24 16 39.5t54 15.5t54 -15.5t16 -39.5v-24q0 -24 -16 -39.5t-54 -15.5z" />
    <glyph glyph-name="uni0326" unicode="&#x326;" horiz-adv-x="0" 
d="M-1 -49q31 0 48 -14t17 -42v-16q0 -43 -19 -82t-46 -63h-76q24 22 38 43.5t20 48.5q-25 3 -35.5 17.5t-10.5 36.5v15q0 28 17 42t47 14z" />
    <glyph glyph-name="uni0327" unicode="&#x327;" horiz-adv-x="0" 
d="M13 -210q-45 0 -72 13.5t-40 29.5l41 50q9 -11 24.5 -19t37.5 -8q21 0 32 6.5t11 21.5t-11.5 24.5t-45.5 11.5l-36 2l21 104h59l-17 -89l7 -2q7 6 17.5 9.5t24.5 3.5q30 0 48.5 -17t18.5 -52q0 -32 -16 -51.5t-43 -28.5t-61 -9z" />
    <glyph glyph-name="uni0328" unicode="&#x328;" horiz-adv-x="0" 
d="M-81 -211q-32 0 -57 8.5t-39.5 26.5t-14.5 46q0 40 31.5 70t83.5 55l-3 27h71l9 -22q-42 -28 -65 -47.5t-31.5 -34t-8.5 -29.5q0 -17 10 -25t25 -8q17 0 29.5 7.5t21.5 18.5l45 -45q-14 -21 -41.5 -34.5t-65.5 -13.5z" />
    <glyph glyph-name="uni037E" unicode="&#x37e;" horiz-adv-x="305" 
d="M152 149q40 0 59 -19t19 -51v-21q0 -54 -26.5 -109t-72.5 -91h-87q33 32 55 63t33 70q-29 5 -43.5 23t-14.5 44v21q0 32 19.5 51t58.5 19zM152 371q-39 0 -58.5 19.5t-19.5 50.5v20q0 32 19.5 51t58.5 19q40 0 59 -19t19 -51v-20q0 -31 -19 -50.5t-59 -19.5z" />
    <glyph glyph-name="tonos" unicode="&#x384;" 
d="M395 788l-64 -207l-82 12l32 212z" />
    <glyph glyph-name="dieresistonos" unicode="&#x385;" 
d="M439 610q-30 0 -43.5 13.5t-13.5 38.5v22q0 26 13.5 39.5t43.5 13.5q29 0 43 -13.5t14 -38.5v-23q0 -24 -14 -38t-43 -14zM173 610q-29 0 -43 13.5t-14 38.5v22q0 26 14 39.5t43 13.5q30 0 43.5 -13.5t13.5 -38.5v-23q0 -24 -13.5 -38t-43.5 -14zM378 790l-64 -209
l-58 10l32 214z" />
    <glyph glyph-name="Alphatonos" unicode="&#x386;" horiz-adv-x="642" 
d="M621 0h-131l-52 180h-236l-52 -180h-127l219 698h161zM407 287l-55 184l-28 111h-10l-27 -111l-54 -184h174zM183 788l-64 -207l-82 12l32 212z" />
    <glyph glyph-name="anoteleia" unicode="&#x387;" horiz-adv-x="298" 
d="M149 371q-39 0 -58.5 19.5t-19.5 50.5v20q0 32 19.5 51t58.5 19q40 0 59 -19t19 -51v-20q0 -31 -19 -50.5t-59 -19.5z" />
    <glyph glyph-name="Epsilontonos" unicode="&#x388;" horiz-adv-x="643" 
d="M589 0h-440v698h440v-113h-312v-176h274v-112h-274v-184h312v-113zM128 788l-64 -207l-82 12l32 212z" />
    <glyph glyph-name="Etatonos" unicode="&#x389;" horiz-adv-x="755" 
d="M550 0v297h-274v-297h-128v698h128v-289h274v289h128v-698h-128zM128 788l-64 -207l-82 12l32 212z" />
    <glyph glyph-name="Iotatonos" unicode="&#x38a;" horiz-adv-x="503" 
d="M453 0h-304v103h88v492h-88v103h304v-103h-88v-492h88v-103zM128 788l-64 -207l-82 12l32 212z" />
    <glyph glyph-name="Omicrontonos" unicode="&#x38c;" horiz-adv-x="708" 
d="M370 -12q-87 0 -152 39t-101 119t-36 203q0 124 36 203.5t101 118.5t152 39q88 0 153 -39t100.5 -118.5t35.5 -203.5q0 -123 -35.5 -203t-100.5 -119t-153 -39zM370 102q48 0 82 20.5t52.5 60.5t18.5 96v140q0 57 -18.5 96.5t-52.5 60t-82 20.5q-47 0 -81 -20.5
t-52.5 -60t-18.5 -96.5v-140q0 -56 18.5 -96t52.5 -60.5t81 -20.5zM128 788l-64 -207l-82 12l32 212z" />
    <glyph glyph-name="Upsilontonos" unicode="&#x38e;" horiz-adv-x="724" 
d="M489 0h-129v270l-227 428h143l148 -297h8l144 297h140l-227 -427v-271zM128 788l-64 -207l-82 12l32 212z" />
    <glyph glyph-name="Omegatonos" unicode="&#x38f;" horiz-adv-x="713" 
d="M128 788l-64 -207l-82 12l32 212zM81 0v108h162v12q-35 13 -64 37.5t-50 59t-32 79t-11 98.5q0 67 18 125t54.5 100.5t90.5 66.5t126 24t126.5 -24t90.5 -66.5t54 -100.5t18 -125q0 -54 -11 -98.5t-32 -79t-49.5 -59t-64.5 -37.5v-12h162v-108h-247v165q22 8 41 24t34 38
t23.5 48.5t8.5 54.5v118q0 39 -18.5 72.5t-53 54.5t-82.5 21t-82 -21t-52.5 -54.5t-18.5 -72.5v-118q0 -28 8 -54.5t23 -48.5t34 -38t41 -24v-165h-247z" />
    <glyph glyph-name="iotadieresistonos" unicode="&#x390;" horiz-adv-x="305" 
d="M287 99v-99h-88q-64 0 -96.5 32.5t-32.5 94.5v395h124v-423h93zM276 610q-30 0 -43.5 13.5t-13.5 38.5v22q0 26 13.5 39.5t43.5 13.5q29 0 43 -13.5t14 -38.5v-23q0 -24 -14 -38t-43 -14zM10 610q-29 0 -43 13.5t-14 38.5v22q0 26 14 39.5t43 13.5q30 0 43.5 -13.5
t13.5 -38.5v-23q0 -24 -13.5 -38t-43.5 -14zM215 790l-64 -209l-58 10l32 214z" />
    <glyph glyph-name="Alpha" unicode="&#x391;" horiz-adv-x="639" 
d="M619 0h-131l-52 180h-236l-52 -180h-127l219 698h161zM405 287l-55 184l-28 111h-10l-27 -111l-54 -184h174z" />
    <glyph glyph-name="Beta" unicode="&#x392;" horiz-adv-x="631" 
d="M77 0v698h310q84 0 129.5 -48.5t45.5 -130.5q0 -56 -17.5 -87.5t-45 -45.5t-57.5 -17v-10q23 0 48 -8.5t47 -27t36 -49t14 -74.5q0 -57 -21.5 -102t-60 -71.5t-89.5 -26.5h-339zM205 301v-192h175q22 0 38.5 8t25.5 25t9 42v42q0 25 -9 41.5t-25.5 25t-38.5 8.5h-175z
M205 589v-182h154q22 0 37.5 8t24 24t8.5 40v38q0 24 -8.5 40t-24 24t-37.5 8h-154z" />
    <glyph glyph-name="Gamma" unicode="&#x393;" horiz-adv-x="486" 
d="M77 0v698h383v-113h-255v-585h-128z" />
    <glyph glyph-name="uni0394" unicode="&#x394;" horiz-adv-x="638" 
d="M46 0v105l191 593h165l192 -593v-105h-548zM458 112l-101 340l-35 130h-9l-35 -130l-100 -340h280z" />
    <glyph glyph-name="Epsilon" unicode="&#x395;" horiz-adv-x="571" 
d="M517 0h-440v698h440v-113h-312v-176h274v-112h-274v-184h312v-113z" />
    <glyph glyph-name="Zeta" unicode="&#x396;" horiz-adv-x="569" 
d="M533 113v-113h-497v114l341 471h-324v113h471v-114l-342 -471h351z" />
    <glyph glyph-name="Eta" unicode="&#x397;" horiz-adv-x="684" 
d="M479 0v297h-274v-297h-128v698h128v-289h274v289h128v-698h-128z" />
    <glyph glyph-name="Theta" unicode="&#x398;" horiz-adv-x="684" 
d="M342 -12q-90 0 -155.5 39t-101.5 119t-36 203q0 124 36 203.5t101.5 118.5t155.5 39t155.5 -39t101 -118.5t35.5 -203.5q0 -123 -35.5 -203t-101 -119t-155.5 -39zM342 102q49 0 84 20.5t53.5 60.5t18.5 96v140q0 57 -18.5 96.5t-53.5 60t-84 20.5t-84 -20.5t-53.5 -60
t-18.5 -96.5v-140q0 -56 18.5 -96t53.5 -60.5t84 -20.5zM446 297h-209v112h209v-112z" />
    <glyph glyph-name="Iota" unicode="&#x399;" horiz-adv-x="405" 
d="M354 0h-304v103h88v492h-88v103h304v-103h-88v-492h88v-103z" />
    <glyph glyph-name="Kappa" unicode="&#x39a;" horiz-adv-x="646" 
d="M480 0l-186 318l-89 -111v-207h-128v698h128v-220l-3 -126h10l89 126l166 220h146l-229 -292l248 -406h-152z" />
    <glyph glyph-name="Lambda" unicode="&#x39b;" horiz-adv-x="629" 
d="M237 698h155l216 -698h-133l-111 386l-48 193h-9l-46 -193l-110 -386h-130z" />
    <glyph glyph-name="Mu" unicode="&#x39c;" horiz-adv-x="776" 
d="M77 0v698h142l104 -212l63 -144h6l63 144l103 212h141v-698h-121v392l4 114h-9l-50 -110l-135 -266l-135 266l-50 112h-9l4 -116v-392h-121z" />
    <glyph glyph-name="Nu" unicode="&#x39d;" horiz-adv-x="684" 
d="M465 0l-201 378l-61 132h-9l4 -136v-374h-121v698h142l202 -378l60 -132h9l-4 136v374h121v-698h-142z" />
    <glyph glyph-name="Xi" unicode="&#x39e;" 
d="M55 585v113h461v-113h-461zM107 297v112h356v-112h-356zM55 0v113h461v-113h-461z" />
    <glyph glyph-name="Omicron" unicode="&#x39f;" horiz-adv-x="677" 
d="M338 -12q-87 0 -152 39t-101 119t-36 203q0 124 36 203.5t101 118.5t152 39q88 0 153 -39t100.5 -118.5t35.5 -203.5q0 -123 -35.5 -203t-100.5 -119t-153 -39zM338 102q48 0 82 20.5t52.5 60.5t18.5 96v140q0 57 -18.5 96.5t-52.5 60t-82 20.5q-47 0 -81 -20.5
t-52.5 -60t-18.5 -96.5v-140q0 -56 18.5 -96t52.5 -60.5t81 -20.5z" />
    <glyph glyph-name="Pi" unicode="&#x3a0;" horiz-adv-x="670" 
d="M77 0v698h516v-698h-129v585h-259v-585h-128z" />
    <glyph glyph-name="Rho" unicode="&#x3a1;" horiz-adv-x="611" 
d="M205 0h-128v698h302q63 0 106.5 -26.5t66.5 -74.5t23 -114q0 -65 -23 -113.5t-66.5 -75t-106.5 -26.5h-174v-268zM205 586v-206h161q24 0 41 8.5t26 25.5t9 42v54q0 26 -9 42.5t-26 25t-41 8.5h-161z" />
    <glyph glyph-name="Sigma" unicode="&#x3a3;" horiz-adv-x="568" 
d="M517 0h-476v114l217 237l-209 232v115h468v-113h-312l207 -230l-222 -242h327v-113z" />
    <glyph glyph-name="Tau" unicode="&#x3a4;" horiz-adv-x="552" 
d="M527 585h-187v-585h-128v585h-187v113h502v-113z" />
    <glyph glyph-name="Upsilon" unicode="&#x3a5;" horiz-adv-x="599" 
d="M364 0h-129v270l-227 428h143l148 -297h8l144 297h140l-227 -427v-271z" />
    <glyph glyph-name="Phi" unicode="&#x3a6;" horiz-adv-x="807" 
d="M339 -40v72h-10q-89 0 -153.5 38t-99 110t-34.5 173q0 102 34.5 174.5t99 110.5t153.5 38h10v60h129v-60h11q89 0 153 -38t99 -110t35 -174t-35 -174t-99 -110t-153 -38h-11v-72h-129zM342 137v434h-11q-46 0 -81 -21t-55 -61t-20 -95v-80q0 -55 20 -95t55 -61t81 -21h11
zM465 137h12q45 0 80.5 21t55.5 61t20 95v80q0 55 -20 95t-55.5 61t-80.5 21h-12v-434z" />
    <glyph glyph-name="Chi" unicode="&#x3a7;" horiz-adv-x="625" 
d="M18 0l212 358l-203 340h149l136 -245h9l138 245h138l-205 -340l216 -358h-149l-149 264h-8l-146 -264h-138z" />
    <glyph glyph-name="Psi" unicode="&#x3a8;" horiz-adv-x="785" 
d="M328 0v185q-86 0 -145 31.5t-89.5 93t-30.5 152.5v236h129v-236q0 -65 16 -102.5t47 -53.5t73 -16v408h129v-408q43 0 73.5 16t47 53.5t16.5 102.5v236h128v-236q0 -91 -30 -152.5t-89 -93t-146 -31.5v-185h-129z" />
    <glyph glyph-name="uni03A9" unicode="&#x3a9;" horiz-adv-x="679" 
d="M47 0v108h162v12q-35 13 -64 37.5t-50 59t-32 79t-11 98.5q0 67 18 125t54.5 100.5t90.5 66.5t126 24t126.5 -24t90.5 -66.5t54 -100.5t18 -125q0 -54 -11 -98.5t-32 -79t-49.5 -59t-64.5 -37.5v-12h162v-108h-247v165q22 8 41 24t34 38t23.5 48.5t8.5 54.5v118
q0 39 -18.5 72.5t-53 54.5t-82.5 21t-82 -21t-52.5 -54.5t-18.5 -72.5v-118q0 -28 8 -54.5t23 -48.5t34 -38t41 -24v-165h-247z" />
    <glyph glyph-name="Iotadieresis" unicode="&#x3aa;" horiz-adv-x="405" 
d="M354 0h-304v103h88v492h-88v103h304v-103h-88v-492h88v-103zM103 771q-38 0 -53.5 15.5t-15.5 39.5v24q0 24 15.5 39.5t53.5 15.5t53.5 -15.5t15.5 -39.5v-24q0 -24 -15.5 -39.5t-53.5 -15.5zM301 771q-38 0 -53.5 15.5t-15.5 39.5v24q0 24 15.5 39.5t53.5 15.5
t53.5 -15.5t15.5 -39.5v-24q0 -24 -15.5 -39.5t-53.5 -15.5z" />
    <glyph glyph-name="Upsilondieresis" unicode="&#x3ab;" horiz-adv-x="599" 
d="M364 0h-129v270l-227 428h143l148 -297h8l144 297h140l-227 -427v-271zM201 771q-38 0 -53.5 15.5t-15.5 39.5v24q0 24 15.5 39.5t53.5 15.5t53.5 -15.5t15.5 -39.5v-24q0 -24 -15.5 -39.5t-53.5 -15.5zM399 771q-38 0 -53.5 15.5t-15.5 39.5v24q0 24 15.5 39.5
t53.5 15.5t53.5 -15.5t15.5 -39.5v-24q0 -24 -15.5 -39.5t-53.5 -15.5z" />
    <glyph glyph-name="alphatonos" unicode="&#x3ac;" horiz-adv-x="628" 
d="M595 99v-99h-56q-50 0 -76 21t-33 71l-9 69h-9q-13 -59 -35 -97.5t-56 -57t-81 -18.5q-63 0 -107 31t-67.5 91.5t-23.5 150.5t23.5 150.5t67.5 91.5t107 31q47 0 82 -18t58.5 -56t36.5 -98h9l18 83l23 77h126l-108 -258l58 -165h52zM249 91q18 0 33 9t28 28.5t24 52.5
l26 80l-26 80q-11 33 -23.5 53t-28 28.5t-33.5 8.5q-36 0 -56 -28.5t-20 -93.5v-96q0 -64 20 -93t56 -29zM368 788l-64 -207l-82 12l32 212z" />
    <glyph glyph-name="epsilontonos" unicode="&#x3ad;" horiz-adv-x="500" 
d="M409 158l68 -75q-35 -45 -90.5 -70t-131.5 -25q-100 0 -156.5 43t-56.5 113q0 55 31.5 86t87.5 38v10q-53 7 -80 34.5t-27 72.5q0 65 53.5 107t150.5 42q49 0 87.5 -10t69 -30t54.5 -48l-75 -74q-14 21 -33.5 34.5t-43.5 20.5t-52 7q-43 0 -63.5 -16.5t-20.5 -41.5v-11
q0 -26 17.5 -40.5t51.5 -14.5h99v-87h-108q-36 0 -54 -14.5t-18 -42.5v-11q0 -32 24 -49t76 -17q47 0 81.5 18t58.5 51zM363 788l-64 -207l-82 12l32 212z" />
    <glyph glyph-name="etatonos" unicode="&#x3ae;" horiz-adv-x="571" 
d="M205 0h-124v423h-49v99h74q48 0 73.5 -25t25.5 -75v-9l-34 19h43q14 44 46.5 73t89.5 29q75 0 116 -51.5t41 -142.5v-540h-125v524q0 53 -19 80t-62 27q-25 0 -47 -9.5t-35.5 -28t-13.5 -45.5v-348zM386 788l-64 -207l-82 12l32 212z" />
    <glyph glyph-name="iotatonos" unicode="&#x3af;" horiz-adv-x="305" 
d="M287 99v-99h-88q-64 0 -96.5 32.5t-32.5 94.5v395h124v-423h93zM239 788l-64 -207l-82 12l32 212z" />
    <glyph glyph-name="upsilondieresistonos" unicode="&#x3b0;" horiz-adv-x="550" 
d="M186 522v-312q0 -42 9 -69t29 -39.5t51 -12.5t51 12.5t29.5 39.5t9.5 69v312h124v-290q0 -83 -24 -137.5t-71.5 -80.5t-118.5 -26t-118.5 26t-71.5 80.5t-24 137.5v290h125zM416 610q-30 0 -43.5 13.5t-13.5 38.5v22q0 26 13.5 39.5t43.5 13.5q29 0 43 -13.5t14 -38.5
v-23q0 -24 -14 -38t-43 -14zM150 610q-29 0 -43 13.5t-14 38.5v22q0 26 14 39.5t43 13.5q30 0 43.5 -13.5t13.5 -38.5v-23q0 -24 -13.5 -38t-43.5 -14zM355 790l-64 -209l-58 10l32 214z" />
    <glyph glyph-name="alpha" unicode="&#x3b1;" horiz-adv-x="628" 
d="M595 99v-99h-56q-50 0 -76 21t-33 71l-9 69h-9q-13 -59 -35 -97.5t-56 -57t-81 -18.5q-63 0 -107 31t-67.5 91.5t-23.5 150.5t23.5 150.5t67.5 91.5t107 31q47 0 82 -18t58.5 -56t36.5 -98h9l18 83l23 77h126l-108 -258l58 -165h52zM249 91q18 0 33 9t28 28.5t24 52.5
l26 80l-26 80q-11 33 -23.5 53t-28 28.5t-33.5 8.5q-36 0 -56 -28.5t-20 -93.5v-96q0 -64 20 -93t56 -29z" />
    <glyph glyph-name="beta" unicode="&#x3b2;" horiz-adv-x="573" 
d="M70 -200v694q0 129 54.5 193.5t160.5 64.5q72 0 119.5 -23.5t70.5 -65.5t23 -98q0 -48 -14.5 -82.5t-40.5 -55.5t-61 -30v-9q43 -4 76 -24t52 -57t19 -92q0 -70 -22 -121t-65 -78.5t-106 -27.5q-48 0 -83.5 25.5t-48.5 66.5h-10v-280h-124zM256 336v100h35q25 0 43 10
t27.5 29t9.5 44v43q0 27 -9.5 47t-29 31t-48.5 11q-43 0 -66.5 -28t-23.5 -84v-374q0 -24 12.5 -41t35 -26t52.5 -9q34 0 58 12t37 36t13 59v40q0 48 -28 74t-80 26h-38z" />
    <glyph glyph-name="gamma" unicode="&#x3b3;" horiz-adv-x="505" 
d="M188 -200v200l-134 423h-47v99h50q50 0 76 -19t39 -68l44 -162l32 -143h10l39 143l79 249h119l-183 -522v-200h-124z" />
    <glyph glyph-name="delta" unicode="&#x3b4;" horiz-adv-x="535" 
d="M296 459q-39 -2 -68.5 -21.5t-45 -54t-15.5 -81.5v-98q0 -38 12 -63.5t34.5 -38.5t53.5 -13q32 0 54.5 13t34.5 38.5t12 63.5v61q0 32 -5 58.5t-16.5 50.5t-32 47.5t-51.5 49.5l-171 146v123h360v-99h-158l-85 12v-9l113 -82q49 -35 83 -69t54.5 -69.5t29.5 -75.5t9 -87
q0 -89 -27.5 -149.5t-79.5 -92t-124 -31.5q-71 0 -123 31.5t-79.5 90.5t-27.5 140q0 82 25 137t66.5 82.5t91.5 27.5v24z" />
    <glyph glyph-name="epsilon" unicode="&#x3b5;" horiz-adv-x="500" 
d="M409 158l68 -75q-35 -45 -90.5 -70t-131.5 -25q-100 0 -156.5 43t-56.5 113q0 55 31.5 86t87.5 38v10q-53 7 -80 34.5t-27 72.5q0 65 53.5 107t150.5 42q49 0 87.5 -10t69 -30t54.5 -48l-75 -74q-14 21 -33.5 34.5t-43.5 20.5t-52 7q-43 0 -63.5 -16.5t-20.5 -41.5v-11
q0 -26 17.5 -40.5t51.5 -14.5h99v-87h-108q-36 0 -54 -14.5t-18 -42.5v-11q0 -32 24 -49t76 -17q47 0 81.5 18t58.5 51z" />
    <glyph glyph-name="zeta" unicode="&#x3b6;" horiz-adv-x="414" 
d="M56 641v99h350v-97l-165 -231q-42 -57 -58 -98.5t-16 -76.5v-22q0 -25 8.5 -44.5t27 -33t46.5 -21.5l74 -23q36 -11 55 -34t19 -52q0 -13 -2.5 -26.5t-8.5 -29.5l-44 -121l-104 37l43 120l-73 22q-63 19 -100.5 47t-54 66t-16.5 88q0 42 9 80t34 82t72 103l130 166v11
l-74 -11h-152z" />
    <glyph glyph-name="eta" unicode="&#x3b7;" horiz-adv-x="571" 
d="M205 0h-124v423h-49v99h74q48 0 73.5 -25t25.5 -75v-9l-34 19h43q14 44 46.5 73t89.5 29q75 0 116 -51.5t41 -142.5v-540h-125v524q0 53 -19 80t-62 27q-25 0 -47 -9.5t-35.5 -28t-13.5 -45.5v-348z" />
    <glyph glyph-name="theta" unicode="&#x3b8;" horiz-adv-x="545" 
d="M174 485v-65h196v65q0 65 -11 101t-32.5 51t-54.5 15q-32 0 -54 -15t-33 -51t-11 -101zM272 752q54 0 96.5 -18.5t72 -61.5t45 -117t15.5 -185t-15.5 -185t-45 -117t-72 -61.5t-96.5 -18.5q-53 0 -95.5 18.5t-72 61.5t-45 117t-15.5 185t15.5 185t45 117t72 61.5
t95.5 18.5zM272 88q33 0 54.5 15t32.5 51.5t11 100.5v66h-196v-66q0 -64 11 -100.5t33 -51.5t54 -15z" />
    <glyph glyph-name="iota" unicode="&#x3b9;" horiz-adv-x="305" 
d="M287 99v-99h-88q-64 0 -96.5 32.5t-32.5 94.5v395h124v-423h93z" />
    <glyph glyph-name="kappa" unicode="&#x3ba;" horiz-adv-x="539" 
d="M381 0l-125 227l-62 -69v-158h-124v522h124v-232h10l54 76l93 112q21 26 42 35t56 9h50v-99h-59l-102 -112l186 -311h-143z" />
    <glyph glyph-name="lambda" unicode="&#x3bb;" horiz-adv-x="506" 
d="M189 522l-36 118h-88v100h90q49 0 73.5 -18t37.5 -63l173 -560h60v-99h-63q-48 0 -72.5 18.5t-38.5 61.5l-49 163l-28 133h-12l-34 -133l-79 -243h-120z" />
    <glyph glyph-name="uni03BC" unicode="&#x3bc;" horiz-adv-x="577" 
d="M193 -200h-123v722h124v-324q0 -52 20 -79.5t62 -27.5q26 0 47.5 10t34.5 29t13 45v347h125v-423h49v-99h-55q-58 0 -87.5 28.5t-29.5 80.5v9l40 -26h-47q-11 -52 -38 -78t-67 -26q-34 0 -57 16.5t-38 49.5h-8l35 -144v-110z" />
    <glyph glyph-name="nu" unicode="&#x3bd;" horiz-adv-x="507" 
d="M328 0h-153l-121 423h-47v99h50q50 0 76.5 -19t38.5 -68l45 -178l32 -149h11l39 149l79 265h120z" />
    <glyph glyph-name="xi" unicode="&#x3be;" horiz-adv-x="424" 
d="M415 640h-126q-30 0 -51 -10.5t-32.5 -32.5t-11.5 -55v-23q0 -41 25.5 -65t69.5 -24h59v-100h-89q-27 0 -47 -11.5t-30.5 -32t-10.5 -49.5v-28q0 -24 8.5 -42.5t26 -30.5t46.5 -21l72 -22q37 -11 55.5 -34t18.5 -52q0 -13 -2.5 -26.5t-8.5 -29.5l-44 -121l-104 37l43 120
l-71 22q-61 18 -97.5 45t-53 65.5t-16.5 90.5q0 69 38 116t105 55v9q-59 12 -87.5 44t-28.5 83q0 42 21 71.5t58 41.5v11h-116v99h381v-100z" />
    <glyph glyph-name="omicron" unicode="&#x3bf;" horiz-adv-x="535" 
d="M267 -12q-71 0 -123 31.5t-79.5 92.5t-27.5 149q0 89 27.5 150t79.5 92t123 31q72 0 124 -31t79.5 -92t27.5 -150q0 -88 -27.5 -149t-79.5 -92.5t-124 -31.5zM267 89q48 0 74.5 29t26.5 85v116q0 57 -26.5 85.5t-74.5 28.5q-47 0 -73.5 -28.5t-26.5 -85.5v-116
q0 -56 26.5 -85t73.5 -29z" />
    <glyph glyph-name="pi" unicode="&#x3c0;" horiz-adv-x="607" 
d="M494 423v-324h67v-99h-62q-65 0 -97.5 32.5t-32.5 94.5v296h-145v-423h-124v423h-77v99h554v-99h-83z" />
    <glyph glyph-name="rho" unicode="&#x3c1;" horiz-adv-x="541" 
d="M48 -200v475q0 84 24.5 142t74 87.5t125.5 29.5q119 0 173 -67.5t54 -204.5q0 -133 -47 -203.5t-140 -70.5q-46 0 -81.5 26t-48.5 65h-10v-279h-124zM268 89q46 0 73.5 31t27.5 89v110q0 56 -25.5 85t-72.5 29t-73 -29t-26 -85v-154q0 -24 13 -41t34.5 -26t48.5 -9z" />
    <glyph glyph-name="sigma1" unicode="&#x3c2;" horiz-adv-x="476" 
d="M258 -133l43 120l-79 24q-65 20 -106 51.5t-60 82.5t-19 129q0 83 26.5 141t77 88.5t121.5 30.5q76 0 124.5 -34.5t69.5 -96.5l-101 -46q-8 36 -31 56t-62 20q-31 0 -52 -13.5t-32 -39t-11 -62.5v-78q0 -46 25 -77t79 -48l73 -22q36 -10 55 -33.5t19 -52.5
q0 -13 -3 -26.5t-9 -29.5l-44 -121z" />
    <glyph glyph-name="sigma" unicode="&#x3c3;" horiz-adv-x="556" 
d="M535 423h-115v-11q39 -22 58.5 -59t19.5 -104q0 -82 -27.5 -140.5t-79.5 -89.5t-124 -31q-71 0 -123 31t-79.5 91t-27.5 145q0 88 27.5 147.5t80 89.5t126.5 30h264v-99zM321 423h-50q-50 0 -77 -28t-27 -85v-107q0 -56 26.5 -85t73.5 -29q48 0 74.5 29t26.5 85v107
q0 39 -11.5 66t-35.5 47z" />
    <glyph glyph-name="tau" unicode="&#x3c4;" horiz-adv-x="470" 
d="M387 0h-97q-65 0 -97.5 32.5t-32.5 94.5v296h-141v99h423v-99h-158v-324h103v-99z" />
    <glyph glyph-name="upsilon" unicode="&#x3c5;" horiz-adv-x="550" 
d="M186 522v-312q0 -42 9 -69t29 -39.5t51 -12.5t51 12.5t29.5 39.5t9.5 69v312h124v-290q0 -83 -24 -137.5t-71.5 -80.5t-118.5 -26t-118.5 26t-71.5 80.5t-24 137.5v290h125z" />
    <glyph glyph-name="phi" unicode="&#x3c6;" horiz-adv-x="720" 
d="M294 -200v188q-75 0 -132 32t-88.5 93t-31.5 147q0 104 32.5 171.5t95.5 102.5l78 -78q-40 -27 -57.5 -66t-17.5 -91v-77q0 -46 16 -76t43 -44.5t62 -14.5v219q0 109 46 168.5t142 59.5q65 0 108.5 -25.5t65.5 -83t22 -152.5q0 -93 -31 -156.5t-89.5 -96t-140.5 -32.5
v-188h-123zM417 328v-241q59 0 94.5 32.5t35.5 102.5v106q0 60 -16.5 83t-48.5 23t-48.5 -23t-16.5 -83z" />
    <glyph glyph-name="chi" unicode="&#x3c7;" horiz-adv-x="504" 
d="M15 522h67q48 0 72.5 -17t37.5 -58l63 -181h8l98 256h132l-163 -350l106 -273h64v-99h-67q-48 0 -72.5 18t-37.5 57l-67 199h-8l-104 -274h-132l170 368l-103 255h-64v99z" />
    <glyph glyph-name="psi" unicode="&#x3c8;" horiz-adv-x="714" 
d="M296 -200v188q-75 0 -127.5 28t-80 85t-27.5 144v277h125v-302q0 -47 12.5 -76t36.5 -43t61 -14v623h122v-623q36 0 60.5 14t37 43t12.5 76v302h125v-277q0 -87 -27.5 -144t-79.5 -85t-128 -28v-188h-122z" />
    <glyph glyph-name="omega" unicode="&#x3c9;" horiz-adv-x="724" 
d="M424 362v-169q0 -39 7.5 -61.5t21.5 -32.5t35 -10q31 0 47 23t16 81v106q0 51 -18 90t-57 67l77 78q42 -23 70.5 -58.5t43 -91t14.5 -137.5q0 -90 -22 -147.5t-61 -84.5t-92 -27q-59 0 -93.5 34t-45.5 100h-10q-10 -66 -45 -100t-94 -34q-52 0 -91.5 27t-61.5 84.5
t-22 147.5q0 80 15 135.5t43.5 92t69.5 59.5l77 -78q-40 -27 -57.5 -66t-17.5 -91v-106q0 -58 16 -81t47 -23q22 0 35.5 10t21 32.5t7.5 61.5v169h124z" />
    <glyph glyph-name="iotadieresis" unicode="&#x3ca;" horiz-adv-x="305" 
d="M287 99v-99h-88q-64 0 -96.5 32.5t-32.5 94.5v395h124v-423h93zM38 606q-38 0 -53.5 15.5t-15.5 40.5v23q0 25 15.5 40t53.5 15t53.5 -15t15.5 -40v-23q0 -25 -15.5 -40.5t-53.5 -15.5zM236 606q-38 0 -53.5 15.5t-15.5 40.5v23q0 25 15.5 40t53.5 15t53.5 -15t15.5 -40
v-23q0 -25 -15.5 -40.5t-53.5 -15.5z" />
    <glyph glyph-name="upsilondieresis" unicode="&#x3cb;" horiz-adv-x="550" 
d="M186 522v-312q0 -42 9 -69t29 -39.5t51 -12.5t51 12.5t29.5 39.5t9.5 69v312h124v-290q0 -83 -24 -137.5t-71.5 -80.5t-118.5 -26t-118.5 26t-71.5 80.5t-24 137.5v290h125zM178 606q-38 0 -53.5 15.5t-15.5 40.5v23q0 25 15.5 40t53.5 15t53.5 -15t15.5 -40v-23
q0 -25 -15.5 -40.5t-53.5 -15.5zM376 606q-38 0 -53.5 15.5t-15.5 40.5v23q0 25 15.5 40t53.5 15t53.5 -15t15.5 -40v-23q0 -25 -15.5 -40.5t-53.5 -15.5z" />
    <glyph glyph-name="omicrontonos" unicode="&#x3cc;" horiz-adv-x="535" 
d="M267 -12q-71 0 -123 31.5t-79.5 92.5t-27.5 149q0 89 27.5 150t79.5 92t123 31q72 0 124 -31t79.5 -92t27.5 -150q0 -88 -27.5 -149t-79.5 -92.5t-124 -31.5zM267 89q48 0 74.5 29t26.5 85v116q0 57 -26.5 85.5t-74.5 28.5q-47 0 -73.5 -28.5t-26.5 -85.5v-116
q0 -56 26.5 -85t73.5 -29zM369 788l-64 -207l-82 12l32 212z" />
    <glyph glyph-name="upsilontonos" unicode="&#x3cd;" horiz-adv-x="550" 
d="M186 522v-312q0 -42 9 -69t29 -39.5t51 -12.5t51 12.5t29.5 39.5t9.5 69v312h124v-290q0 -83 -24 -137.5t-71.5 -80.5t-118.5 -26t-118.5 26t-71.5 80.5t-24 137.5v290h125zM379 788l-64 -207l-82 12l32 212z" />
    <glyph glyph-name="omegatonos" unicode="&#x3ce;" horiz-adv-x="724" 
d="M424 362v-169q0 -39 7.5 -61.5t21.5 -32.5t35 -10q31 0 47 23t16 81v106q0 51 -18 90t-57 67l77 78q42 -23 70.5 -58.5t43 -91t14.5 -137.5q0 -90 -22 -147.5t-61 -84.5t-92 -27q-59 0 -93.5 34t-45.5 100h-10q-10 -66 -45 -100t-94 -34q-52 0 -91.5 27t-61.5 84.5
t-22 147.5q0 80 15 135.5t43.5 92t69.5 59.5l77 -78q-40 -27 -57.5 -66t-17.5 -91v-106q0 -58 16 -81t47 -23q22 0 35.5 10t21 32.5t7.5 61.5v169h124zM463 788l-64 -207l-82 12l32 212z" />
    <glyph glyph-name="uni0400" unicode="&#x400;" horiz-adv-x="571" 
d="M517 0h-440v698h440v-113h-312v-176h274v-112h-274v-184h312v-113zM283 744l-123 172l107 53l91 -188z" />
    <glyph glyph-name="uni0401" unicode="&#x401;" horiz-adv-x="571" 
d="M517 0h-440v698h440v-113h-312v-176h274v-112h-274v-184h312v-113zM197 771q-38 0 -53.5 15.5t-15.5 39.5v24q0 24 15.5 39.5t53.5 15.5t53.5 -15.5t15.5 -39.5v-24q0 -24 -15.5 -39.5t-53.5 -15.5zM395 771q-38 0 -53.5 15.5t-15.5 39.5v24q0 24 15.5 39.5t53.5 15.5
t53.5 -15.5t15.5 -39.5v-24q0 -24 -15.5 -39.5t-53.5 -15.5z" />
    <glyph glyph-name="uni0402" unicode="&#x402;" horiz-adv-x="760" 
d="M455 -177v117h93q15 19 23 49t8 74v141q0 66 -29.5 97t-90.5 31q-39 0 -68 -5.5t-51 -15.5v-311h-128v585h-187v113h502v-113h-187v-165h10q23 11 54 17t70 6q118 0 175.5 -60t57.5 -183v-141q0 -80 -23.5 -132.5t-68.5 -78t-109 -25.5h-51z" />
    <glyph glyph-name="uni0403" unicode="&#x403;" horiz-adv-x="486" 
d="M77 0v698h383v-113h-255v-585h-128zM404 916l-123 -172l-75 37l91 188z" />
    <glyph glyph-name="uni0404" unicode="&#x404;" horiz-adv-x="628" 
d="M344 -12q-92 0 -158 38t-101.5 117t-35.5 202t35.5 204t101.5 121t158 40q66 0 112.5 -17t80 -51.5t58.5 -85.5l-107 -61q-17 48 -48.5 74.5t-95.5 26.5q-52 0 -87.5 -21.5t-53 -60.5t-17.5 -92v-42l-43 29h277v-112h-277l43 36v-56q0 -85 41 -130t117 -45q66 0 100.5 30
t50.5 78l104 -64q-35 -75 -96 -116.5t-159 -41.5z" />
    <glyph glyph-name="uni0405" unicode="&#x405;" horiz-adv-x="579" 
d="M284 -12q-84 0 -145 30.5t-105 83.5l86 83q32 -41 74.5 -63t94.5 -22q59 0 88.5 26.5t29.5 73.5q0 25 -9 43.5t-28.5 30.5t-53.5 18l-63 12q-67 12 -110.5 37.5t-65 66.5t-21.5 98q0 65 28.5 110t82.5 69.5t130 24.5t132.5 -25.5t96.5 -76.5l-86 -81q-26 34 -61.5 52.5
t-86.5 18.5q-54 0 -81.5 -21.5t-27.5 -64.5q0 -26 9.5 -43.5t30 -28t51.5 -16.5l63 -13q69 -13 112.5 -38t64 -65t20.5 -98q0 -69 -29 -118.5t-85 -76.5t-136 -27z" />
    <glyph glyph-name="uni0406" unicode="&#x406;" horiz-adv-x="405" 
d="M354 0h-304v103h88v492h-88v103h304v-103h-88v-492h88v-103z" />
    <glyph glyph-name="uni0407" unicode="&#x407;" horiz-adv-x="405" 
d="M354 0h-304v103h88v492h-88v103h304v-103h-88v-492h88v-103zM103 771q-38 0 -53.5 15.5t-15.5 39.5v24q0 24 15.5 39.5t53.5 15.5t53.5 -15.5t15.5 -39.5v-24q0 -24 -15.5 -39.5t-53.5 -15.5zM301 771q-38 0 -53.5 15.5t-15.5 39.5v24q0 24 15.5 39.5t53.5 15.5
t53.5 -15.5t15.5 -39.5v-24q0 -24 -15.5 -39.5t-53.5 -15.5z" />
    <glyph glyph-name="uni0408" unicode="&#x408;" horiz-adv-x="519" 
d="M110 698h336v-510q0 -62 -25 -106.5t-72.5 -69t-113.5 -24.5q-95 0 -145.5 49.5t-65.5 133.5l118 25q8 -47 30 -71t62 -24q38 0 61 23t23 74v395h-208v105z" />
    <glyph glyph-name="uni0409" unicode="&#x409;" horiz-adv-x="985" 
d="M16 -4v117h76q17 18 29.5 44.5t21 67t13 100t4.5 142.5v231h426v-261h169q63 0 107 -27t67 -76t23 -115q0 -67 -23 -116t-67 -76t-107 -27h-297v585h-175v-134q0 -92 -6 -159.5t-17 -114.5t-27.5 -79t-37.5 -53q-26 -26 -57.5 -37.5t-76.5 -11.5h-45zM586 112h156
q24 0 41 8.5t26.5 26.5t9.5 43v57q0 26 -9.5 43t-26.5 26t-41 9h-156v-213z" />
    <glyph glyph-name="uni040A" unicode="&#x40a;" horiz-adv-x="986" 
d="M77 0v698h128v-289h254v289h128v-261h170q63 0 106.5 -27t67 -76t23.5 -115q0 -67 -23.5 -116t-67 -76t-106.5 -27h-298v297h-254v-297h-128zM587 112h157q23 0 40 8.5t26.5 26.5t9.5 43v57q0 26 -9.5 43t-26.5 26t-40 9h-157v-213z" />
    <glyph glyph-name="uni040B" unicode="&#x40b;" horiz-adv-x="770" 
d="M212 0v585h-187v113h502v-113h-187v-165h10q23 11 54.5 17t74.5 6q121 0 179.5 -60t58.5 -183v-200h-128v204q0 66 -30.5 97t-94.5 31q-41 0 -71.5 -5.5t-52.5 -15.5v-311h-128z" />
    <glyph glyph-name="uni040C" unicode="&#x40c;" horiz-adv-x="637" 
d="M77 0v698h128v-289h104l109 213q20 40 45.5 58t64.5 18h56v-113h-57l-84 -164q-14 -27 -29 -40t-36 -19v-9q23 -2 40 -15.5t32 -44.5l91 -180h59v-113h-71q-36 0 -60.5 16.5t-46.5 58.5l-113 222h-104v-297h-128zM466 916l-123 -172l-75 37l91 188z" />
    <glyph glyph-name="uni040D" unicode="&#x40d;" horiz-adv-x="684" 
d="M77 0v698h125v-375l-12 -137h8l62 132l231 380h116v-698h-125v375l12 137h-8l-61 -131l-232 -381h-116zM329 744l-123 172l107 53l91 -188z" />
    <glyph glyph-name="uni040E" unicode="&#x40e;" horiz-adv-x="591" 
d="M119 0v113h111l20 55l-237 530h135l108 -251l49 -130h8l43 131l93 250h127l-235 -611q-13 -32 -30 -51t-41.5 -27.5t-60.5 -8.5h-90zM299 746q-60 0 -97 25t-58 77l-20 48l98 38l33 -98q8 -3 20 -5t24 -2q11 0 23 2t20 5l33 98l98 -38l-20 -48q-21 -52 -58 -77t-96 -25z
" />
    <glyph glyph-name="uni040F" unicode="&#x40f;" horiz-adv-x="670" 
d="M275 -150v150h-198v698h128v-585h259v585h129v-698h-198v-150h-120z" />
    <glyph glyph-name="uni0410" unicode="&#x410;" horiz-adv-x="639" 
d="M619 0h-131l-52 180h-236l-52 -180h-127l219 698h161zM405 287l-55 184l-28 111h-10l-27 -111l-54 -184h174z" />
    <glyph glyph-name="uni0411" unicode="&#x411;" horiz-adv-x="620" 
d="M77 0v698h438v-113h-310v-158h178q62 0 106 -26.5t67 -74.5t23 -113t-23 -112.5t-67 -74t-106 -26.5h-306zM205 112h164q24 0 41 8.5t26 26t9 42.5v50q0 26 -9 42.5t-26 25t-41 8.5h-164v-203z" />
    <glyph glyph-name="uni0412" unicode="&#x412;" horiz-adv-x="631" 
d="M77 0v698h310q84 0 129.5 -48.5t45.5 -130.5q0 -56 -17.5 -87.5t-45 -45.5t-57.5 -17v-10q23 0 48 -8.5t47 -27t36 -49t14 -74.5q0 -57 -21.5 -102t-60 -71.5t-89.5 -26.5h-339zM205 301v-192h175q22 0 38.5 8t25.5 25t9 42v42q0 25 -9 41.5t-25.5 25t-38.5 8.5h-175z
M205 589v-182h154q22 0 37.5 8t24 24t8.5 40v38q0 24 -8.5 40t-24 24t-37.5 8h-154z" />
    <glyph glyph-name="uni0413" unicode="&#x413;" horiz-adv-x="486" 
d="M77 0v698h383v-113h-255v-585h-128z" />
    <glyph glyph-name="uni0414" unicode="&#x414;" horiz-adv-x="752" 
d="M14 -150v263h71q24 29 42 74.5t28 115t10 169.5v226h456v-585h105v-263h-121v150h-471v-150h-120zM231 113h262v473h-205v-129q0 -92 -6 -156.5t-19 -109t-32 -75.5v-3z" />
    <glyph glyph-name="uni0415" unicode="&#x415;" horiz-adv-x="571" 
d="M517 0h-440v698h440v-113h-312v-176h274v-112h-274v-184h312v-113z" />
    <glyph glyph-name="uni0416" unicode="&#x416;" horiz-adv-x="948" 
d="M37 0v113h59l83 181q13 30 29.5 43t38.5 16v9q-20 6 -36 19.5t-30 44.5l-71 159h-57v113h58q39 0 65.5 -18t44.5 -59l95 -212h94v289h128v-289h94l95 212q18 41 44.5 59t65.5 18h58v-113h-58l-71 -159q-14 -31 -29.5 -44.5t-36.5 -19.5v-9q23 -3 39.5 -16t29.5 -43
l82 -181h59v-113h-71q-37 0 -62.5 17.5t-45.5 60.5l-99 219h-94v-297h-128v297h-94l-100 -219q-19 -43 -44.5 -60.5t-62.5 -17.5h-72z" />
    <glyph glyph-name="uni0417" unicode="&#x417;" horiz-adv-x="574" 
d="M272 -12q-81 0 -141 28t-102 82l86 83q28 -38 66 -58.5t89 -20.5q41 0 69 11t41.5 31.5t13.5 49.5v19q0 41 -25.5 63t-80.5 22h-111v112h105q34 0 56.5 10t33 29.5t10.5 48.5v17q0 40 -26.5 60.5t-80.5 20.5q-48 0 -84.5 -18t-60.5 -51l-81 77q37 51 93.5 78.5
t133.5 27.5q116 0 179 -51.5t63 -139.5q0 -71 -38.5 -108t-96.5 -44v-10q39 -2 72.5 -19.5t54.5 -50.5t21 -85q0 -65 -31 -113t-89 -74.5t-139 -26.5z" />
    <glyph glyph-name="uni0418" unicode="&#x418;" horiz-adv-x="684" 
d="M77 0v698h125v-375l-12 -137h8l62 132l231 380h116v-698h-125v375l12 137h-8l-61 -131l-232 -381h-116z" />
    <glyph glyph-name="uni0419" unicode="&#x419;" horiz-adv-x="684" 
d="M77 0v698h125v-375l-12 -137h8l62 132l231 380h116v-698h-125v375l12 137h-8l-61 -131l-232 -381h-116zM343 746q-60 0 -97 25t-58 77l-20 48l98 38l33 -98q8 -3 20 -5t24 -2q11 0 23 2t20 5l33 98l98 -38l-20 -48q-21 -52 -58 -77t-96 -25z" />
    <glyph glyph-name="uni041A" unicode="&#x41a;" horiz-adv-x="637" 
d="M77 0v698h128v-289h104l109 213q20 40 45.5 58t64.5 18h56v-113h-57l-84 -164q-14 -27 -29 -40t-36 -19v-9q23 -2 40 -15.5t32 -44.5l91 -180h59v-113h-71q-36 0 -60.5 16.5t-46.5 58.5l-113 222h-104v-297h-128z" />
    <glyph glyph-name="uni041B" unicode="&#x41b;" horiz-adv-x="688" 
d="M16 -4v117h76q17 18 29.5 44.5t21 67t13 100t4.5 142.5v231h451v-698h-129v585h-199v-134q0 -92 -6 -159.5t-17 -114.5t-27.5 -79t-37.5 -53q-26 -26 -57.5 -37.5t-76.5 -11.5h-45z" />
    <glyph glyph-name="uni041C" unicode="&#x41c;" horiz-adv-x="776" 
d="M77 0v698h142l104 -212l63 -144h6l63 144l103 212h141v-698h-121v392l4 114h-9l-50 -110l-135 -266l-135 266l-50 112h-9l4 -116v-392h-121z" />
    <glyph glyph-name="uni041D" unicode="&#x41d;" horiz-adv-x="684" 
d="M479 0v297h-274v-297h-128v698h128v-289h274v289h128v-698h-128z" />
    <glyph glyph-name="uni041E" unicode="&#x41e;" horiz-adv-x="677" 
d="M338 -12q-87 0 -152 39t-101 119t-36 203q0 124 36 203.5t101 118.5t152 39q88 0 153 -39t100.5 -118.5t35.5 -203.5q0 -123 -35.5 -203t-100.5 -119t-153 -39zM338 102q48 0 82 20.5t52.5 60.5t18.5 96v140q0 57 -18.5 96.5t-52.5 60t-82 20.5q-47 0 -81 -20.5
t-52.5 -60t-18.5 -96.5v-140q0 -56 18.5 -96t52.5 -60.5t81 -20.5z" />
    <glyph glyph-name="uni041F" unicode="&#x41f;" horiz-adv-x="670" 
d="M77 0v698h516v-698h-129v585h-259v-585h-128z" />
    <glyph glyph-name="uni0420" unicode="&#x420;" horiz-adv-x="611" 
d="M205 0h-128v698h302q63 0 106.5 -26.5t66.5 -74.5t23 -114q0 -65 -23 -113.5t-66.5 -75t-106.5 -26.5h-174v-268zM205 586v-206h161q24 0 41 8.5t26 25.5t9 42v54q0 26 -9 42.5t-26 25t-41 8.5h-161z" />
    <glyph glyph-name="uni0421" unicode="&#x421;" horiz-adv-x="611" 
d="M336 -12q-88 0 -152 38t-99.5 117t-35.5 202t35.5 204t99.5 121t152 40q93 0 150.5 -39.5t92.5 -120.5l-109 -58q-14 48 -44.5 76t-89.5 28q-70 0 -110 -46t-40 -131v-142q0 -84 40 -129.5t110 -45.5q59 0 92.5 31.5t49.5 79.5l104 -61q-35 -78 -94 -121t-152 -43z" />
    <glyph glyph-name="uni0422" unicode="&#x422;" horiz-adv-x="552" 
d="M527 585h-187v-585h-128v585h-187v113h502v-113z" />
    <glyph glyph-name="uni0423" unicode="&#x423;" horiz-adv-x="591" 
d="M119 0v113h111l20 55l-237 530h135l108 -251l49 -130h8l43 131l93 250h127l-235 -611q-13 -32 -30 -51t-41.5 -27.5t-60.5 -8.5h-90z" />
    <glyph glyph-name="uni0424" unicode="&#x424;" horiz-adv-x="844" 
d="M357 -40v91h-34q-86 0 -150.5 37.5t-100 104t-35.5 155.5q0 88 35 155t99.5 104.5t152.5 37.5h33v91h129v-91h34q89 0 153 -37.5t99 -104.5t35 -155q0 -89 -35.5 -155.5t-99.5 -104t-152 -37.5h-34v-91h-129zM323 157h37v382h-36q-38 0 -67 -11t-48.5 -31t-29 -47
t-9.5 -60v-84q0 -33 9.5 -60t29 -47t48.5 -31t66 -11zM484 157h36q38 0 66.5 11t48 31t29.5 47t10 60v84q0 33 -9.5 60t-29 47t-48 31t-67.5 11h-36v-382z" />
    <glyph glyph-name="uni0425" unicode="&#x425;" horiz-adv-x="625" 
d="M18 0l212 358l-203 340h149l136 -245h9l138 245h138l-205 -340l216 -358h-149l-149 264h-8l-146 -264h-138z" />
    <glyph glyph-name="uni0426" unicode="&#x426;" horiz-adv-x="723" 
d="M577 -150v150h-500v698h128v-585h259v585h129v-585h104v-263h-120z" />
    <glyph glyph-name="uni0427" unicode="&#x427;" horiz-adv-x="635" 
d="M429 0v258h-9q-23 -10 -55 -16.5t-74 -6.5q-121 0 -180 60t-59 183v220h128v-224q0 -66 31 -97t94 -31q43 0 73 6t51 15v331h129v-698h-129z" />
    <glyph glyph-name="uni0428" unicode="&#x428;" horiz-adv-x="961" 
d="M77 0v698h128v-585h212v585h128v-585h210v585h129v-698h-807z" />
    <glyph glyph-name="uni0429" unicode="&#x429;" horiz-adv-x="1014" 
d="M868 -150v150h-791v698h128v-585h211v585h128v-585h211v585h129v-585h104v-263h-120z" />
    <glyph glyph-name="uni042A" unicode="&#x42a;" horiz-adv-x="720" 
d="M176 0v585h-153v113h281v-259h185q63 0 107 -27t67.5 -76.5t23.5 -115.5q0 -68 -23.5 -117t-67.5 -76t-107 -27h-313zM304 112h172q24 0 41.5 8.5t26.5 26.5t9 44v57q0 27 -9 44t-26.5 26t-41.5 9h-172v-215z" />
    <glyph glyph-name="uni042B" unicode="&#x42b;" horiz-adv-x="872" 
d="M77 0v698h128v-259h176q63 0 107 -27t67.5 -76.5t23.5 -115.5q0 -68 -23.5 -117t-67.5 -76t-107 -27h-304zM205 112h163q24 0 41.5 8.5t26.5 26.5t9 44v57q0 27 -9 44t-26.5 26t-41.5 9h-163v-215zM667 0v698h128v-698h-128z" />
    <glyph glyph-name="uni042C" unicode="&#x42c;" horiz-adv-x="621" 
d="M77 0v698h128v-259h185q63 0 107 -27t67.5 -76.5t23.5 -115.5q0 -68 -23.5 -117t-67.5 -76t-107 -27h-313zM205 112h172q24 0 41.5 8.5t26.5 26.5t9 44v57q0 27 -9 44t-26.5 26t-41.5 9h-172v-215z" />
    <glyph glyph-name="uni042D" unicode="&#x42d;" horiz-adv-x="628" 
d="M208 297v112h278l-43 -29v46q0 84 -41 127t-117 43q-64 0 -95.5 -26.5t-48.5 -74.5l-107 60q26 52 59.5 86t80 51.5t111.5 17.5q92 0 158 -38t101 -117.5t35 -202.5t-35 -203.5t-101 -120.5t-159 -40q-97 0 -158 41t-97 118l105 63q17 -48 51.5 -78t98.5 -30
q76 0 117.5 44t41.5 126v62l43 -37h-278z" />
    <glyph glyph-name="uni042E" unicode="&#x42e;" horiz-adv-x="952" 
d="M616 -12q-84 0 -145 34.5t-96.5 103.5t-43.5 171h-126v-297h-128v698h128v-289h128q7 99 43 166t97 101t143 34q88 0 152 -38.5t99 -118.5t35 -204t-35 -204t-99 -118.5t-152 -38.5zM616 102q70 0 110 46t40 131v140q0 85 -40 131t-110 46t-110 -46t-40 -131v-140
q0 -85 40 -131t110 -46z" />
    <glyph glyph-name="uni042F" unicode="&#x42f;" horiz-adv-x="635" 
d="M40 0v113h58l61 117q13 24 26.5 36t38.5 15v32l33 -23h-16q-85 0 -133 50.5t-48 143.5q0 66 23 114t67 74t105 26h303v-698h-129v271h-107l-106 -199q-22 -42 -46.5 -57t-60.5 -15h-69zM269 380h160v206h-160q-23 0 -40 -8.5t-26.5 -25.5t-9.5 -42v-54q0 -25 9.5 -42
t26.5 -25.5t40 -8.5z" />
    <glyph glyph-name="uni0430" unicode="&#x430;" horiz-adv-x="532" 
d="M504 0h-72q-27 0 -47.5 11.5t-32.5 35.5t-12 61v13l28 -32h-36q-11 -48 -49 -74.5t-93 -26.5q-76 0 -115.5 41.5t-39.5 111.5q0 54 24.5 89.5t72 53.5t114.5 18h84v42q0 44 -21 67.5t-69 23.5q-41 0 -67.5 -19t-44.5 -48l-74 66q29 45 75.5 72.5t120.5 27.5
q101 0 153 -47.5t52 -137.5v-250h49v-99zM330 226h-77q-47 0 -69.5 -16.5t-22.5 -48.5v-19q0 -32 19.5 -47.5t53.5 -15.5q27 0 48.5 9t34.5 27t13 42v69z" />
    <glyph glyph-name="uni0431" unicode="&#x431;" horiz-adv-x="538" 
d="M271 -12q-68 0 -118.5 30.5t-80.5 97.5q-16 37 -23.5 85.5t-7.5 117.5q0 106 15.5 181.5t47.5 125t82.5 76t120.5 33.5l160 16v-121l-164 -17q-36 -3 -60.5 -14.5t-39.5 -35t-22.5 -61t-9.5 -94.5h9q14 52 47 78t86 26q55 0 97.5 -27.5t67 -84t24.5 -142.5
q0 -88 -27.5 -148t-79.5 -91t-124 -31zM273 89q47 0 73 28.5t26 83.5v95q0 57 -26.5 86t-74.5 29q-49 0 -74.5 -27.5t-25.5 -77.5v-102q0 -57 27 -86t75 -29z" />
    <glyph glyph-name="uni0432" unicode="&#x432;" horiz-adv-x="543" 
d="M70 0v522h275q66 0 102 -35.5t36 -95.5q0 -48 -25.5 -76t-77.5 -35v-10q60 -4 90.5 -35.5t30.5 -82.5q0 -45 -18 -79.5t-51.5 -53.5t-81.5 -19h-280zM191 91h130q25 0 39.5 13.5t14.5 39.5v29q0 25 -14.5 39t-39.5 14h-130v-135zM191 306h115q23 0 36.5 13.5t13.5 36.5
v26q0 24 -13.5 36.5t-36.5 12.5h-115v-125z" />
    <glyph glyph-name="uni0433" unicode="&#x433;" horiz-adv-x="420" 
d="M70 0v522h330v-99h-206v-423h-124z" />
    <glyph glyph-name="uni0434" unicode="&#x434;" horiz-adv-x="610" 
d="M9 -140v239h61q18 28 30 66t18 89.5t6 118.5v149h384v-423h84v-239h-112v140h-359v-140h-112zM202 99h181v324h-139v-57q0 -106 -12.5 -169.5t-29.5 -97.5z" />
    <glyph glyph-name="uni0435" unicode="&#x435;" horiz-adv-x="531" 
d="M274 -12q-72 0 -125.5 31.5t-82.5 92.5t-29 149t27 149t79 92.5t124 31.5q76 0 126 -32.5t75.5 -92.5t25.5 -143v-36h-328v-23q0 -54 31 -86.5t88 -32.5q45 0 75 19.5t52 52.5l68 -74q-31 -44 -83 -71t-123 -27zM268 440q-31 0 -54 -14t-35.5 -40t-12.5 -62v-17h198v18
q0 36 -10.5 61.5t-32 39.5t-53.5 14z" />
    <glyph glyph-name="uni0436" unicode="&#x436;" horiz-adv-x="801" 
d="M39 0v99h53l52 119q10 22 24.5 33.5t31.5 13.5v9q-17 4 -30 15t-23 34l-45 100h-53v99h55q38 0 62 -16t41 -54l62 -136h69v206h125v-206h68l63 136q17 38 41.5 54t61.5 16h55v-99h-53l-45 -100q-10 -23 -23 -34t-31 -15v-9q18 -2 32.5 -13.5t24.5 -33.5l52 -119h52v-99
h-61q-37 0 -61.5 16t-42.5 57l-65 144h-68v-217h-125v217h-69l-64 -144q-18 -41 -43 -57t-61 -16h-62z" />
    <glyph glyph-name="uni0437" unicode="&#x437;" horiz-adv-x="497" 
d="M235 -12q-73 0 -123 25.5t-89 71.5l76 76q24 -34 59 -53t78 -19q46 0 69.5 17.5t23.5 48.5v11q0 28 -18 42.5t-52 14.5h-106v87h94q34 0 51.5 14t17.5 41v11q0 26 -20.5 42t-62.5 16t-73.5 -18.5t-50.5 -49.5l-75 68q33 47 84 73.5t123 26.5q101 0 151.5 -39t50.5 -102
q0 -50 -25 -77.5t-77 -36.5v-9q55 -7 84.5 -37.5t29.5 -78.5q0 -77 -58.5 -121.5t-161.5 -44.5z" />
    <glyph glyph-name="uni0438" unicode="&#x438;" horiz-adv-x="579" 
d="M70 0v522h121v-237l-14 -118h8l56 108l155 247h113v-522h-121v238l14 118h-8l-56 -108l-155 -248h-113z" />
    <glyph glyph-name="uni0439" unicode="&#x439;" horiz-adv-x="579" 
d="M70 0v522h121v-237l-14 -118h8l56 108l155 247h113v-522h-121v238l14 118h-8l-56 -108l-155 -248h-113zM290 584q-59 0 -96.5 25.5t-58.5 76.5l-20 48l99 39l33 -99q8 -3 20 -4.5t23 -1.5q12 0 24 1.5t19 4.5l33 99l99 -39l-20 -48q-21 -51 -58 -76.5t-97 -25.5z" />
    <glyph glyph-name="uni043A" unicode="&#x43a;" horiz-adv-x="554" 
d="M70 0v522h124v-206h79l73 138q20 38 43.5 53t59.5 15h56v-99h-53l-54 -100q-13 -25 -24.5 -35t-29.5 -14v-9q18 -2 32 -12.5t26 -34.5l61 -119h53v-99h-64q-36 0 -60 16t-44 55l-75 146h-79v-217h-124z" />
    <glyph glyph-name="uni043B" unicode="&#x43b;" 
d="M12 -4v103h65q13 20 23 52t15 82.5t5 126.5v162h380v-522h-124v423h-137v-69q0 -95 -9 -158t-24.5 -101.5t-36.5 -59.5t-48.5 -30t-69.5 -9h-39z" />
    <glyph glyph-name="uni043C" unicode="&#x43c;" horiz-adv-x="687" 
d="M70 0v522h143l91 -166l36 -76h7l36 76l92 166h143v-522h-121v294l1 71h-8l-33 -68l-113 -205l-114 205l-33 68h-8l2 -70v-295h-121z" />
    <glyph glyph-name="uni043D" unicode="&#x43d;" horiz-adv-x="576" 
d="M70 0v522h124v-206h188v206h124v-522h-124v217h-188v-217h-124z" />
    <glyph glyph-name="uni043E" unicode="&#x43e;" horiz-adv-x="535" 
d="M267 -12q-71 0 -123 31.5t-79.5 92.5t-27.5 149q0 89 27.5 150t79.5 92t123 31q72 0 124 -31t79.5 -92t27.5 -150q0 -88 -27.5 -149t-79.5 -92.5t-124 -31.5zM267 89q48 0 74.5 29t26.5 85v116q0 57 -26.5 85.5t-74.5 28.5q-47 0 -73.5 -28.5t-26.5 -85.5v-116
q0 -56 26.5 -85t73.5 -29z" />
    <glyph glyph-name="uni043F" unicode="&#x43f;" horiz-adv-x="562" 
d="M70 0v522h422v-522h-124v423h-174v-423h-124z" />
    <glyph glyph-name="uni0440" unicode="&#x440;" horiz-adv-x="571" 
d="M70 -200v722h124v-86h10q12 44 48.5 71t84.5 27q64 0 106 -31.5t64 -92.5t22 -149t-21.5 -149t-64 -92.5t-106.5 -31.5q-48 0 -84.5 27t-48.5 71h-10v-286h-124zM293 91q48 0 76.5 31.5t28.5 85.5v107q0 54 -28.5 85t-76.5 31q-28 0 -50.5 -9.5t-35.5 -28t-13 -43.5v-177
q0 -26 13 -44.5t35.5 -28t50.5 -9.5z" />
    <glyph glyph-name="uni0441" unicode="&#x441;" horiz-adv-x="488" 
d="M265 -12q-110 0 -169 70t-59 203t59 203t169 70q78 0 127 -35t70 -96l-102 -46q-8 36 -31 56t-64 20q-49 0 -73.5 -30t-24.5 -85v-114q0 -55 24.5 -85t73.5 -30q44 0 67.5 22t36.5 60l96 -46q-24 -68 -74.5 -102.5t-125.5 -34.5z" />
    <glyph glyph-name="uni0442" unicode="&#x442;" horiz-adv-x="463" 
d="M169 0v423h-150v99h425v-99h-150v-423h-125z" />
    <glyph glyph-name="uni0443" unicode="&#x443;" horiz-adv-x="503" 
d="M290 244l84 278h120l-205 -623q-11 -36 -29 -58t-45 -31.5t-67 -9.5h-80v99h98l23 74l-181 549h126l84 -279l31 -134h9z" />
    <glyph glyph-name="uni0444" unicode="&#x444;" horiz-adv-x="751" 
d="M313 -200v256h-9q-14 -32 -41 -50t-66 -18q-52 0 -87 25.5t-52.5 86t-17.5 161.5q0 102 17.5 161.5t52.5 85.5t87 26q39 0 66 -18.5t41 -50.5h9v245h125v-245h9q14 32 41 50.5t66 18.5q52 0 87 -26t52.5 -85.5t17.5 -161.5q0 -101 -17.5 -161.5t-52.5 -86t-87 -25.5
q-39 0 -66 18t-41 50h-9v-256h-125zM248 81q23 0 37.5 7.5t21.5 22t7 34.5v233q0 20 -7 34t-21.5 21.5t-37.5 7.5q-40 0 -59 -27.5t-19 -95.5v-114q0 -67 19 -95t59 -28zM503 81q41 0 60 28t19 95v114q0 68 -19 95.5t-60 27.5q-23 0 -37.5 -7.5t-21 -21.5t-6.5 -34v-233
q0 -20 6.5 -34.5t21 -22t37.5 -7.5z" />
    <glyph glyph-name="uni0445" unicode="&#x445;" horiz-adv-x="516" 
d="M17 0l167 266l-164 256h139l100 -170h8l101 170h130l-166 -258l170 -264h-139l-105 178h-8l-103 -178h-130z" />
    <glyph glyph-name="uni0446" unicode="&#x446;" horiz-adv-x="594" 
d="M464 -140v140h-394v522h124v-423h174v423h124v-423h85v-239h-113z" />
    <glyph glyph-name="uni0447" unicode="&#x447;" horiz-adv-x="540" 
d="M346 0v228h-10q-16 -30 -47.5 -48.5t-80.5 -18.5q-81 0 -120.5 44.5t-39.5 133.5v183h124v-176q0 -42 19.5 -61.5t63.5 -19.5q43 0 67 15.5t24 41.5v200h124v-522h-124z" />
    <glyph glyph-name="uni0448" unicode="&#x448;" horiz-adv-x="791" 
d="M70 0v522h124v-423h139v423h125v-423h139v423h125v-522h-652z" />
    <glyph glyph-name="uni0449" unicode="&#x449;" horiz-adv-x="823" 
d="M693 -140v140h-623v522h124v-423h139v423h125v-423h139v423h125v-423h84v-239h-113z" />
    <glyph glyph-name="uni044A" unicode="&#x44a;" horiz-adv-x="598" 
d="M143 0v423h-124v99h249v-166h128q52 0 91 -21t61.5 -60.5t22.5 -96.5q0 -56 -22 -96t-61.5 -61t-91.5 -21h-253zM268 92h104q34 0 53 16.5t19 49.5v40q0 33 -19 49t-53 16h-104v-171z" />
    <glyph glyph-name="uni044B" unicode="&#x44b;" horiz-adv-x="749" 
d="M70 0v522h124v-166h118q52 0 91 -21t61.5 -60.5t22.5 -96.5t-22 -96.5t-61.5 -60.5t-91.5 -21h-242zM194 92h94q34 0 53 16.5t19 49.5v40q0 33 -19 49t-53 16h-94v-171zM555 0v522h124v-522h-124z" />
    <glyph glyph-name="uni044C" unicode="&#x44c;" horiz-adv-x="525" 
d="M70 0v522h124v-166h129q51 0 90.5 -21t61.5 -60.5t22 -96.5t-22 -96.5t-61 -60.5t-91 -21h-253zM194 92h105q34 0 53 16.5t19 49.5v40q0 33 -19 49t-53 16h-105v-171z" />
    <glyph glyph-name="uni044D" unicode="&#x44d;" horiz-adv-x="502" 
d="M165 221v87h170v13q0 54 -25.5 83.5t-78.5 29.5q-47 0 -72 -19t-36 -57l-98 53q27 59 75.5 91t130.5 32q116 0 175.5 -70t59.5 -203t-60.5 -203t-176.5 -70q-81 0 -127.5 31.5t-76.5 96.5l97 50q13 -39 37.5 -58t69.5 -19q55 0 80.5 29t25.5 86v17h-170z" />
    <glyph glyph-name="uni044E" unicode="&#x44e;" horiz-adv-x="772" 
d="M510 -12q-101 0 -158 60.5t-66 168.5h-92v-217h-124v522h124v-206h93q11 103 67.5 160.5t155.5 57.5q71 0 121.5 -31t77 -91.5t26.5 -150.5q0 -89 -26.5 -150t-77 -92t-121.5 -31zM510 89q46 0 70.5 28.5t24.5 85.5v116q0 57 -24.5 85.5t-70.5 28.5t-71 -28.5t-25 -85.5
v-116q0 -57 25 -85.5t71 -28.5z" />
    <glyph glyph-name="uni044F" unicode="&#x44f;" horiz-adv-x="547" 
d="M42 0v99h54l26 58q9 20 22.5 31t31.5 13v8q-59 6 -92.5 43t-33.5 102q0 53 21.5 90.5t60 57.5t89.5 20h257v-522h-125v188h-90l-51 -115q-18 -41 -42.5 -57t-62.5 -16h-65zM245 280h108v150h-108q-32 0 -50 -15.5t-18 -46.5v-28q0 -29 18 -44.5t50 -15.5z" />
    <glyph glyph-name="uni0450" unicode="&#x450;" horiz-adv-x="531" 
d="M274 -12q-72 0 -125.5 31.5t-82.5 92.5t-29 149t27 149t79 92.5t124 31.5q76 0 126 -32.5t75.5 -92.5t25.5 -143v-36h-328v-23q0 -54 31 -86.5t88 -32.5q45 0 75 19.5t52 52.5l68 -74q-31 -44 -83 -71t-123 -27zM268 440q-31 0 -54 -14t-35.5 -40t-12.5 -62v-17h198v18
q0 36 -10.5 61.5t-32 39.5t-53.5 14zM256 581l-123 172l107 52l91 -188z" />
    <glyph glyph-name="uni0451" unicode="&#x451;" horiz-adv-x="531" 
d="M274 -12q-72 0 -125.5 31.5t-82.5 92.5t-29 149t27 149t79 92.5t124 31.5q76 0 126 -32.5t75.5 -92.5t25.5 -143v-36h-328v-23q0 -54 31 -86.5t88 -32.5q45 0 75 19.5t52 52.5l68 -74q-31 -44 -83 -71t-123 -27zM268 440q-31 0 -54 -14t-35.5 -40t-12.5 -62v-17h198v18
q0 36 -10.5 61.5t-32 39.5t-53.5 14zM170 606q-38 0 -53.5 15.5t-15.5 40.5v23q0 25 15.5 40t53.5 15t53.5 -15t15.5 -40v-23q0 -25 -15.5 -40.5t-53.5 -15.5zM368 606q-38 0 -53.5 15.5t-15.5 40.5v23q0 25 15.5 40t53.5 15t53.5 -15t15.5 -40v-23q0 -25 -15.5 -40.5
t-53.5 -15.5z" />
    <glyph glyph-name="uni0452" unicode="&#x452;" horiz-adv-x="564" 
d="M295 -200v99h76v425q0 53 -19 80t-62 27q-25 0 -47 -9.5t-35.5 -28t-13.5 -45.5v-348h-125v598h-59v82h59v60h125v-60h135v-82h-135v-163h10q14 42 46.5 70.5t89.5 28.5q75 0 115.5 -50.5t40.5 -143.5v-411q0 -63 -31 -96t-100 -33h-70z" />
    <glyph glyph-name="uni0453" unicode="&#x453;" horiz-adv-x="420" 
d="M70 0v522h330v-99h-206v-423h-124zM365 753l-123 -172l-75 36l91 188z" />
    <glyph glyph-name="uni0454" unicode="&#x454;" horiz-adv-x="502" 
d="M273 -12q-116 0 -176 70t-60 203t59.5 203t174.5 70q84 0 131.5 -32t73.5 -91l-100 -52q-10 37 -34 56t-71 19q-53 0 -78.5 -30t-25.5 -83v-13h170v-87h-170v-17q0 -55 25.5 -85t80.5 -30q45 0 71 19t40 60l95 -52q-31 -65 -78.5 -96.5t-127.5 -31.5z" />
    <glyph glyph-name="uni0455" unicode="&#x455;" horiz-adv-x="475" 
d="M234 -12q-69 0 -119.5 24.5t-88.5 70.5l76 74q27 -34 60.5 -52.5t75.5 -18.5t62 16t20 46q0 24 -13.5 38t-46.5 19l-51 8q-54 9 -91 28t-55.5 51t-18.5 78q0 79 51.5 121.5t139.5 42.5q47 0 81.5 -9t62 -27t50.5 -45l-73 -73q-21 25 -51.5 40.5t-66.5 15.5
q-38 0 -56.5 -15t-18.5 -43q0 -27 14.5 -40t48.5 -19l52 -8q84 -13 122 -50.5t38 -101.5q0 -52 -24.5 -90.5t-70 -59.5t-109.5 -21z" />
    <glyph glyph-name="uni0456" unicode="&#x456;" horiz-adv-x="264" 
d="M132 601q-39 0 -56.5 17.5t-17.5 45.5v19q0 29 17.5 46t56.5 17q38 0 55.5 -17t17.5 -46v-19q0 -28 -17.5 -45.5t-55.5 -17.5zM70 0v522h124v-522h-124z" />
    <glyph glyph-name="uni0457" unicode="&#x457;" horiz-adv-x="264" 
d="M194 0h-124v522h124v-522zM33 606q-38 0 -53.5 15.5t-15.5 40.5v23q0 25 15.5 40t53.5 15t53.5 -15t15.5 -40v-23q0 -25 -15.5 -40.5t-53.5 -15.5zM231 606q-38 0 -53.5 15.5t-15.5 40.5v23q0 25 15.5 40t53.5 15t53.5 -15t15.5 -40v-23q0 -25 -15.5 -40.5t-53.5 -15.5z
" />
    <glyph glyph-name="uni0458" unicode="&#x458;" horiz-adv-x="265" 
d="M71 -101v623h125v-593q0 -63 -31.5 -96t-100.5 -33h-69v99h76zM133 601q-38 0 -55.5 17.5t-17.5 45.5v19q0 29 17.5 46t55.5 17q39 0 56.5 -17t17.5 -46v-19q0 -28 -17.5 -45.5t-56.5 -17.5z" />
    <glyph glyph-name="uni0459" unicode="&#x459;" horiz-adv-x="808" 
d="M12 -4v103h65q13 20 23 52t15 82.5t5 126.5v162h368v-166h117q52 0 91.5 -21t62 -60.5t22.5 -96.5t-22.5 -96.5t-61.5 -60.5t-91 -21h-243v423h-124v-69q0 -95 -9 -158t-24.5 -101.5t-36.5 -59.5t-48.5 -30t-69.5 -9h-39zM488 92h94q34 0 53 16.5t19 49.5v40q0 33 -19 49
t-53 16h-94v-171z" />
    <glyph glyph-name="uni045A" unicode="&#x45a;" horiz-adv-x="818" 
d="M70 0v522h124v-206h179v206h125v-166h118q52 0 91 -21t61.5 -60.5t22.5 -96.5t-22 -96.5t-61.5 -60.5t-91.5 -21h-243v217h-179v-217h-124zM498 92h94q34 0 53 16.5t19 49.5v40q0 33 -19 49t-53 16h-94v-171z" />
    <glyph glyph-name="uni045B" unicode="&#x45b;" horiz-adv-x="560" 
d="M194 0h-124v599h-60v82h60v59h124v-59h136v-82h-136v-164h10q14 42 46.5 70.5t89.5 28.5q75 0 115.5 -50.5t40.5 -143.5v-340h-125v324q0 53 -19 80t-62 27q-25 0 -47 -9.5t-35.5 -28t-13.5 -45.5v-348z" />
    <glyph glyph-name="uni045C" unicode="&#x45c;" horiz-adv-x="554" 
d="M70 0v522h124v-206h79l73 138q20 38 43.5 53t59.5 15h56v-99h-53l-54 -100q-13 -25 -24.5 -35t-29.5 -14v-9q18 -2 32 -12.5t26 -34.5l61 -119h53v-99h-64q-36 0 -60 16t-44 55l-75 146h-79v-217h-124zM420 753l-123 -172l-75 36l91 188z" />
    <glyph glyph-name="uni045D" unicode="&#x45d;" horiz-adv-x="579" 
d="M70 0v522h121v-237l-14 -118h8l56 108l155 247h113v-522h-121v238l14 118h-8l-56 -108l-155 -248h-113zM277 581l-123 172l107 52l91 -188z" />
    <glyph glyph-name="uni045E" unicode="&#x45e;" horiz-adv-x="503" 
d="M290 244l84 278h120l-205 -623q-11 -36 -29 -58t-45 -31.5t-67 -9.5h-80v99h98l23 74l-181 549h126l84 -279l31 -134h9zM253 584q-59 0 -96.5 25.5t-58.5 76.5l-20 48l99 39l33 -99q8 -3 20 -4.5t23 -1.5q12 0 24 1.5t19 4.5l33 99l99 -39l-20 -48q-21 -51 -58 -76.5
t-97 -25.5z" />
    <glyph glyph-name="uni045F" unicode="&#x45f;" horiz-adv-x="563" 
d="M225 -140v140h-155v522h124v-423h175v423h124v-522h-155v-140h-113z" />
    <glyph glyph-name="uni0462" unicode="&#x462;" horiz-adv-x="655" 
d="M111 0v517h-94v105h94v76h128v-76h172v-105h-172v-90h187q62 0 106 -26.5t67 -74.5t23 -112q0 -66 -23 -113.5t-67 -74t-106 -26.5h-315zM239 112h173q24 0 41 8.5t26 26t9 42.5v50q0 26 -9 42.5t-26 25t-41 8.5h-173v-203z" />
    <glyph glyph-name="uni0463" unicode="&#x463;" horiz-adv-x="533" 
d="M77 0v423h-72v99h72v188h125v-188h138v-99h-138v-81h128q52 0 91.5 -19.5t61.5 -58t22 -93.5t-22 -93t-61.5 -58t-91.5 -20h-253zM202 92h104q35 0 54 16.5t19 49.5v26q0 33 -19 49.5t-54 16.5h-104v-158z" />
    <glyph glyph-name="uni046A" unicode="&#x46a;" horiz-adv-x="925" 
d="M19 0l140 277q15 30 31.5 45t40.5 19v9l-153 235v113h768v-113l-154 -235v-9q24 -5 41.5 -19.5t32.5 -44.5l140 -277h-139l-142 281h-99v-281h-129v281h-99l-142 -281h-137zM345 390h236l122 189v7h-481v-7z" />
    <glyph glyph-name="uni046B" unicode="&#x46b;" horiz-adv-x="741" 
d="M10 0l102 210q10 21 26 33t34 15v5l-107 162v97h610v-97l-106 -162v-5q19 -3 34.5 -15t25.5 -33l102 -210h-133l-100 207h-67v-207h-122v207h-66l-101 -207h-132zM279 297h183l79 123v6h-341v-6z" />
    <glyph glyph-name="uni0472" unicode="&#x472;" horiz-adv-x="677" 
d="M338 -12q-87 0 -152 39t-101 119t-36 203q0 124 36 203.5t101 118.5t152 39q88 0 153 -39t100.5 -118.5t35.5 -203.5q0 -123 -35.5 -203t-100.5 -119t-153 -39zM338 96q51 0 86.5 22t54.5 63.5t19 100.5v51l16 -19q-9 -13 -33.5 -25.5t-55.5 -12.5q-25 0 -45.5 6
t-49.5 19q-22 11 -41.5 16.5t-41.5 5.5q-28 0 -49 -12t-48 -39l28 56v-51q0 -57 19.5 -97.5t55.5 -62t85 -21.5zM338 602q-49 0 -85.5 -21.5t-55.5 -62t-19 -99.5v-47l-13 23q9 11 32.5 23t54.5 12q25 0 46 -6t48 -19q23 -10 42.5 -16t41.5 -6q27 0 48.5 12.5t47.5 38.5
l-28 -57v44q0 58 -19 98.5t-54.5 61.5t-86.5 21z" />
    <glyph glyph-name="uni0473" unicode="&#x473;" horiz-adv-x="535" 
d="M267 -12q-71 0 -123 31.5t-79.5 92.5t-27.5 149q0 89 27.5 150t79.5 92t123 31q72 0 124 -31t79.5 -92t27.5 -150q0 -88 -27.5 -149t-79.5 -92.5t-124 -31.5zM267 83q51 0 79.5 29.5t28.5 88.5v21q-7 -7 -20.5 -12t-27.5 -5q-19 0 -33.5 5t-31.5 14q-15 8 -28 12t-27 4
q-13 0 -24 -4t-23 -14v-22q0 -58 29 -87.5t78 -29.5zM160 322v-20q7 7 20.5 12t27.5 5q18 0 33 -4.5t32 -14.5q15 -8 28 -12t27 -4q13 0 24 4t23 14v20q0 58 -28.5 87.5t-79.5 29.5q-49 0 -78 -29.5t-29 -87.5z" />
    <glyph glyph-name="uni0474" unicode="&#x474;" horiz-adv-x="638" 
d="M381 0h-149l-217 698h132l113 -386l44 -193h9l41 194l78 295q12 48 40.5 69t77.5 21h72v-104h-70z" />
    <glyph glyph-name="uni0475" unicode="&#x475;" horiz-adv-x="519" 
d="M327 0h-153l-164 522h124l74 -251l38 -164h11l33 165l39 158q13 51 39 71.5t76 20.5h60v-99h-62z" />
    <glyph glyph-name="uni0490" unicode="&#x490;" horiz-adv-x="486" 
d="M77 0v698h263v151h120v-264h-255v-585h-128z" />
    <glyph glyph-name="uni0491" unicode="&#x491;" horiz-adv-x="420" 
d="M70 0v522h217v140h113v-239h-206v-423h-124z" />
    <glyph glyph-name="uni0492" unicode="&#x492;" horiz-adv-x="513" 
d="M103 0v301h-84v96h84v301h384v-113h-255v-188h169v-96h-169v-301h-129z" />
    <glyph glyph-name="uni0493" unicode="&#x493;" horiz-adv-x="436" 
d="M86 0v215h-63v82h63v225h330v-99h-206v-126h127v-82h-127v-215h-124z" />
    <glyph glyph-name="uni0494" unicode="&#x494;" horiz-adv-x="625" 
d="M309 -177v117h95q20 21 30 54.5t10 82.5v78q0 67 -29.5 99t-89.5 32q-39 0 -68.5 -5.5t-51.5 -15.5v-265h-128v698h383v-113h-255v-211h10q23 11 54 17t70 6q118 0 175.5 -61t57.5 -185v-78q0 -85 -26 -140.5t-73.5 -82.5t-111.5 -27h-52z" />
    <glyph glyph-name="uni0495" unicode="&#x495;" horiz-adv-x="537" 
d="M264 -200v99h80q12 15 18 39.5t6 70.5v98q0 55 -19 76t-63 21t-68 -15.5t-24 -41.5v-147h-124v522h330v-99h-206v-182h10q15 30 46.5 48.5t81.5 18.5q83 0 121.5 -45.5t38.5 -148.5v-116q0 -102 -41.5 -150t-126.5 -48h-60z" />
    <glyph glyph-name="uni0496" unicode="&#x496;" horiz-adv-x="967" 
d="M835 -150v188l35 -38h-30q-38 0 -63.5 17t-45.5 61l-99 219h-94v-297h-128v297h-94l-100 -219q-19 -43 -44.5 -60.5t-62.5 -17.5h-72v113h59l83 181q13 30 29.5 43t38.5 16v9q-20 6 -36 19.5t-30 44.5l-71 159h-57v113h58q39 0 65.5 -18t44.5 -59l95 -212h94v289h128
v-289h94l95 212q18 41 44.5 59t65.5 18h58v-113h-58l-71 -159q-14 -31 -29.5 -44.5t-36.5 -19.5v-9q23 -3 39.5 -16t29.5 -43l82 -181h105v-263h-121z" />
    <glyph glyph-name="uni0497" unicode="&#x497;" horiz-adv-x="808" 
d="M680 -140v186l42 -46h-23q-37 0 -61.5 16.5t-41.5 56.5l-65 144h-68v-217h-125v217h-69l-64 -144q-18 -41 -43 -57t-61 -16h-62v99h53l52 119q10 22 24.5 33.5t31.5 13.5v9q-17 4 -30 15t-23 34l-45 100h-53v99h55q38 0 62 -16t41 -54l62 -136h69v206h125v-206h68l63 136
q17 38 41.5 54t61.5 16h55v-99h-53l-45 -100q-10 -23 -23 -34t-31 -15v-9q18 -2 32.5 -13.5t24.5 -33.5l52 -119h84v-239h-113z" />
    <glyph glyph-name="uni0498" unicode="&#x498;" horiz-adv-x="574" 
d="M211 -150v143q-55 8 -100.5 33.5t-81.5 71.5l86 83q28 -38 66 -58.5t89 -20.5q41 0 69 11t41.5 31.5t13.5 49.5v19q0 41 -25.5 63t-80.5 22h-111v112h105q34 0 56.5 10t33 29.5t10.5 48.5v17q0 40 -26.5 60.5t-80.5 20.5q-48 0 -84.5 -18t-60.5 -51l-81 77
q37 51 93.5 78.5t132.5 27.5q116 0 179.5 -51.5t63.5 -139.5q0 -71 -38.5 -108t-96.5 -44v-10q39 -2 72.5 -19.5t54.5 -50.5t21 -85q0 -88 -54.5 -142t-145.5 -68v-142h-120z" />
    <glyph glyph-name="uni0499" unicode="&#x499;" horiz-adv-x="497" 
d="M179 -140v133q-50 8 -87.5 31.5t-68.5 60.5l76 76q24 -34 59 -53t78 -19q46 0 69.5 17.5t23.5 48.5v11q0 28 -18 42.5t-52 14.5h-106v87h94q34 0 51.5 14t17.5 41v11q0 26 -20.5 42t-62.5 16t-73.5 -18.5t-50.5 -49.5l-75 68q33 47 84 73.5t123 26.5q101 0 151.5 -39
t50.5 -102q0 -50 -25 -77.5t-77 -36.5v-9q55 -7 84.5 -37.5t29.5 -78.5q0 -66 -43 -108.5t-120 -53.5v-132h-113z" />
    <glyph glyph-name="uni049A" unicode="&#x49a;" horiz-adv-x="657" 
d="M525 -150v195l38 -45h-35q-35 0 -59.5 16.5t-46.5 58.5l-113 222h-104v-297h-128v698h128v-289h104l109 213q20 40 45.5 58t64.5 18h56v-113h-57l-84 -164q-14 -28 -29 -40.5t-36 -18.5v-9q23 -2 39.5 -16t32.5 -44l91 -180h105v-263h-121z" />
    <glyph glyph-name="uni049B" unicode="&#x49b;" horiz-adv-x="562" 
d="M434 -140v186l41 -46h-25q-35 0 -58.5 16t-43.5 55l-75 146h-79v-217h-124v522h124v-206h79l73 138q20 38 43.5 53t59.5 15h56v-99h-53l-54 -100q-13 -25 -24.5 -35t-29.5 -14v-9q18 -2 32 -12.5t26 -34.5l61 -119h84v-239h-113z" />
    <glyph glyph-name="uni049C" unicode="&#x49c;" horiz-adv-x="702" 
d="M77 0v698h128v-289h44v141h97v-141h37l98 210q21 41 47.5 60t65.5 19h55v-114h-59l-73 -159q-11 -26 -26 -41t-39 -22v-9q24 -3 42 -18t31 -45l81 -176h58v-114h-71q-36 0 -62 16.5t-47 62.5l-101 218h-37v-141h-97v141h-44v-297h-128z" />
    <glyph glyph-name="uni049D" unicode="&#x49d;" horiz-adv-x="618" 
d="M70 0v522h124v-206h41v115h80v-115h31l61 131q19 42 43.5 58.5t62.5 16.5h56v-99h-53l-47 -100q-12 -25 -23.5 -35.5t-27.5 -13.5v-9q18 -2 31 -12t23 -35l55 -119h53v-99h-63q-37 0 -62 17t-44 56l-65 144h-31v-115h-80v115h-41v-217h-124z" />
    <glyph glyph-name="uni049E" unicode="&#x49e;" horiz-adv-x="671" 
d="M111 0v541h-94v96h94v61h128v-61h122v-96h-122v-132h104l108 213q21 40 46.5 58t64.5 18h56v-113h-57l-84 -164q-14 -28 -29 -40.5t-36 -18.5v-9q23 -2 39.5 -16t31.5 -44l92 -180h58v-113h-70q-36 0 -61 16.5t-47 58.5l-112 222h-104v-297h-128z" />
    <glyph glyph-name="uni049F" unicode="&#x49f;" horiz-adv-x="553" 
d="M69 0v563h-59v82h59v95h125v-95h135v-82h-135v-247h78l74 138q20 38 43 53t60 15h55v-99h-53l-53 -100q-13 -25 -24.5 -35t-29.5 -14v-9q18 -2 32 -12.5t26 -34.5l61 -119h52v-99h-63q-36 0 -60 16t-44 55l-76 146h-78v-217h-125z" />
    <glyph glyph-name="uni04A0" unicode="&#x4a0;" horiz-adv-x="736" 
d="M176 0v585h-153v113h281v-289h104l108 213q20 40 46 58t65 18h56v-113h-57l-84 -164q-14 -27 -29 -40t-36 -19v-9q23 -2 40 -15.5t31 -44.5l92 -180h59v-113h-71q-36 0 -61 16.5t-46 58.5l-113 222h-104v-297h-128z" />
    <glyph glyph-name="uni04A1" unicode="&#x4a1;" horiz-adv-x="627" 
d="M143 0v423h-124v99h249v-206h78l74 138q20 38 43 53t60 15h55v-99h-53l-53 -100q-13 -25 -24.5 -35t-29.5 -14v-9q18 -2 32 -12.5t26 -34.5l61 -119h52v-99h-63q-36 0 -60 16t-45 55l-75 146h-78v-217h-125z" />
    <glyph glyph-name="uni04A2" unicode="&#x4a2;" horiz-adv-x="737" 
d="M591 -150v150h-112v297h-274v-297h-128v698h128v-289h274v289h128v-585h104v-263h-120z" />
    <glyph glyph-name="uni04A3" unicode="&#x4a3;" horiz-adv-x="608" 
d="M478 -140v140h-96v217h-188v-217h-124v522h124v-206h188v206h124v-423h85v-239h-113z" />
    <glyph glyph-name="uni04A4" unicode="&#x4a4;" horiz-adv-x="868" 
d="M77 0v698h128v-289h254v289h383v-113h-254v-585h-129v297h-254v-297h-128z" />
    <glyph glyph-name="uni04A5" unicode="&#x4a5;" horiz-adv-x="724" 
d="M70 0v522h124v-206h179v206h331v-99h-206v-423h-125v217h-179v-217h-124z" />
    <glyph glyph-name="uni04A6" unicode="&#x4a6;" horiz-adv-x="977" 
d="M664 -177v117h94q20 21 30 54.5t10 82.5v78q0 67 -28 99t-84 32q-37 0 -63.5 -5.5t-48.5 -15.5v-265h-129v585h-240v-585h-128v698h497v-324h9q23 11 51.5 17t65.5 6q114 0 170.5 -61t56.5 -185v-78q0 -85 -25.5 -140.5t-72.5 -82.5t-111 -27h-54z" />
    <glyph glyph-name="uni04A7" unicode="&#x4a7;" horiz-adv-x="811" 
d="M537 -200v99h80q12 15 18 39.5t6 70.5v98q0 55 -18 76t-59 21q-40 0 -63 -15t-24 -41v-148h-124v423h-159v-423h-124v522h407v-281h10q16 30 45 48.5t77 18.5q80 0 118.5 -45.5t38.5 -148.5v-116q0 -102 -41 -150t-126 -48h-62z" />
    <glyph glyph-name="uni04A8" unicode="&#x4a8;" horiz-adv-x="856" 
d="M821 66v-110h-54q-59 0 -117 15t-107 42q-30 -12 -68 -18.5t-87 -6.5q-103 0 -179 41t-118 124t-42 211q0 111 35 188.5t99 117.5t150 40q13 0 25.5 -1t20.5 -2l-13 -110q-6 2 -15.5 2.5t-16.5 0.5q-47 0 -82 -19.5t-53.5 -56t-18.5 -85.5v-150q0 -64 26.5 -109
t73.5 -68.5t108 -23.5q17 0 30.5 1.5t24.5 2.5q-50 45 -76 111t-26 160q0 99 28 162t79.5 93t120.5 30q71 0 122 -30t79 -93.5t28 -161.5q0 -97 -31.5 -168t-98.5 -113q21 -8 47 -12t54 -4h52zM466 416v-101q0 -60 23 -104.5t72 -78.5q56 30 84 75.5t28 107.5v101
q0 58 -26.5 91t-77.5 33q-50 0 -76.5 -33t-26.5 -91z" />
    <glyph glyph-name="uni04A9" unicode="&#x4a9;" horiz-adv-x="681" 
d="M658 55v-99h-47q-50 0 -97 12.5t-88 35.5q-20 -7 -50 -11.5t-63 -4.5q-83 0 -145 32t-96.5 95.5t-34.5 155.5q0 84 26.5 142.5t77 89.5t121.5 31q9 0 17.5 -0.5t15.5 -1.5l-10 -95q-5 1 -11 1h-12q-46 0 -73 -29.5t-27 -84.5v-103q0 -48 19 -81t53.5 -50.5t81.5 -17.5
q7 0 12.5 0.5t10.5 1.5q-35 34 -53.5 81t-18.5 113q0 108 48.5 164t137.5 56t137.5 -56t48.5 -164q0 -65 -25.5 -117.5t-77.5 -86.5q14 -4 34 -6.5t41 -2.5h47zM389 310v-74q0 -39 14.5 -69.5t44.5 -55.5q35 22 52 54t17 71v74q0 40 -17 61t-47 21t-47 -21t-17 -61z" />
    <glyph glyph-name="uni04AA" unicode="&#x4aa;" horiz-adv-x="611" 
d="M336 -12q-88 0 -152 38t-99.5 117t-35.5 202t35.5 204t99.5 121t152 40q93 0 150.5 -39.5t92.5 -120.5l-109 -58q-14 48 -44.5 76t-89.5 28q-70 0 -110 -46t-40 -131v-142q0 -84 40 -129.5t110 -45.5q59 0 92.5 31.5t49.5 79.5l104 -61q-35 -78 -94 -121t-152 -43z
M340 -210q-45 0 -72 13.5t-40 29.5l41 50q9 -11 24.5 -19t37.5 -8q21 0 32 6.5t11 21.5t-11.5 24.5t-45.5 11.5l-36 2l21 104h59l-17 -89l7 -2q7 6 17.5 9.5t24.5 3.5q30 0 48.5 -17t18.5 -52q0 -32 -16 -51.5t-43 -28.5t-61 -9z" />
    <glyph glyph-name="uni04AB" unicode="&#x4ab;" horiz-adv-x="488" 
d="M265 -12q-110 0 -169 70t-59 203t59 203t169 70q78 0 127 -35t70 -96l-102 -46q-8 36 -31 56t-64 20q-49 0 -73.5 -30t-24.5 -85v-114q0 -55 24.5 -85t73.5 -30q44 0 67.5 22t36.5 60l96 -46q-24 -68 -74.5 -102.5t-125.5 -34.5zM269 -210q-45 0 -72 13.5t-40 29.5l41 50
q9 -11 24.5 -19t37.5 -8q21 0 32 6.5t11 21.5t-11.5 24.5t-45.5 11.5l-36 2l21 104h59l-17 -89l7 -2q7 6 17.5 9.5t24.5 3.5q30 0 48.5 -17t18.5 -52q0 -32 -16 -51.5t-43 -28.5t-61 -9z" />
    <glyph glyph-name="uni04AC" unicode="&#x4ac;" horiz-adv-x="552" 
d="M527 585h-187v-472h104v-263h-120v150h-112v585h-187v113h502v-113z" />
    <glyph glyph-name="uni04AD" unicode="&#x4ad;" horiz-adv-x="463" 
d="M169 0v423h-150v99h425v-99h-150v-324h84v-239h-113v140h-96z" />
    <glyph glyph-name="uni04AE" unicode="&#x4ae;" horiz-adv-x="599" 
d="M364 0h-129v270l-227 428h143l148 -297h8l144 297h140l-227 -427v-271z" />
    <glyph glyph-name="uni04AF" unicode="&#x4af;" horiz-adv-x="501" 
d="M188 -200v200l-178 522h124l72 -228l42 -165h11l42 165l71 228h119l-178 -522v-200h-125z" />
    <glyph glyph-name="uni04B0" unicode="&#x4b0;" horiz-adv-x="599" 
d="M235 0v175h-138v95h138l-227 428h143l148 -297h8l144 297h140l-227 -428h137v-95h-137v-175h-129z" />
    <glyph glyph-name="uni04B1" unicode="&#x4b1;" horiz-adv-x="501" 
d="M188 -200v118h-114v82h114l-178 522h124l72 -228l42 -165h11l42 165l71 228h119l-178 -522h114v-82h-114v-118h-125z" />
    <glyph glyph-name="uni04B2" unicode="&#x4b2;" horiz-adv-x="651" 
d="M522 -150v150h-63l-149 264h-8l-146 -264h-138l212 358l-203 340h149l136 -245h9l138 245h139l-206 -340l148 -245h102v-263h-120z" />
    <glyph glyph-name="uni04B3" unicode="&#x4b3;" horiz-adv-x="533" 
d="M412 -140v140h-49l-105 178h-8l-103 -178h-130l167 266l-164 256h139l100 -170h8l100 170h131l-166 -259l106 -164h87v-239h-113z" />
    <glyph glyph-name="uni04B4" unicode="&#x4b4;" horiz-adv-x="848" 
d="M702 -150v150h-507v585h-170v113h469v-113h-170v-472h266v585h128v-585h104v-263h-120z" />
    <glyph glyph-name="uni04B5" unicode="&#x4b5;" horiz-adv-x="690" 
d="M560 -140v140h-411v423h-130v99h385v-99h-130v-324h190v423h124v-423h85v-239h-113z" />
    <glyph glyph-name="uni04B6" unicode="&#x4b6;" horiz-adv-x="688" 
d="M542 -150v150h-113v258h-9q-23 -10 -55 -16.5t-74 -6.5q-121 0 -180 60t-59 183v220h128v-224q0 -66 31 -97t94 -31q43 0 73 6t51 15v331h129v-585h104v-263h-120z" />
    <glyph glyph-name="uni04B7" unicode="&#x4b7;" horiz-adv-x="572" 
d="M442 -140v140h-96v228h-10q-16 -30 -47.5 -48.5t-80.5 -18.5q-81 0 -120.5 44.5t-39.5 133.5v183h124v-176q0 -42 19.5 -61.5t63.5 -19.5q43 0 67 15.5t24 41.5v200h124v-423h85v-239h-113z" />
    <glyph glyph-name="uni04B8" unicode="&#x4b8;" horiz-adv-x="649" 
d="M444 0v257h-9q-14 -6 -32 -11t-39 -8v-131h-96v129q-109 6 -162.5 65t-53.5 177v220h128v-224q0 -57 22.5 -86.5t65.5 -38.5v151h96v-153q22 2 42 6.5t38 12.5v332h128v-698h-128z" />
    <glyph glyph-name="uni04B9" unicode="&#x4b9;" horiz-adv-x="553" 
d="M359 0v216h-8q-7 -12 -19 -24t-27 -20v-94h-79v84q-92 0 -135 44t-43 133v183h124v-176q0 -35 13.5 -54t40.5 -25v141h79v-141q23 3 38.5 17t15.5 36v202h125v-522h-125z" />
    <glyph glyph-name="uni04BA" unicode="&#x4ba;" horiz-adv-x="635" 
d="M77 0v698h128v-258h10q23 11 55 17t74 6q121 0 179.5 -60t58.5 -183v-220h-128v224q0 66 -30.5 97t-94.5 31q-41 0 -71.5 -5.5t-52.5 -15.5v-331h-128z" />
    <glyph glyph-name="uni04BB" unicode="&#x4bb;" horiz-adv-x="560" 
d="M70 0v740h124v-305h10q14 42 46.5 70.5t89.5 28.5q75 0 115.5 -50.5t40.5 -143.5v-340h-125v324q0 53 -19 80t-62 27q-25 0 -47 -9.5t-35.5 -28t-13.5 -45.5v-348h-124z" />
    <glyph glyph-name="uni04BC" unicode="&#x4bc;" horiz-adv-x="815" 
d="M771 349v-39h-485l43 35v-56q0 -63 18.5 -104.5t53 -62.5t83.5 -21q65 0 101 31t52 89l114 -42q-18 -55 -52.5 -98t-88 -68t-126.5 -25q-86 0 -149 36t-99.5 108t-42.5 178h-79q-46 0 -67 22t-21 63v128h105v-109h64q10 97 45.5 162.5t96.5 99.5t145 34q88 0 153 -38.5
t100.5 -118.5t35.5 -204zM482 597q-49 0 -83.5 -21t-52 -61t-17.5 -99v-34l-43 32h387l-39 -37v39q0 59 -17.5 99.5t-51.5 61t-83 20.5z" />
    <glyph glyph-name="uni04BD" unicode="&#x4bd;" horiz-adv-x="658" 
d="M405 -12q-71 0 -122 29t-80.5 83.5t-34.5 129.5h-75q-37 0 -54.5 22t-17.5 62v101h98v-108h50q11 106 68 166.5t161 60.5q75 0 125.5 -32.5t76 -92.5t25.5 -143v-36h-328v-23q0 -54 30.5 -86.5t87.5 -32.5q45 0 75 19.5t53 52.5l67 -74q-31 -44 -83 -71t-122 -27z
M399 440q-32 0 -55 -14t-35 -40t-12 -62v-17h198v18q0 36 -11 61.5t-32.5 39.5t-52.5 14z" />
    <glyph glyph-name="uni04BE" unicode="&#x4be;" horiz-adv-x="815" 
d="M771 349v-39h-485l43 36v-57q0 -63 18.5 -104.5t53 -62.5t83.5 -21q65 0 101 31t52 89l114 -42q-16 -49 -44 -87.5t-68 -63.5t-92 -34v-144h-120v143q-69 11 -119.5 50t-79.5 105.5t-35 161.5h-79q-46 0 -67 22t-21 63v128h105v-109h64q10 97 45.5 162.5t96.5 99.5
t145 34q88 0 153 -38.5t100.5 -118.5t35.5 -204zM482 597q-49 0 -83.5 -21t-52 -61t-17.5 -99v-34l-43 32h387l-39 -37v39q0 59 -17.5 99.5t-51.5 61t-83 20.5z" />
    <glyph glyph-name="uni04BF" unicode="&#x4bf;" horiz-adv-x="658" 
d="M462 -7v-133h-113v133q-78 16 -126 76t-55 161h-75q-37 0 -54.5 22t-17.5 62v101h98v-108h50q11 106 68 166.5t161 60.5q75 0 125.5 -32.5t76 -92.5t25.5 -143v-36h-328v-23q0 -54 30.5 -86.5t87.5 -32.5q45 0 75 19.5t53 52.5l67 -74q-25 -37 -63 -61t-85 -32zM399 440
q-32 0 -55 -14t-35 -40t-12 -62v-17h198v18q0 36 -11 61.5t-32.5 39.5t-52.5 14z" />
    <glyph glyph-name="uni04C0" unicode="&#x4c0;" horiz-adv-x="405" 
d="M354 0h-304v103h88v492h-88v103h304v-103h-88v-492h88v-103z" />
    <glyph glyph-name="uni04C1" unicode="&#x4c1;" horiz-adv-x="948" 
d="M37 0v113h59l83 181q13 30 29.5 43t38.5 16v9q-20 6 -36 19.5t-30 44.5l-71 159h-57v113h58q39 0 65.5 -18t44.5 -59l95 -212h94v289h128v-289h94l95 212q18 41 44.5 59t65.5 18h58v-113h-58l-71 -159q-14 -31 -29.5 -44.5t-36.5 -19.5v-9q23 -3 39.5 -16t29.5 -43
l82 -181h59v-113h-71q-37 0 -62.5 17.5t-45.5 60.5l-99 219h-94v-297h-128v297h-94l-100 -219q-19 -43 -44.5 -60.5t-62.5 -17.5h-72zM474 746q-60 0 -97 25t-58 77l-20 48l98 38l33 -98q8 -3 20 -5t24 -2q11 0 23 2t20 5l33 98l98 -38l-20 -48q-21 -52 -58 -77t-96 -25z
" />
    <glyph glyph-name="uni04C2" unicode="&#x4c2;" horiz-adv-x="801" 
d="M39 0v99h53l52 119q10 22 24.5 33.5t31.5 13.5v9q-17 4 -30 15t-23 34l-45 100h-53v99h55q38 0 62 -16t41 -54l62 -136h69v206h125v-206h68l63 136q17 38 41.5 54t61.5 16h55v-99h-53l-45 -100q-10 -23 -23 -34t-31 -15v-9q18 -2 32.5 -13.5t24.5 -33.5l52 -119h52v-99
h-61q-37 0 -61.5 16t-42.5 57l-65 144h-68v-217h-125v217h-69l-64 -144q-18 -41 -43 -57t-61 -16h-62zM400 584q-59 0 -96.5 25.5t-58.5 76.5l-20 48l99 39l33 -99q8 -3 20 -4.5t23 -1.5q12 0 24 1.5t19 4.5l33 99l99 -39l-20 -48q-21 -51 -58 -76.5t-97 -25.5z" />
    <glyph glyph-name="uni04CF" unicode="&#x4cf;" horiz-adv-x="264" 
d="M70 0v740h124v-740h-124z" />
    <glyph glyph-name="uni04D0" unicode="&#x4d0;" horiz-adv-x="639" 
d="M619 0h-131l-52 180h-236l-52 -180h-127l219 698h161zM405 287l-55 184l-28 111h-10l-27 -111l-54 -184h174zM319 746q-60 0 -97 25t-58 77l-20 48l98 38l33 -98q8 -3 20 -5t24 -2q11 0 23 2t20 5l33 98l98 -38l-20 -48q-21 -52 -58 -77t-96 -25z" />
    <glyph glyph-name="uni04D1" unicode="&#x4d1;" horiz-adv-x="532" 
d="M504 0h-72q-27 0 -47.5 11.5t-32.5 35.5t-12 61v13l28 -32h-36q-11 -48 -49 -74.5t-93 -26.5q-76 0 -115.5 41.5t-39.5 111.5q0 54 24.5 89.5t72 53.5t114.5 18h84v42q0 44 -21 67.5t-69 23.5q-41 0 -67.5 -19t-44.5 -48l-74 66q29 45 75.5 72.5t120.5 27.5
q101 0 153 -47.5t52 -137.5v-250h49v-99zM330 226h-77q-47 0 -69.5 -16.5t-22.5 -48.5v-19q0 -32 19.5 -47.5t53.5 -15.5q27 0 48.5 9t34.5 27t13 42v69zM251 584q-59 0 -96.5 25.5t-58.5 76.5l-20 48l99 39l33 -99q8 -3 20 -4.5t23 -1.5q12 0 24 1.5t19 4.5l33 99l99 -39
l-20 -48q-21 -51 -58 -76.5t-97 -25.5z" />
    <glyph glyph-name="uni04D2" unicode="&#x4d2;" horiz-adv-x="639" 
d="M619 0h-131l-52 180h-236l-52 -180h-127l219 698h161zM405 287l-55 184l-28 111h-10l-27 -111l-54 -184h174zM220 771q-38 0 -53.5 15.5t-15.5 39.5v24q0 24 15.5 39.5t53.5 15.5t53.5 -15.5t15.5 -39.5v-24q0 -24 -15.5 -39.5t-53.5 -15.5zM418 771q-38 0 -53.5 15.5
t-15.5 39.5v24q0 24 15.5 39.5t53.5 15.5t53.5 -15.5t15.5 -39.5v-24q0 -24 -15.5 -39.5t-53.5 -15.5z" />
    <glyph glyph-name="uni04D3" unicode="&#x4d3;" horiz-adv-x="532" 
d="M504 0h-72q-27 0 -47.5 11.5t-32.5 35.5t-12 61v13l28 -32h-36q-11 -48 -49 -74.5t-93 -26.5q-76 0 -115.5 41.5t-39.5 111.5q0 54 24.5 89.5t72 53.5t114.5 18h84v42q0 44 -21 67.5t-69 23.5q-41 0 -67.5 -19t-44.5 -48l-74 66q29 45 75.5 72.5t120.5 27.5
q101 0 153 -47.5t52 -137.5v-250h49v-99zM330 226h-77q-47 0 -69.5 -16.5t-22.5 -48.5v-19q0 -32 19.5 -47.5t53.5 -15.5q27 0 48.5 9t34.5 27t13 42v69zM152 606q-38 0 -53.5 15.5t-15.5 40.5v23q0 25 15.5 40t53.5 15t53.5 -15t15.5 -40v-23q0 -25 -15.5 -40.5
t-53.5 -15.5zM350 606q-38 0 -53.5 15.5t-15.5 40.5v23q0 25 15.5 40t53.5 15t53.5 -15t15.5 -40v-23q0 -25 -15.5 -40.5t-53.5 -15.5z" />
    <glyph glyph-name="uni04D4" unicode="&#x4d4;" horiz-adv-x="904" 
d="M410 0v180h-199l-81 -180h-129l325 698h524v-113h-312v-176h274v-112h-274v-184h312v-113h-440zM410 585h-17l-135 -299h152v299z" />
    <glyph glyph-name="uni04D5" unicode="&#x4d5;" horiz-adv-x="823" 
d="M333 229h-80q-45 0 -68.5 -17.5t-23.5 -49.5v-18q0 -33 19 -49t55 -16q26 0 48.5 9t36 27t13.5 42v72zM459 306h198v19q0 36 -11 61.5t-32.5 39.5t-52.5 14q-32 0 -55 -14t-35 -40t-12 -62v-18zM578 89q45 0 75.5 19.5t52.5 51.5l67 -74q-31 -44 -81.5 -71t-119.5 -27
q-45 0 -84 14t-65.5 38.5t-36.5 54.5h-10q-8 -29 -31.5 -53t-61 -39t-90.5 -15q-76 0 -117 42t-41 112q0 55 25.5 91t72.5 54.5t113 18.5h87v37q0 45 -22.5 68.5t-70.5 23.5q-41 0 -67.5 -19t-44.5 -48l-74 66q28 45 74.5 72.5t117.5 27.5q36 0 65.5 -11t50.5 -32.5
t31 -52.5h9q10 29 33 51t57 33.5t74 11.5q74 0 123 -32.5t73.5 -93t24.5 -143.5v-36h-329v-22q0 -54 32 -86t88 -32z" />
    <glyph glyph-name="uni04D6" unicode="&#x4d6;" horiz-adv-x="571" 
d="M517 0h-440v698h440v-113h-312v-176h274v-112h-274v-184h312v-113zM297 746q-60 0 -97 25t-58 77l-20 48l98 38l33 -98q8 -3 20 -5t24 -2q11 0 23 2t20 5l33 98l98 -38l-20 -48q-21 -52 -58 -77t-96 -25z" />
    <glyph glyph-name="uni04D7" unicode="&#x4d7;" horiz-adv-x="531" 
d="M274 -12q-72 0 -125.5 31.5t-82.5 92.5t-29 149t27 149t79 92.5t124 31.5q76 0 126 -32.5t75.5 -92.5t25.5 -143v-36h-328v-23q0 -54 31 -86.5t88 -32.5q45 0 75 19.5t52 52.5l68 -74q-31 -44 -83 -71t-123 -27zM268 440q-31 0 -54 -14t-35.5 -40t-12.5 -62v-17h198v18
q0 36 -10.5 61.5t-32 39.5t-53.5 14zM269 584q-59 0 -96.5 25.5t-58.5 76.5l-20 48l99 39l33 -99q8 -3 20 -4.5t23 -1.5q12 0 24 1.5t19 4.5l33 99l99 -39l-20 -48q-21 -51 -58 -76.5t-97 -25.5z" />
    <glyph glyph-name="uni04D8" unicode="&#x4d8;" horiz-adv-x="677" 
d="M49 388h442v21q0 94 -39 141t-113 47q-64 0 -100 -31t-52 -89l-114 42q18 56 52.5 98.5t88 67.5t126.5 25q88 0 153 -39t100 -119t35 -203q0 -122 -35.5 -202.5t-100.5 -119.5t-154 -39q-88 0 -153 39t-100.5 119t-35.5 203v39zM187 284v-8q0 -53 17 -92.5t51 -61
t83 -21.5q51 0 84.5 21t50.5 60.5t17 93.5v8h-303z" />
    <glyph glyph-name="uni04D9" unicode="&#x4d9;" horiz-adv-x="531" 
d="M37 292h328v23q0 55 -30 87t-87 32q-46 0 -76 -20t-50 -51l-68 73q31 45 83 71.5t122 26.5q72 0 125 -31.5t82 -92.5t29 -149t-27.5 -149t-79 -92.5t-124.5 -31.5q-76 0 -126.5 33t-75.5 93t-25 142v36zM167 215v-18q0 -36 10.5 -61.5t32.5 -39t53 -13.5q32 0 55 14
t35 39.5t12 61.5v17h-198z" />
    <glyph glyph-name="uni04DC" unicode="&#x4dc;" horiz-adv-x="948" 
d="M37 0v113h59l83 181q13 30 29.5 43t38.5 16v9q-20 6 -36 19.5t-30 44.5l-71 159h-57v113h58q39 0 65.5 -18t44.5 -59l95 -212h94v289h128v-289h94l95 212q18 41 44.5 59t65.5 18h58v-113h-58l-71 -159q-14 -31 -29.5 -44.5t-36.5 -19.5v-9q23 -3 39.5 -16t29.5 -43
l82 -181h59v-113h-71q-37 0 -62.5 17.5t-45.5 60.5l-99 219h-94v-297h-128v297h-94l-100 -219q-19 -43 -44.5 -60.5t-62.5 -17.5h-72zM375 771q-38 0 -53.5 15.5t-15.5 39.5v24q0 24 15.5 39.5t53.5 15.5t53.5 -15.5t15.5 -39.5v-24q0 -24 -15.5 -39.5t-53.5 -15.5zM573 771
q-38 0 -53.5 15.5t-15.5 39.5v24q0 24 15.5 39.5t53.5 15.5t53.5 -15.5t15.5 -39.5v-24q0 -24 -15.5 -39.5t-53.5 -15.5z" />
    <glyph glyph-name="uni04DD" unicode="&#x4dd;" horiz-adv-x="801" 
d="M39 0v99h53l52 119q10 22 24.5 33.5t31.5 13.5v9q-17 4 -30 15t-23 34l-45 100h-53v99h55q38 0 62 -16t41 -54l62 -136h69v206h125v-206h68l63 136q17 38 41.5 54t61.5 16h55v-99h-53l-45 -100q-10 -23 -23 -34t-31 -15v-9q18 -2 32.5 -13.5t24.5 -33.5l52 -119h52v-99
h-61q-37 0 -61.5 16t-42.5 57l-65 144h-68v-217h-125v217h-69l-64 -144q-18 -41 -43 -57t-61 -16h-62zM301 606q-38 0 -53.5 15.5t-15.5 40.5v23q0 25 15.5 40t53.5 15t53.5 -15t15.5 -40v-23q0 -25 -15.5 -40.5t-53.5 -15.5zM499 606q-38 0 -53.5 15.5t-15.5 40.5v23
q0 25 15.5 40t53.5 15t53.5 -15t15.5 -40v-23q0 -25 -15.5 -40.5t-53.5 -15.5z" />
    <glyph glyph-name="uni04DE" unicode="&#x4de;" horiz-adv-x="574" 
d="M272 -12q-81 0 -141 28t-102 82l86 83q28 -38 66 -58.5t89 -20.5q41 0 69 11t41.5 31.5t13.5 49.5v19q0 41 -25.5 63t-80.5 22h-111v112h105q34 0 56.5 10t33 29.5t10.5 48.5v17q0 40 -26.5 60.5t-80.5 20.5q-48 0 -84.5 -18t-60.5 -51l-81 77q37 51 93.5 78.5
t133.5 27.5q116 0 179 -51.5t63 -139.5q0 -71 -38.5 -108t-96.5 -44v-10q39 -2 72.5 -19.5t54.5 -50.5t21 -85q0 -65 -31 -113t-89 -74.5t-139 -26.5zM175 771q-38 0 -53.5 15.5t-15.5 39.5v24q0 24 15.5 39.5t53.5 15.5t53.5 -15.5t15.5 -39.5v-24q0 -24 -15.5 -39.5
t-53.5 -15.5zM373 771q-38 0 -53.5 15.5t-15.5 39.5v24q0 24 15.5 39.5t53.5 15.5t53.5 -15.5t15.5 -39.5v-24q0 -24 -15.5 -39.5t-53.5 -15.5z" />
    <glyph glyph-name="uni04DF" unicode="&#x4df;" horiz-adv-x="497" 
d="M235 -12q-73 0 -123 25.5t-89 71.5l76 76q24 -34 59 -53t78 -19q46 0 69.5 17.5t23.5 48.5v11q0 28 -18 42.5t-52 14.5h-106v87h94q34 0 51.5 14t17.5 41v11q0 26 -20.5 42t-62.5 16t-73.5 -18.5t-50.5 -49.5l-75 68q33 47 84 73.5t123 26.5q101 0 151.5 -39t50.5 -102
q0 -50 -25 -77.5t-77 -36.5v-9q55 -7 84.5 -37.5t29.5 -78.5q0 -77 -58.5 -121.5t-161.5 -44.5zM142 606q-38 0 -53.5 15.5t-15.5 40.5v23q0 25 15.5 40t53.5 15t53.5 -15t15.5 -40v-23q0 -25 -15.5 -40.5t-53.5 -15.5zM340 606q-38 0 -53.5 15.5t-15.5 40.5v23
q0 25 15.5 40t53.5 15t53.5 -15t15.5 -40v-23q0 -25 -15.5 -40.5t-53.5 -15.5z" />
    <glyph glyph-name="uni04E0" unicode="&#x4e0;" horiz-adv-x="569" 
d="M272 -12q-81 0 -141 28t-102 82l86 83q28 -38 66 -58.5t89 -20.5q41 0 69 11t41.5 32t13.5 51v22q0 30 -12.5 49.5t-36.5 29t-60 9.5h-127v109l196 172v10l-91 -12h-188v113h426v-121l-180 -161v-44l-30 36h29q57 0 105 -20.5t77 -63.5t29 -112q0 -70 -30.5 -120t-89 -77
t-139.5 -27z" />
    <glyph glyph-name="uni04E1" unicode="&#x4e1;" horiz-adv-x="475" 
d="M230 -199q-72 0 -122 26t-86 80l83 69q18 -37 49.5 -56t73.5 -19q32 0 54 12t33 34.5t11 53.5v40q0 46 -28 71t-78 25h-101v85l183 203v10l-82 -12h-158v99h361v-106l-167 -185v-49l-35 40h27q64 0 110 -22.5t70.5 -67.5t24.5 -112t-26.5 -116.5t-76 -76t-120.5 -26.5z
" />
    <glyph glyph-name="uni04E2" unicode="&#x4e2;" horiz-adv-x="684" 
d="M77 0v698h125v-375l-12 -137h8l62 132l231 380h116v-698h-125v375l12 137h-8l-61 -131l-232 -381h-116zM200 792v92h284v-92h-284z" />
    <glyph glyph-name="uni04E3" unicode="&#x4e3;" horiz-adv-x="579" 
d="M70 0v522h121v-237l-14 -118h8l56 108l155 247h113v-522h-121v238l14 118h-8l-56 -108l-155 -248h-113zM148 628v92h284v-92h-284z" />
    <glyph glyph-name="uni04E4" unicode="&#x4e4;" horiz-adv-x="684" 
d="M77 0v698h125v-375l-12 -137h8l62 132l231 380h116v-698h-125v375l12 137h-8l-61 -131l-232 -381h-116zM243 771q-38 0 -53.5 15.5t-15.5 39.5v24q0 24 15.5 39.5t53.5 15.5t53.5 -15.5t15.5 -39.5v-24q0 -24 -15.5 -39.5t-53.5 -15.5zM441 771q-38 0 -53.5 15.5
t-15.5 39.5v24q0 24 15.5 39.5t53.5 15.5t53.5 -15.5t15.5 -39.5v-24q0 -24 -15.5 -39.5t-53.5 -15.5z" />
    <glyph glyph-name="uni04E5" unicode="&#x4e5;" horiz-adv-x="579" 
d="M70 0v522h121v-237l-14 -118h8l56 108l155 247h113v-522h-121v238l14 118h-8l-56 -108l-155 -248h-113zM191 606q-38 0 -53.5 15.5t-15.5 40.5v23q0 25 15.5 40t53.5 15t53.5 -15t15.5 -40v-23q0 -25 -15.5 -40.5t-53.5 -15.5zM389 606q-38 0 -53.5 15.5t-15.5 40.5v23
q0 25 15.5 40t53.5 15t53.5 -15t15.5 -40v-23q0 -25 -15.5 -40.5t-53.5 -15.5z" />
    <glyph glyph-name="uni04E6" unicode="&#x4e6;" horiz-adv-x="677" 
d="M338 -12q-87 0 -152 39t-101 119t-36 203q0 124 36 203.5t101 118.5t152 39q88 0 153 -39t100.5 -118.5t35.5 -203.5q0 -123 -35.5 -203t-100.5 -119t-153 -39zM338 102q48 0 82 20.5t52.5 60.5t18.5 96v140q0 57 -18.5 96.5t-52.5 60t-82 20.5q-47 0 -81 -20.5
t-52.5 -60t-18.5 -96.5v-140q0 -56 18.5 -96t52.5 -60.5t81 -20.5zM239 771q-38 0 -53.5 15.5t-15.5 39.5v24q0 24 15.5 39.5t53.5 15.5t53.5 -15.5t15.5 -39.5v-24q0 -24 -15.5 -39.5t-53.5 -15.5zM437 771q-38 0 -53.5 15.5t-15.5 39.5v24q0 24 15.5 39.5t53.5 15.5
t53.5 -15.5t15.5 -39.5v-24q0 -24 -15.5 -39.5t-53.5 -15.5z" />
    <glyph glyph-name="uni04E7" unicode="&#x4e7;" horiz-adv-x="535" 
d="M267 -12q-71 0 -123 31.5t-79.5 92.5t-27.5 149q0 89 27.5 150t79.5 92t123 31q72 0 124 -31t79.5 -92t27.5 -150q0 -88 -27.5 -149t-79.5 -92.5t-124 -31.5zM267 89q48 0 74.5 29t26.5 85v116q0 57 -26.5 85.5t-74.5 28.5q-47 0 -73.5 -28.5t-26.5 -85.5v-116
q0 -56 26.5 -85t73.5 -29zM168 606q-38 0 -53.5 15.5t-15.5 40.5v23q0 25 15.5 40t53.5 15t53.5 -15t15.5 -40v-23q0 -25 -15.5 -40.5t-53.5 -15.5zM366 606q-38 0 -53.5 15.5t-15.5 40.5v23q0 25 15.5 40t53.5 15t53.5 -15t15.5 -40v-23q0 -25 -15.5 -40.5t-53.5 -15.5z
" />
    <glyph glyph-name="uni04E8" unicode="&#x4e8;" horiz-adv-x="677" 
d="M338 -12q-87 0 -152 39t-101 119t-36 203q0 124 36 203.5t101 118.5t152 39q88 0 153 -39t100.5 -118.5t35.5 -203.5q0 -123 -35.5 -203t-100.5 -119t-153 -39zM338 96q50 0 86 21t55 61.5t19 98.5v54l42 -35h-404l42 35v-55q0 -57 19.5 -97.5t55.5 -61.5t85 -21z
M338 602q-49 0 -85 -21t-55.5 -61t-19.5 -98v-46l-42 32h404l-42 -34v48q0 58 -19 98t-55 61t-86 21z" />
    <glyph glyph-name="uni04E9" unicode="&#x4e9;" horiz-adv-x="535" 
d="M267 -12q-71 0 -123 31.5t-79.5 92.5t-27.5 149q0 89 27.5 150t79.5 92t123 31q72 0 124 -31t79.5 -92t27.5 -150q0 -88 -27.5 -149t-79.5 -92.5t-124 -31.5zM267 83q51 0 79.5 29.5t28.5 88.5v21h-215v-21q0 -59 29 -88.5t78 -29.5zM160 322v-18h215v18q0 58 -28.5 87.5
t-79.5 29.5q-49 0 -78 -29.5t-29 -87.5z" />
    <glyph glyph-name="uni04EE" unicode="&#x4ee;" horiz-adv-x="591" 
d="M119 0v113h111l20 55l-237 530h135l108 -251l49 -130h8l43 131l93 250h127l-235 -611q-13 -32 -30 -51t-41.5 -27.5t-60.5 -8.5h-90zM157 792v92h284v-92h-284z" />
    <glyph glyph-name="uni04EF" unicode="&#x4ef;" horiz-adv-x="503" 
d="M290 244l84 278h120l-205 -623q-11 -36 -29 -58t-45 -31.5t-67 -9.5h-80v99h98l23 74l-181 549h126l84 -279l31 -134h9zM111 628v92h284v-92h-284z" />
    <glyph glyph-name="uni04F0" unicode="&#x4f0;" horiz-adv-x="591" 
d="M119 0v113h111l20 55l-237 530h135l108 -251l49 -130h8l43 131l93 250h127l-235 -611q-13 -32 -30 -51t-41.5 -27.5t-60.5 -8.5h-90zM200 771q-38 0 -53.5 15.5t-15.5 39.5v24q0 24 15.5 39.5t53.5 15.5t53.5 -15.5t15.5 -39.5v-24q0 -24 -15.5 -39.5t-53.5 -15.5z
M398 771q-38 0 -53.5 15.5t-15.5 39.5v24q0 24 15.5 39.5t53.5 15.5t53.5 -15.5t15.5 -39.5v-24q0 -24 -15.5 -39.5t-53.5 -15.5z" />
    <glyph glyph-name="uni04F1" unicode="&#x4f1;" horiz-adv-x="503" 
d="M290 244l84 278h120l-205 -623q-11 -36 -29 -58t-45 -31.5t-67 -9.5h-80v99h98l23 74l-181 549h126l84 -279l31 -134h9zM154 606q-38 0 -53.5 15.5t-15.5 40.5v23q0 25 15.5 40t53.5 15t53.5 -15t15.5 -40v-23q0 -25 -15.5 -40.5t-53.5 -15.5zM352 606q-38 0 -53.5 15.5
t-15.5 40.5v23q0 25 15.5 40t53.5 15t53.5 -15t15.5 -40v-23q0 -25 -15.5 -40.5t-53.5 -15.5z" />
    <glyph glyph-name="uni04F2" unicode="&#x4f2;" horiz-adv-x="591" 
d="M119 0v113h111l20 55l-237 530h135l108 -251l49 -130h8l43 131l93 250h127l-235 -611q-13 -32 -30 -51t-41.5 -27.5t-60.5 -8.5h-90zM339 917l-122 -172l-69 33l92 188zM523 917l-122 -172l-69 33l92 188z" />
    <glyph glyph-name="uni04F3" unicode="&#x4f3;" horiz-adv-x="503" 
d="M290 244l84 278h120l-205 -623q-11 -36 -29 -58t-45 -31.5t-67 -9.5h-80v99h98l23 74l-181 549h126l84 -279l31 -134h9zM293 753l-122 -172l-69 33l92 188zM477 753l-122 -172l-69 33l92 188z" />
    <glyph glyph-name="uni04F4" unicode="&#x4f4;" horiz-adv-x="635" 
d="M429 0v258h-9q-23 -10 -55 -16.5t-74 -6.5q-121 0 -180 60t-59 183v220h128v-224q0 -66 31 -97t94 -31q43 0 73 6t51 15v331h129v-698h-129zM206 771q-38 0 -53.5 15.5t-15.5 39.5v24q0 24 15.5 39.5t53.5 15.5t53.5 -15.5t15.5 -39.5v-24q0 -24 -15.5 -39.5t-53.5 -15.5
zM404 771q-38 0 -53.5 15.5t-15.5 39.5v24q0 24 15.5 39.5t53.5 15.5t53.5 -15.5t15.5 -39.5v-24q0 -24 -15.5 -39.5t-53.5 -15.5z" />
    <glyph glyph-name="uni04F5" unicode="&#x4f5;" horiz-adv-x="540" 
d="M346 0v228h-10q-16 -30 -47.5 -48.5t-80.5 -18.5q-81 0 -120.5 44.5t-39.5 133.5v183h124v-176q0 -42 19.5 -61.5t63.5 -19.5q43 0 67 15.5t24 41.5v200h124v-522h-124zM160 606q-38 0 -53.5 15.5t-15.5 40.5v23q0 25 15.5 40t53.5 15t53.5 -15t15.5 -40v-23
q0 -25 -15.5 -40.5t-53.5 -15.5zM358 606q-38 0 -53.5 15.5t-15.5 40.5v23q0 25 15.5 40t53.5 15t53.5 -15t15.5 -40v-23q0 -25 -15.5 -40.5t-53.5 -15.5z" />
    <glyph glyph-name="uni04F6" unicode="&#x4f6;" horiz-adv-x="486" 
d="M77 0v698h383v-113h-255v-472h105v-263h-121v150h-112z" />
    <glyph glyph-name="uni04F7" unicode="&#x4f7;" horiz-adv-x="420" 
d="M70 0v522h330v-99h-206v-323h85v-240h-113v140h-96z" />
    </font>
</defs>
</svg>
